<svg width="62" height="65" viewBox="0 0 62 65" fill="none" xmlns="http://www.w3.org/2000/svg">
<path d="M40.9419 35.8161C41.241 35.4725 41.5695 35.1288 41.9938 34.9423C42.1189 35.1072 42.2421 35.2781 42.3614 35.4509C42.643 35.5275 42.8287 35.8495 42.6821 36.1244C42.4553 36.3797 42.1972 36.6036 41.9703 36.8589C41.8335 36.8039 41.6986 36.743 41.5695 36.6861C41.3505 36.4131 40.893 36.2207 40.9419 35.8161Z" fill="#010001"/>
<path d="M19.4159 1.82518C23.0703 0.497672 26.9809 -0.0580725 30.8563 0.00476796C38.5073 0.212927 46.1349 3.25283 51.5843 8.70031C56.7267 13.649 60.1191 20.4299 60.8778 27.5544C61.1593 29.9266 60.9912 32.3185 61.001 34.7005C60.4985 36.299 60.3811 37.9879 59.8434 39.5785C59.4973 40.4367 59.8473 41.3184 60.0585 42.1589C60.1445 43.2841 60.0272 44.4054 59.904 45.5248C59.6401 46.2337 59.3487 46.9367 59.0183 47.6182C58.2147 49.2304 56.7169 50.4165 55.0549 51.0469C54.703 51.2099 54.2826 51.3159 54.0616 51.6655C50.5402 57.6098 44.7858 62.313 38.0772 64.0765C31.3686 65.8065 23.915 65.1683 17.8869 61.6119C16.833 60.9973 15.826 60.306 14.8405 59.5873C12.1109 57.5568 9.82521 54.9528 8.04198 52.0543C7.62942 51.2609 6.67524 51.1745 5.9596 50.7936C3.84398 49.7292 2.13897 47.6457 1.88478 45.2381C1.71272 43.9989 1.70098 42.7323 1.91802 41.4971C2.05685 40.6802 2.4831 39.9595 2.80963 39.2093C1.32361 37.5362 0.351835 35.4389 0.0565867 33.214C-0.00402719 32.018 -0.0822387 30.7907 0.21692 29.6203C0.396807 28.9349 1.10267 28.66 1.62277 28.281C2.32863 27.8254 2.86829 27.1479 3.24566 26.4017C3.94761 24.5165 3.67583 22.2051 2.25238 20.7225C2.0197 20.4358 1.75769 20.1648 1.60713 19.825C1.43702 19.287 1.60713 18.7234 1.84568 18.2344C5.2557 10.7407 11.6964 4.65103 19.4159 1.82518ZM23.1055 3.1409C18.3698 4.24257 13.9646 6.69727 10.4626 10.073C7.7135 12.6023 5.44536 15.656 3.8342 19.0317C3.67778 19.3007 3.73644 19.5992 3.98085 19.7858C5.23223 21.0524 5.89899 22.8355 5.77776 24.6186C5.87552 26.6648 4.84704 28.6384 3.26326 29.8854C2.89175 30.2114 2.3912 30.4176 2.10573 30.826C1.76942 33.7324 2.86243 36.7998 5.06212 38.7478C5.18531 38.7302 5.42776 38.6948 5.55095 38.6791C5.81687 37.5303 5.61743 36.3422 5.81687 35.1856C5.82469 35.3309 5.83642 35.6215 5.84424 35.7649C5.9948 35.9279 6.1434 36.0928 6.26658 36.2794C6.08865 37.3064 6.23334 38.3531 6.10038 39.3802C5.9948 39.4568 5.78167 39.6099 5.67608 39.6865L5.65849 39.3488C3.26326 41.2772 2.98365 45.1929 4.96436 47.5082C5.78949 48.4586 6.86881 49.3148 8.15148 49.47L8.22578 49.6016C8.34114 49.36 8.45455 49.1165 8.56991 48.8769C8.83192 49.4229 9.13695 49.9472 9.37549 50.5069L9.56906 50.4283L9.397 50.501C9.81152 51.0292 10.0403 51.7205 10.5487 52.1584L10.7168 52.178L10.6601 52.2939C10.7207 52.6022 10.9436 52.8359 11.1294 53.0794C12.7171 55.157 14.6137 56.9971 16.7098 58.5544C18.9642 60.1411 21.4533 61.4372 24.132 62.1186C28.377 63.2674 32.9132 63.3086 37.1758 62.2207C40.6992 61.3272 43.9939 59.5519 46.7176 57.1385L46.7469 57.1542C48.3072 55.7148 49.8324 54.2066 51.0114 52.4274L51.0446 52.4313C51.8365 51.2492 52.5991 50.0414 53.1798 48.7395C53.3499 48.7748 53.6921 48.8475 53.8622 48.8828C53.8055 49.0006 53.6901 49.2383 53.6315 49.3581C54.3667 49.2991 55.01 48.9064 55.5829 48.4685C56.4842 47.7144 57.2644 46.758 57.6007 45.6132C58.1423 43.9381 57.9272 42.0155 56.9496 40.5447C57.1842 40.3149 57.4208 40.0832 57.6555 39.8495C58.1013 37.4753 58.7035 35.109 58.7211 32.6759C58.7113 30.9085 58.7798 29.1293 58.5256 27.3737C57.9918 23.0633 56.4686 18.8647 54.0245 15.273C51.0779 10.992 47.1047 7.37477 42.4218 5.11055C36.4777 2.18454 29.5189 1.69753 23.1055 3.1409Z" fill="#010000"/>
<path d="M23.1057 3.1412C29.519 1.69783 36.4779 2.18484 42.422 5.11085C47.1049 7.37507 51.0781 10.9923 54.0247 15.2733C56.4688 18.865 57.992 23.0636 58.5258 27.374C58.7799 29.1296 58.7115 30.9088 58.7213 32.6762C58.7037 35.1093 58.1015 37.4756 57.6557 39.8498C57.5677 39.8459 57.3917 39.8361 57.3037 39.8321C56.9244 39.4237 56.5353 39.027 56.1247 38.6539C55.9897 37.5129 56.0289 36.3582 55.8802 35.2193C55.4462 31.0011 53.8331 26.9224 51.3127 23.5231C49.4376 21.1057 47.2652 18.8788 44.7116 17.1821C41.155 14.7313 36.9022 13.3469 32.6045 13.1171C30.7196 13.0994 28.821 13.0445 26.9518 13.3331C21.7038 14.0833 16.7119 16.6185 13.0516 20.4753C9.03936 24.3381 6.39776 29.6265 5.81704 35.1859C5.6176 36.3425 5.81704 37.5306 5.55112 38.6794C5.42794 38.6951 5.18548 38.7305 5.0623 38.7481C2.8626 36.8001 1.7696 33.7327 2.10591 30.8263C2.39138 30.4179 2.89193 30.2117 3.26344 29.8857C4.84722 28.6387 5.8757 26.6651 5.77794 24.6189C5.89916 22.8358 5.23241 21.0527 3.98103 19.786C3.73662 19.5995 3.67796 19.301 3.83438 19.032C5.44554 15.6563 7.71367 12.6026 10.4628 10.0733C13.9647 6.69757 18.37 4.24287 23.1057 3.1412Z" fill="#77401C"/>
<path d="M26.9517 13.333C28.821 13.0443 30.7196 13.0993 32.6045 13.117C36.9022 13.3467 41.1549 14.7312 44.7116 17.1819C47.2652 18.8786 49.4375 21.1055 51.3127 23.5229C53.833 26.9222 55.4461 31.0009 55.8802 35.2191C56.0288 36.3581 55.9897 37.5128 56.1246 38.6537C56.5352 39.0268 56.9243 39.4235 57.3037 39.832C57.3916 39.8359 57.5676 39.8457 57.6556 39.8497C57.421 40.0833 57.1844 40.3151 56.9498 40.5448C56.6819 40.1599 56.3632 39.8123 56.0464 39.4707C55.8704 42.701 55.2447 45.9432 53.8624 48.883C53.6922 48.8476 53.3501 48.775 53.18 48.7396C53.3481 48.3645 53.5143 47.9914 53.6668 47.6104C54.4274 45.6722 54.9573 43.6358 55.1919 41.566C55.6045 38.0823 55.364 34.5043 54.357 31.1384C53.2054 27.2403 50.9861 23.6879 48.0864 20.8601C46.0373 18.7942 43.6401 17.07 40.9907 15.8682C37.2893 14.146 33.1422 13.5529 29.0928 13.8121C25.5869 14.0065 22.1046 14.9727 19.0406 16.7047C15.703 18.5644 12.8678 21.2626 10.6368 24.3575C8.10079 27.8707 6.64606 32.1301 6.37818 36.4543L6.26673 36.2795C6.14355 36.093 5.99495 35.928 5.84439 35.765C5.83657 35.6217 5.82484 35.331 5.81702 35.1857C6.39774 29.6263 9.03933 24.3379 13.0516 20.4752C16.7119 16.6183 21.7037 14.0831 26.9517 13.333Z" fill="#0D0000"/>
<path d="M17.9849 25.8991C20.386 25.3591 23.0217 25.6909 25.0963 27.0695C26.9069 28.3126 28.3675 30.1585 28.9091 32.3167C29.6345 35.0267 29.1046 38.0901 27.3292 40.2895C26.0152 41.9411 24.1655 43.1959 22.0851 43.6083C19.7818 44.0521 17.2829 43.7065 15.3061 42.3947C12.7564 40.7196 11.0084 37.7504 11.1727 34.6457C11.0201 30.5964 14.1134 26.8221 17.9849 25.8991ZM18.3662 26.5255C15.7774 27.0263 13.5835 28.9449 12.4983 31.325C11.3662 33.9957 11.6673 37.2163 13.3176 39.6042L13.388 39.5963C15.138 42.1787 18.415 43.5435 21.4751 43.0368C23.9524 42.6932 26.1228 41.0751 27.427 38.9699C28.4887 37.0886 28.8719 34.7989 28.301 32.6976C27.7652 30.2802 26.0133 28.2438 23.839 27.1343C22.1457 26.3527 20.1885 26.0974 18.3662 26.5255Z" fill="#0D0000"/>
<path d="M19.0407 16.7048C22.1046 14.9728 25.587 14.0066 29.0928 13.8122C33.1422 13.553 37.2894 14.1461 40.9908 15.8683C43.6402 17.0701 46.0374 18.7943 48.0865 20.8602C50.9862 23.688 53.2055 27.2404 54.3571 31.1385C55.3641 34.5044 55.6046 38.0824 55.192 41.5661C55.1216 41.3461 55.0493 41.1262 54.9769 40.9102C54.9378 41.2617 54.9026 41.6132 54.8674 41.9667C54.7482 41.9117 54.6309 41.8606 54.5155 41.8096C54.5644 42.0983 54.6152 42.3889 54.6661 42.6815C54.2398 42.2946 53.8136 41.9058 53.3873 41.519C53.3541 42.004 53.3208 42.4891 53.2876 42.9741C52.5798 42.8956 51.8719 42.8327 51.1622 42.7875C51.0566 42.4832 50.9627 42.1709 50.8024 41.8921C50.384 41.6996 49.901 41.7291 49.4533 41.6721C49.6136 41.4463 49.7798 41.2224 49.946 40.9986C49.5706 40.8356 49.1971 40.6726 48.8237 40.5096C51.6119 37.291 51.5806 32.0104 48.7435 28.8311C47.0502 26.8104 44.4516 25.5614 41.8061 25.6694C39.1665 25.5948 36.5718 26.8575 34.9079 28.8998C33.4453 30.5651 32.7219 32.8195 32.847 35.0287C32.8098 37.7505 34.2704 40.3368 36.3939 41.9706C36.4799 42.3457 36.5679 42.7208 36.6539 43.0959C35.9833 43.2883 35.2755 42.982 35.076 42.2809C34.5989 42.7679 33.9322 42.8759 33.2811 42.8818C33.2302 42.4301 33.1794 41.9804 33.1305 41.5307C32.5674 41.5013 31.9945 41.4129 31.4392 41.5288C30.9034 41.8371 30.5241 42.3496 30.0744 42.7659C30.2621 42.7934 30.4498 42.8209 30.6395 42.8504C30.6297 42.9466 30.6121 43.1351 30.6023 43.2314C29.8339 43.0919 29.0049 42.9407 28.4144 42.383C27.8454 41.8174 27.5814 41.0339 27.3292 40.2896C29.1046 38.0902 29.6345 35.0268 28.909 32.3168C28.3674 30.1586 26.9068 28.3126 25.0962 27.0696C23.0217 25.691 20.3859 25.3591 17.9848 25.8992C14.1134 26.8222 11.0201 30.5965 11.1726 34.6458C11.0084 37.7505 12.7564 40.7197 15.3061 42.3948C15.2514 42.6776 15.1986 42.9604 15.1477 43.2451C14.9326 43.0311 14.7176 42.817 14.5064 42.6049C13.9824 42.9191 14.1955 43.575 14.172 44.0738C13.5679 43.306 12.7505 42.7404 12.1835 41.9392C11.986 41.6446 11.6145 41.5857 11.3075 41.4679C11.1961 41.9471 11.0944 42.5283 10.588 42.7502C10.0777 42.9073 9.53409 42.8759 9.00616 42.9152C8.57991 43.4218 8.095 43.899 7.45953 44.1288C7.51819 43.8578 7.58076 43.5888 7.64528 43.3197C7.43802 43.2471 7.23076 43.1764 7.02546 43.1057C7.25814 42.601 7.52992 42.114 7.87992 41.6819C7.41456 41.5857 6.94529 41.5091 6.48384 41.3933C6.31373 39.7535 6.2844 38.102 6.37826 36.4544C6.64613 32.1302 8.10087 27.8708 10.6369 24.3576C12.8679 21.2627 15.703 18.5645 19.0407 16.7048ZM41.0944 19.7663C41.067 19.9588 41.0572 20.1532 41.067 20.3496C44.5162 21.2765 47.3787 23.7567 49.3242 26.7024C49.4611 26.8712 49.6292 27.0067 49.8287 27.1089C49.8951 26.9832 50.0262 26.7338 50.0926 26.6081C48.0982 23.5387 45.2259 20.9171 41.6927 19.8115C41.4952 19.7487 41.2958 19.733 41.0944 19.7663ZM17.0561 20.7698C14.9014 21.8794 12.9852 23.4818 11.5226 25.42C11.1804 25.6969 11.7045 26.1741 11.988 25.8795C13.7927 23.6251 16.1156 21.6928 18.8706 20.7522C18.8686 20.546 18.8667 20.3437 18.8647 20.1395C18.2195 20.2023 17.629 20.4851 17.0561 20.7698Z" fill="#F8C8A4"/>
<path d="M41.0944 19.7662C41.2958 19.7329 41.4953 19.7486 41.6927 19.8114C45.2259 20.917 48.0983 23.5386 50.0927 26.608C50.0262 26.7337 49.8952 26.9831 49.8287 27.1088C49.6293 27.0066 49.4611 26.8711 49.3242 26.7023C47.3787 23.7566 44.5162 21.2764 41.0671 20.3495C41.0573 20.1531 41.0671 19.9587 41.0944 19.7662Z" fill="#100000"/>
<path d="M17.0561 20.7698C17.629 20.485 18.2195 20.2022 18.8647 20.1394C18.8667 20.3436 18.8686 20.5459 18.8706 20.7521C16.1156 21.6927 13.7927 23.6251 11.988 25.8795C11.7045 26.174 11.1805 25.6968 11.5226 25.42C12.9852 23.4817 14.9014 21.8793 17.0561 20.7698Z" fill="#0F0000"/>
<path d="M18.3662 26.5256C20.1885 26.0975 22.1457 26.3528 23.839 27.1343C26.0133 28.2439 27.7652 30.2803 28.301 32.6977C28.8719 34.7989 28.4887 37.0887 27.427 38.9699C26.4767 38.752 25.4952 38.7088 24.5273 38.8011C24.4452 39.0387 24.365 39.2763 24.2868 39.5159C21.8505 39.6219 19.4103 39.4903 16.9721 39.5512C15.7774 39.6062 14.5768 39.4236 13.388 39.5964L13.3176 39.6042C11.6674 37.2163 11.3662 33.9957 12.4984 31.325C13.5835 28.9449 15.7774 27.0263 18.3662 26.5256ZM19.3164 36.0007C19.4905 36.364 19.8522 36.5958 20.1435 36.8628C20.5326 36.6036 21.2307 36.2383 20.9882 35.6689C20.7379 35.4293 20.4838 35.1956 20.2784 34.9187C19.9069 35.2054 19.3516 35.4764 19.3164 36.0007Z" fill="white"/>
<path d="M36.8866 27.9473C38.705 26.5432 41.1393 26.0582 43.3762 26.4666C47.1225 27.0636 50.2373 30.6004 50.1806 34.4434C50.2608 36.2599 49.8091 38.2021 48.6164 39.5983L48.4541 39.6258C48.3739 39.614 48.2155 39.5944 48.1354 39.5846C47.9144 39.779 47.6974 39.9754 47.4803 40.1698C47.4178 39.9636 47.3611 39.7613 47.3024 39.559C46.7491 39.8516 46.1722 40.1639 45.527 40.1423C42.7798 40.1246 40.0326 40.1344 37.2874 40.1168C36.7732 40.1168 36.2628 40.1659 35.7545 40.2307L35.5374 40.2562C33.8969 38.3965 33.1911 35.8063 33.6056 33.3634C33.8774 31.1954 35.162 29.2414 36.8866 27.9473ZM40.9419 35.8161C40.893 36.2207 41.3505 36.4131 41.5695 36.6861C41.6985 36.743 41.8335 36.8039 41.9703 36.8589C42.1971 36.6036 42.4552 36.3797 42.6821 36.1244C42.8287 35.8495 42.643 35.5274 42.3614 35.4509C42.2421 35.278 42.1189 35.1072 41.9938 34.9422C41.5695 35.1288 41.241 35.4725 40.9419 35.8161Z" fill="white"/>
<path d="M34.9078 28.8997C36.5717 26.8574 39.1664 25.5947 41.806 25.6693C44.4515 25.5613 47.0501 26.8103 48.7434 28.831C51.5805 32.0103 51.6118 37.2909 48.8235 40.5095C47.2026 42.4811 44.7468 43.7713 42.1795 43.785C40.1167 43.8852 38.0225 43.2568 36.3938 41.9705C34.2703 40.3367 32.8097 37.7504 32.8469 35.0286C32.7218 32.8194 33.4452 30.565 34.9078 28.8997ZM36.8865 27.9473C35.162 29.2414 33.8773 31.1954 33.6055 33.3633C33.191 35.8063 33.8969 38.3965 35.5374 40.2562L35.7544 40.2306L35.5413 40.2601C36.3547 41.1104 37.2717 41.888 38.3491 42.377C41.7904 44.0069 46.3638 42.9406 48.5048 39.7338L48.454 39.6258L48.6163 39.5983C49.809 38.2021 50.2607 36.2599 50.1805 34.4434C50.2372 30.6003 47.1224 27.0636 43.3761 26.4666C41.1393 26.0582 38.7049 26.5432 36.8865 27.9473Z" fill="#0B0000"/>
<path d="M28.3225 53.8592C29.6795 52.9244 31.5018 52.7928 32.9956 53.4742C34.0613 54.0123 34.8962 54.9157 35.4593 55.9623C35.4984 56.5515 35.4534 57.2211 34.9763 57.6374C34.4367 58.2482 33.4492 58.2973 32.8138 57.8122C32.1803 57.3664 31.4451 56.9756 30.6454 57.1249C29.6834 57.1524 29.1163 58.2678 28.125 58.1343C27.0848 58.1028 26.3574 56.9874 26.6175 55.9977C26.9694 55.1415 27.5932 54.4169 28.3225 53.8592ZM30.1546 53.8238C28.9501 54.1419 27.9784 55.0728 27.425 56.1646C27.3605 56.7046 27.642 57.5844 28.3029 57.5039C28.9149 57.3173 29.3236 56.7302 29.9473 56.5593C30.5007 56.4651 31.0677 56.4572 31.6289 56.4906C32.456 56.5515 33.0132 57.2938 33.7719 57.5255C34.73 57.5 35.0311 56.2235 34.4308 55.5971C33.9654 55.1022 33.4747 54.6172 32.9115 54.2382C32.0238 53.9809 31.0814 53.7531 30.1546 53.8238Z" fill="#0B0000"/>
<path d="M19.3164 36.0007C19.3516 35.4764 19.9069 35.2054 20.2784 34.9187C20.4837 35.1956 20.7379 35.4293 20.9882 35.6689C21.2306 36.2383 20.5326 36.6036 20.1435 36.8628C19.8522 36.5958 19.4904 36.364 19.3164 36.0007Z" fill="#000001"/>
<path d="M6.26677 36.2795L6.37822 36.4543C6.28436 38.1019 6.31369 39.7534 6.4838 41.3932C6.73604 43.9853 7.48491 46.5166 8.5701 48.8771C8.45474 49.1167 8.34133 49.3602 8.22597 49.6017L8.15166 49.4701C6.55615 46.4734 5.82878 43.0624 5.67627 39.6867C5.78186 39.6101 5.99498 39.4569 6.10057 39.3803C6.23353 38.3533 6.08884 37.3066 6.26677 36.2795Z" fill="#0E0000"/>
<path d="M49.2382 42.8895C49.7114 42.5478 50.1103 42.0176 50.7419 41.9882C50.736 42.1178 50.7243 42.377 50.7184 42.5066C49.8405 43.3844 48.7983 44.0855 47.7346 44.7178C46.7042 45.2775 45.662 45.8744 44.5006 46.1081C44.4243 45.9825 44.2738 45.7272 44.1975 45.6015C45.9846 44.9181 47.7503 44.1169 49.2382 42.8895Z" fill="#0E0000"/>
<path d="M11.1882 42.3594C11.6634 42.3908 11.9879 42.7482 12.3321 43.0329C13.4349 43.9932 14.6765 44.7944 15.9982 45.417C16.5887 45.7037 17.2457 45.8392 17.8147 46.1769C17.8167 46.3124 17.8186 46.5854 17.8206 46.7229C16.9544 46.6266 16.1664 46.23 15.3862 45.8686C13.8513 45.1067 12.4083 44.1228 11.1961 42.9092C11.1941 42.7718 11.1902 42.4968 11.1882 42.3594Z" fill="#0E0000"/>
<path d="M24.5272 38.8011C25.4951 38.7088 26.4766 38.752 27.4269 38.97C26.1227 41.0751 23.9524 42.6932 21.475 43.0369C18.415 43.5436 15.1379 42.1787 13.3879 39.5964C14.5768 39.4236 15.7773 39.6062 16.972 39.5512C19.4102 39.4904 21.8504 39.6219 24.2867 39.5159C24.3649 39.2763 24.4451 39.0387 24.5272 38.8011Z" fill="#FAFAFA"/>
<path d="M4.96459 47.5084C2.98388 45.1932 3.26349 41.2774 5.65872 39.349L5.67632 39.6868C5.82883 43.0625 6.5562 46.4735 8.15171 49.4702C6.86904 49.3151 5.78972 48.4589 4.96459 47.5084Z" fill="#EBC0A0"/>
<path d="M45.527 40.1423C46.1723 40.1639 46.7491 39.8517 47.3024 39.5591C47.3611 39.7613 47.4178 39.9636 47.4804 40.1698C47.6974 39.9754 47.9144 39.779 48.1354 39.5846C48.2155 39.5944 48.3739 39.6141 48.4541 39.6258L48.5049 39.7339C46.3639 42.9407 41.7905 44.007 38.3492 42.3771C37.2718 41.8881 36.3548 41.1105 35.5414 40.2601L35.7545 40.2307C36.2629 40.1659 36.7732 40.1168 37.2875 40.1168C40.0327 40.1345 42.7799 40.1246 45.527 40.1423Z" fill="#FAF8FA"/>
<path d="M53.8624 48.883C55.2448 45.9433 55.8705 42.7011 56.0465 39.4707C56.3633 39.8124 56.682 40.16 56.9498 40.5449C57.9275 42.0157 58.1426 43.9383 57.6009 45.6134C57.2646 46.7582 56.4845 47.7146 55.5831 48.4687C55.0102 48.9066 54.3669 49.2993 53.6317 49.3583C53.6904 49.2385 53.8057 49.0008 53.8624 48.883Z" fill="#EBBF9F"/>
<path d="M22.085 43.6084C24.1654 43.196 26.0151 41.9412 27.3291 40.2897C27.5813 41.0339 27.8453 41.8175 28.4143 42.383C29.0048 42.9408 29.8338 43.092 30.6022 43.2314C30.612 43.1352 30.6296 42.9466 30.6394 42.8504C30.4497 42.821 30.262 42.7935 30.0743 42.766C30.524 42.3497 30.9034 41.8371 31.4391 41.5288C31.9944 41.4129 32.5673 41.5013 33.1304 41.5308C33.1793 41.9805 33.2302 42.4302 33.281 42.8818C33.9321 42.8759 34.5989 42.7679 35.076 42.2809C35.2754 42.982 35.9832 43.2883 36.6539 43.0959C36.5678 42.7208 36.4798 42.3457 36.3938 41.9707C38.0226 43.2569 40.1167 43.8853 42.1795 43.7852C44.7468 43.7714 47.2026 42.4812 48.8236 40.5096C49.197 40.6726 49.5705 40.8356 49.9459 40.9986C49.7797 41.2225 49.6135 41.4463 49.4532 41.6722C49.9009 41.7291 50.3839 41.6997 50.8023 41.8921C50.9627 42.171 51.0565 42.4832 51.1621 42.7876C51.8719 42.8327 52.5797 42.8956 53.2875 42.9741C53.3207 42.4891 53.354 42.004 53.3872 41.519C53.8135 41.9058 54.2397 42.2947 54.666 42.6815C54.6151 42.3889 54.5643 42.0983 54.5154 41.8096C54.6308 41.8607 54.7481 41.9117 54.8674 41.9667C54.9026 41.6132 54.9378 41.2617 54.9769 40.9102C55.0492 41.1262 55.1216 41.3462 55.192 41.5661C54.9573 43.6359 54.4274 45.6723 53.6668 47.6106C52.914 47.4653 52.1456 47.3337 51.3752 47.3926C50.8786 47.3533 50.64 47.8561 50.3389 48.1565C45.4703 48.186 40.5996 48.2213 35.7329 48.1526C35.6195 47.7579 35.4846 47.369 35.336 46.9881C35.072 47.1844 34.7924 47.3671 34.5774 47.6184C34.5793 47.9012 34.6145 48.184 34.6438 48.4668C34.8081 48.2252 34.9704 47.9857 35.1346 47.7461C35.3477 48.0564 35.5609 48.3686 35.772 48.6848C34.9234 48.8536 34.0357 48.8772 33.2478 48.4727C33.8793 47.7716 34.2547 46.7583 33.9556 45.8255C33.7366 44.932 33.0053 44.3193 32.4109 43.6732C31.9553 43.2216 31.5545 42.6305 30.876 42.5205C31.0969 44.1976 33.5371 44.769 33.3338 46.6267C33.3827 48.0465 31.6757 48.9891 30.4497 48.3804C29.3196 47.748 28.7917 46.3852 27.5892 45.8432C27.4171 46.8624 28.5453 47.3533 29.0419 48.0838C28.8855 48.1604 28.731 48.237 28.5766 48.3156C28.6528 48.4982 28.7271 48.6808 28.8073 48.8674C27.9919 49.0206 27.5598 48.0544 26.7562 48.1703C22.0596 48.1899 17.361 48.1958 12.6644 48.1604C11.3603 47.9955 10.3494 49.16 9.92703 50.2754C9.83708 50.3147 9.65915 50.3913 9.56921 50.4286L9.37564 50.5071C9.13709 49.9475 8.83207 49.4231 8.57006 48.8772C7.48487 46.5168 6.736 43.9855 6.48376 41.3933C6.94521 41.5092 7.41448 41.5858 7.87984 41.682C7.52984 42.114 7.25806 42.601 7.02538 43.1057C7.23068 43.1764 7.43795 43.2471 7.64521 43.3198C7.58068 43.5888 7.51811 43.8578 7.45945 44.1288C8.09492 43.8991 8.57983 43.4219 9.00609 42.9152C9.53402 42.8759 10.0776 42.9074 10.5879 42.7503C11.0943 42.5284 11.196 41.9471 11.3075 41.4679C11.6144 41.5858 11.9859 41.6447 12.1834 41.9392C12.7505 42.7404 13.5678 43.306 14.172 44.0738C14.1954 43.575 13.9823 42.9192 14.5063 42.6049C14.7175 42.817 14.9326 43.0311 15.1476 43.2451C15.1985 42.9604 15.2513 42.6776 15.306 42.3948C17.2828 43.7066 19.7817 44.0522 22.085 43.6084ZM49.2381 42.8897C47.7501 44.117 45.9845 44.9183 44.1974 45.6017C44.2736 45.7273 44.4242 45.9826 44.5004 46.1083C45.6619 45.8746 46.7041 45.2776 47.7345 44.718C48.7982 44.0856 49.8403 43.3846 50.7183 42.5068C50.7241 42.3772 50.7359 42.1179 50.7417 41.9883C50.1102 42.0178 49.7113 42.548 49.2381 42.8897ZM11.1882 42.3595C11.1901 42.4969 11.1941 42.7719 11.196 42.9093C12.4083 44.1229 13.8513 45.1068 15.3862 45.8687C16.1664 46.2301 16.9543 46.6267 17.8205 46.723C17.8186 46.5855 17.8166 46.3125 17.8147 46.177C17.2457 45.8393 16.5887 45.7038 15.9982 45.4171C14.6764 44.7945 13.4348 43.9933 12.332 43.0331C11.9879 42.7483 11.6633 42.3909 11.1882 42.3595Z" fill="#ECBF9D"/>
<path d="M30.8761 42.5204C31.5545 42.6304 31.9554 43.2214 32.411 43.6731C33.0054 44.3192 33.7366 44.9319 33.9556 45.8254C34.2548 46.7582 33.8794 47.7715 33.2478 48.4726C32.6827 48.9301 32.0003 49.3307 31.2456 49.2561C30.3599 49.2698 29.6012 48.7239 29.042 48.0837C28.5453 47.3532 27.4172 46.8623 27.5892 45.8431C28.7917 46.3851 29.3196 47.7479 30.4498 48.3803C31.6758 48.989 33.3827 48.0464 33.3338 46.6266C33.5372 44.7689 31.097 44.1974 30.8761 42.5204Z" fill="#0A0000"/>
<path d="M34.5774 47.6184C34.7925 47.367 35.0721 47.1844 35.3361 46.988C35.4847 47.369 35.6196 47.7578 35.733 48.1525C40.5997 48.2213 45.4703 48.1859 50.339 48.1565C50.6401 47.856 50.8787 47.3533 51.3753 47.3926C52.1457 47.3337 52.9141 47.4652 53.6669 47.6105C53.5144 47.9915 53.3482 48.3646 53.18 48.7397C52.5993 50.0417 51.8367 51.2494 51.0449 52.4316L51.0116 52.4277C50.82 52.4061 50.6323 52.3864 50.4465 52.3668C50.2725 52.624 50.0946 52.8793 49.9264 53.1405C49.856 52.7929 49.7856 52.4493 49.7192 52.1056C49.4532 52.1724 49.1893 52.2391 48.9253 52.3079C48.9957 52.4984 49.0661 52.6908 49.1384 52.8852C44.3871 52.9029 39.6338 52.9363 34.8844 52.8656C34.7945 52.6064 34.7084 52.3471 34.6204 52.0879C34.3271 52.137 34.026 52.1645 33.7464 52.2686C33.4121 52.6103 33.2244 53.062 32.9956 53.4743C31.5017 52.7929 29.6794 52.9245 28.3225 53.8592C27.947 53.4567 27.6244 53.0129 27.3135 52.5612C26.9674 52.9304 27.1043 53.3153 27.4523 53.6059C26.9303 53.2898 26.4063 52.8656 25.763 52.8872C21.8544 52.9147 17.9457 52.8695 14.0371 52.9166C13.2218 52.9579 12.645 52.2274 11.8589 52.1429C11.4776 52.1135 11.0944 52.1449 10.717 52.1783L10.5489 52.1586C10.0405 51.7207 9.81174 51.0295 9.39722 50.5012L9.56928 50.4286C9.65922 50.3912 9.83716 50.3147 9.9271 50.2754C10.3494 49.16 11.3603 47.9954 12.6645 48.1604C17.3611 48.1958 22.0597 48.1899 26.7563 48.1702C27.5599 48.0544 27.992 49.0205 28.8074 48.8674C28.7272 48.6808 28.6529 48.4982 28.5766 48.3155C28.7311 48.237 28.8856 48.1604 29.042 48.0838C29.6012 48.724 30.3599 49.2699 31.2456 49.2562C32.0003 49.3308 32.6827 48.9302 33.2478 48.4726C34.0358 48.8772 34.9235 48.8536 35.7721 48.6847C35.5609 48.3686 35.3478 48.0563 35.1347 47.746C34.9704 47.9856 34.8081 48.2252 34.6439 48.4668C34.6146 48.184 34.5794 47.9012 34.5774 47.6184Z" fill="#E6B998"/>
<path d="M10.7171 52.1782C11.0945 52.1448 11.4777 52.1134 11.859 52.1428C12.645 52.2273 13.2218 52.9578 14.0372 52.9165C17.9458 52.8694 21.8544 52.9146 25.763 52.8871C26.4063 52.8655 26.9304 53.2897 27.4524 53.6058C27.1044 53.3152 26.9675 52.9303 27.3136 52.5611C27.6245 53.0128 27.9471 53.4566 28.3225 53.8592C27.5932 54.4169 26.9695 55.1415 26.6175 55.9977C26.4357 56.4415 26.2968 56.9069 26.0524 57.3213C25.3212 57.5118 24.5547 57.4057 23.8078 57.4136C21.8349 57.4018 19.862 57.4096 17.8891 57.4273C17.8832 57.6747 17.8774 57.9222 17.8735 58.1735C17.6486 58.1087 17.4257 58.0459 17.2028 57.9831C17.0366 58.1716 16.8724 58.3621 16.7101 58.5545C14.614 56.9973 12.7174 55.1572 11.1297 53.0795C10.9439 52.836 10.721 52.6023 10.6604 52.294L10.7171 52.1782Z" fill="#DFB494"/>
<path d="M33.7464 52.2686C34.026 52.1645 34.3272 52.137 34.6204 52.0879C34.7084 52.3471 34.7945 52.6063 34.8844 52.8655C39.6338 52.9362 44.3871 52.9029 49.1385 52.8852C49.0661 52.6908 48.9957 52.4983 48.9253 52.3078C49.1893 52.2391 49.4533 52.1723 49.7192 52.1056C49.7857 52.4492 49.8561 52.7929 49.9264 53.1405C50.0946 52.8793 50.2725 52.624 50.4466 52.3667C50.6323 52.3864 50.82 52.406 51.0116 52.4276C49.8326 54.2068 48.3075 55.715 46.7471 57.1544L46.7178 57.1387C46.4988 57.0169 46.2798 56.8971 46.0628 56.7774C45.748 57.0503 45.4645 57.3881 45.0715 57.5491C44.3069 57.6159 43.5503 57.4058 42.7857 57.4077C41.1081 57.3842 39.4285 57.4549 37.7509 57.4038C37.5866 57.2251 37.4243 57.0484 37.262 56.8736C36.9844 56.8893 36.7087 56.9089 36.433 56.9266C36.128 56.5829 35.8073 56.2589 35.4593 55.9624C34.8961 54.9157 34.0612 54.0124 32.9956 53.4743C33.2244 53.0619 33.4121 52.6103 33.7464 52.2686Z" fill="#DFB494"/>
<path d="M30.1546 53.8238C31.0814 53.7531 32.0238 53.9809 32.9116 54.2382C33.4747 54.6172 33.9654 55.1022 34.4308 55.5971C35.0311 56.2236 34.73 57.5 33.7719 57.5255C33.0132 57.2938 32.456 56.5515 31.6289 56.4906C31.0677 56.4572 30.5007 56.4651 29.9473 56.5594C29.3236 56.7302 28.9149 57.3174 28.3029 57.5039C27.642 57.5844 27.3605 56.7047 27.425 56.1646C27.9784 55.0728 28.9501 54.142 30.1546 53.8238Z" fill="#50040B"/>
<path d="M26.0523 57.3213C26.2967 56.907 26.4356 56.4416 26.6174 55.9977C26.3574 56.9875 27.0847 58.1029 28.1249 58.1343C29.1163 58.2679 29.6833 57.1524 30.6453 57.125C31.445 56.9757 32.1802 57.3665 32.8137 57.8123C33.4492 58.2973 34.4366 58.2482 34.9763 57.6375C35.4534 57.2212 35.4983 56.5515 35.4592 55.9624C35.8073 56.2589 36.1279 56.583 36.433 56.9266C36.7086 56.9089 36.9843 56.8893 37.262 56.8736C37.4243 57.0484 37.5866 57.2251 37.7508 57.4038C39.4285 57.4549 41.108 57.3842 42.7857 57.4077C43.5502 57.4058 44.3069 57.6159 45.0714 57.5491C45.4644 57.3881 45.7479 57.0503 46.0627 56.7774C46.2798 56.8972 46.4988 57.0169 46.7178 57.1387C43.9941 59.5522 40.6994 61.3274 37.176 62.2209C32.9134 63.3088 28.3772 63.2676 24.1322 62.1188C21.4535 61.4374 18.9644 60.1413 16.71 58.5546C16.8722 58.3621 17.0365 58.1716 17.2027 57.9831C17.4256 58.046 17.6485 58.1088 17.8734 58.1736C17.8773 57.9222 17.8831 57.6748 17.889 57.4274C19.8619 57.4097 21.8348 57.4018 23.8077 57.4136C24.5546 57.4058 25.3211 57.5118 26.0523 57.3213Z" fill="#D8AE8F"/>
</svg>
