<svg width="179" height="346" viewBox="0 0 179 346" fill="none" xmlns="http://www.w3.org/2000/svg">
<path d="M55.2264 46.11C54.8976 45.1427 55.6359 44.38 56.0825 43.6111C56.8704 44.0142 58.5206 44.4234 57.8072 45.7007C57.5777 46.9223 55.884 47.0835 55.2264 46.11Z" fill="white"/>
<path d="M65.8102 44.2436C67.113 42.9228 69.1478 44.9753 67.814 46.2216C66.6663 47.8152 64.4701 45.5953 65.8102 44.2436Z" fill="white"/>
<path d="M77.709 62.3992C78.0998 61.2893 78.6954 60.2662 79.626 59.5159C80.1347 59.7081 81.1645 60.0987 81.6794 60.291C80.4139 61.0971 79.0862 61.7977 77.709 62.3992Z" fill="white"/>
<path d="M53.8743 1.36537C57.212 -0.0731916 60.2146 3.00235 62.082 5.42682C62.2867 4.45331 62.51 3.486 62.752 2.5187C63.3972 2.65511 64.2285 2.42569 64.7558 2.92174C66.1827 5.09198 66.3564 7.75828 66.3998 10.2758C71.276 10.6788 76.2391 11.0012 80.8919 12.6196C84.2792 13.7047 87.7844 14.672 90.7436 16.7121C98.0331 21.6912 103.381 29.5537 104.888 38.2967C106.346 44.919 105.211 51.7708 103.337 58.1885C102.357 61.3384 101.923 64.662 100.539 67.6817C98.0641 72.8283 94.894 77.6338 91.1407 81.9433C88.4978 85.2359 85.6813 88.4106 82.4491 91.1451C87.1082 96.7009 91.1531 102.802 96.507 107.751C100.502 111.384 104.528 114.999 108.524 118.633C114.157 124.065 120.199 129.168 126.899 133.229C128.599 130.476 130.243 127.68 131.602 124.74C134.561 118.199 137.924 111.855 140.808 105.283C143.78 98.4681 147.751 92.1434 150.747 85.3537C149.978 81.7015 147.943 78.0865 148.892 74.2606C149.072 73.3367 150.387 72.9585 151.082 73.5538C152.652 74.4777 153.644 76.0464 154.73 77.454C159.153 74.025 163.57 70.4162 168.819 68.2956C170.953 67.2601 173.819 66.4292 175.872 68.0352C179.005 71.5509 178.323 76.8835 176.158 80.7156C173.441 85.5831 166.945 86.848 164.712 92.0876C159.252 102.604 153.626 113.065 146.925 122.855C142.533 129.211 138.699 136.001 133.451 141.718C132.148 143.113 130.107 144 128.215 143.417C126.068 142.772 124.337 141.278 122.557 139.994C112.407 132.218 101.675 125.05 92.8219 115.749C88.6964 112.153 85.0857 108.036 81.0532 104.346C81.0284 109.195 80.9168 114.057 81.2145 118.906C81.7605 124.945 82.7655 130.929 83.6464 136.925C84.6018 143.423 85.7123 149.915 87.6479 156.203C89.05 162.385 91.0786 168.449 91.6742 174.786C92.4931 181.111 93.0018 187.584 91.6866 193.878C91.091 198.944 88.38 203.477 84.9865 207.166C84.4778 217.422 85.1602 227.709 84.4467 237.959C83.9628 257.392 85.2842 276.8 85.6627 296.22C86.3389 305.1 86.4754 314.06 88.2062 322.821C88.8142 324.595 90.2411 325.916 91.5501 327.199C97.2452 332.401 104.497 335.322 110.937 339.433C112.507 340.252 113.598 341.833 112.941 343.625C109.82 345.336 106.117 344.871 102.698 345.237C93.7525 345.063 84.6142 345.442 75.9103 343.023C74.1918 342.49 72.2438 342.378 70.7859 341.25C70.5005 338.999 70.7363 336.717 70.7239 334.454C70.9348 325.636 70.5502 316.813 70.9224 308.002C71.4125 297.454 71.5242 286.901 71.611 276.347C72.492 264.181 71.7289 251.966 72.3927 239.794C72.3555 229.892 72.5044 220.002 72.5912 210.111C69.8864 210.31 67.1629 210.304 64.4704 209.994C64.4146 222.407 64.2719 234.827 64.8613 247.235C65.1342 259.426 65.5251 271.616 65.6057 283.807C66.1331 291.837 65.9469 299.891 66.4805 307.921C67.014 318.462 67.0884 329.022 67.5723 339.569C67.8763 341.25 66.0958 341.628 64.8737 342.013C57.6028 344.127 50.1024 345.528 42.5337 345.938C38.3834 346.031 34.233 345.925 30.0827 346C28.1099 345.993 25.9199 346.099 24.2759 344.834C23.0599 343.569 23.6927 341.653 25.1196 340.896C30.1013 337.839 35.3311 335.155 40.0212 331.639C42.5213 329.779 45.3441 328.303 47.4906 326.015C49.5316 323.863 49.6991 320.763 50.0962 317.985C51.5045 303.537 52.7949 289.059 52.8321 274.53C53.5827 260.48 53.4711 246.398 53.5021 232.329C53.0926 223.536 52.6894 214.743 51.9449 205.976C45.2262 201.586 42.4469 193.518 41.2433 185.96C39.2023 186.016 36.7208 186.66 35.0147 185.234C33.5382 183.61 35.1574 181.632 34.872 179.896C32.5332 179.772 30.548 178.686 29.0342 176.938C22.2038 171.388 16.9492 164.276 10.8508 157.995C8.23282 155.366 6.34065 152.147 4.18173 149.153C1.79325 145.327 -0.775126 140.992 0.223689 136.286C2.08483 131.14 6.48955 127.63 9.9947 123.631C16.1985 117.796 22.4458 111.973 29.3072 106.907C33.5134 103.236 38.129 100.068 42.4841 96.5707C43.7683 95.3182 45.5922 94.2269 45.8031 92.2736C45.6605 89.967 43.7187 88.4044 42.1925 86.91C37.8436 83.1338 34.7976 78.1919 31.311 73.6778C27.7811 69.1265 25.0328 63.8683 24.0774 58.1451C21.7633 49.1231 22.7125 39.233 27.1297 30.986C29.2389 26.4161 32.9736 22.9252 36.6091 19.5644C40.6974 16.7307 45.0277 14.1326 49.7984 12.6134C48.6135 12.1732 46.3305 12.1918 46.6593 10.3378C48.3901 6.55534 53.1919 6.79717 56.6846 7.0886C55.0717 5.61904 53.3346 3.75263 53.8743 1.36537ZM54.718 2.03504C55.2081 4.62073 57.6462 6.02208 58.7753 8.27293C55.0592 8.24813 49.6061 6.79717 47.6457 11.026C49.8666 11.8941 51.5789 10.0959 53.6696 9.7983C52.3172 11.1004 50.6297 12.2104 49.9163 14.0272C49.3765 15.2673 49.2773 17.0159 50.5367 17.8654C52.3482 16.6563 52.8011 14.3372 54.2403 12.7932C53.9177 15.8688 51.7092 19.2978 53.7875 22.1749C56.6784 20.3581 54.9104 16.1354 57.3112 13.8908C57.1437 15.6393 56.939 17.3879 56.8832 19.1427C57.6897 18.8079 58.7071 18.5971 59.0359 17.667C60.4876 14.6906 61.8462 11.1501 65.308 10.0277C65.3328 7.72107 64.8923 5.43302 63.9059 3.34339C63.2855 4.80675 63.0312 6.37552 62.7892 7.93189C60.5496 5.48882 58.5272 1.84902 54.718 2.03504ZM62.4914 13.4939C60.5993 15.751 60.3759 20.4015 56.5668 20.1534C55.8843 21.3068 55.5059 23.4212 53.744 23.1546C51.8643 22.6151 51.8953 20.2527 51.8271 18.6839C51.0206 18.6467 50.0404 19.0993 49.3827 18.4607C48.1544 17.3941 48.5514 15.6517 48.446 14.2194C45.1393 15.5525 42.025 17.3197 39.01 19.2109C36.4912 20.7735 34.5866 23.0864 32.496 25.145C29.6608 27.9229 27.9113 31.5689 26.4224 35.1963C23.3825 42.7115 23.3267 51.2003 25.3926 58.9697C26.379 64.7364 29.6546 69.7279 33.1287 74.304C36.2555 78.3655 39.0596 82.7494 42.9556 86.135C44.7175 87.7719 46.7151 89.6383 46.9198 92.1868C46.8454 94.3323 45.0711 95.7584 43.607 97.073C39.2085 100.75 34.3509 103.85 30.0765 107.682C23.395 112.668 17.2284 118.298 11.1858 124.027C7.62485 127.946 3.23254 131.456 1.32797 136.559C0.53388 140.534 2.48188 144.341 4.49812 147.633C6.96104 151.304 9.36191 155.062 12.5073 158.199C17.644 163.402 22.0053 169.348 27.5577 174.141C29.8531 176.113 31.8632 179.046 35.3063 178.637C35.8832 180.416 37.4962 181.315 39.0286 182.165C37.8871 182.022 36.758 181.855 35.6289 181.675C35.5979 182.717 35.3001 183.951 36.1872 184.757C38.0546 185.141 40.412 185.427 41.9133 183.994C43.5015 181.626 44.1591 178.73 44.5376 175.933C44.9036 173.379 43.2162 171.146 41.2992 169.677C31.9314 162.428 22.452 155.087 14.9578 145.835C12.6127 143.119 10.3669 140.273 8.72913 137.074C7.98467 135.74 8.84079 134.283 9.78998 133.328C16.1923 126.687 23.0972 120.536 30.2502 114.714C34.4253 111.874 38.3648 108.693 42.7509 106.176C44.9098 104.973 46.8516 103.156 49.3517 102.716C50.8531 104.111 50.5429 106.442 50.8158 108.309C51.3618 120.233 50.8158 132.2 49.4262 144.049C49.2214 143.789 48.812 143.262 48.6135 143.001C48.5266 142.902 48.3591 142.704 48.2723 142.605C49.6991 134.165 49.8356 125.578 49.8853 117.039C49.8356 112.612 49.9907 108.147 49.1346 103.782C34.7603 111.434 22.2597 122.161 10.9005 133.75C10.1374 134.5 9.182 135.616 9.81479 136.745C11.1486 139.256 12.7554 141.625 14.6228 143.77C22.6691 153.902 32.9488 161.92 43.1851 169.702C44.6678 161.126 46.7585 152.662 48.1234 144.068C48.3467 144.359 48.7996 144.948 49.0229 145.24C47.7635 153.704 45.5364 161.988 44.1777 170.433C44.581 171.878 45.5116 173.149 45.6915 174.668C45.8218 178.649 43.9916 182.283 42.3414 185.786C43.2782 191.168 44.7361 196.761 48.2412 201.108C49.5813 202.881 51.5603 204.01 53.012 205.666C53.5083 208.964 53.4649 212.325 53.7626 215.642C55.1027 232.75 54.4513 249.914 54.3582 267.052C53.682 275.095 54.0356 283.174 53.4028 291.216C53.1609 298.273 52.2923 305.286 51.7588 312.324C51.3804 315.839 51.1881 319.399 50.4064 322.865C49.7116 325.779 47.3789 327.925 44.9842 329.537C40.8649 332.277 36.9751 335.365 32.6076 337.715C29.8966 339.532 26.7884 340.76 24.3752 342.998C26.0502 345.764 29.8345 344.66 32.5332 344.865C43.9358 345.162 55.568 344.133 66.3378 340.227C66.7224 338.41 66.2633 336.519 66.2695 334.677C65.9221 323.931 65.7608 313.179 65.0784 302.452C64.5325 285.289 64.2719 268.131 63.8439 250.962C63.2669 237.233 63.2545 223.48 63.3848 209.746C61.7718 209.274 60.196 208.605 58.9801 207.414C63.1056 208.375 67.2994 209.659 71.5862 209.02C73.9499 208.896 76.2577 207.737 78.6338 208.214C77.1076 209.039 75.4264 209.467 73.7514 209.851C73.3543 222.655 73.8196 235.472 73.2302 248.271C73.0689 257.466 73.3977 266.674 72.7463 275.851C72.6285 280.384 72.5974 284.917 72.5292 289.449C72.6223 299.575 71.6979 309.682 71.853 319.808C71.9833 326.777 71.7847 333.747 71.7785 340.717C81.9032 344.245 92.7412 344.102 103.319 344.046C106.334 343.811 109.498 344.077 112.32 342.781C111.502 340.425 108.964 339.619 107.041 338.41C101.278 334.956 94.9684 332.16 90.1605 327.348C88.8514 325.978 87.3749 324.545 86.9903 322.611C85.855 316.143 85.4083 309.583 84.9927 303.041C84.2358 295.6 84.6453 288.104 84.0559 280.65C83.6526 264.554 82.7221 248.426 83.603 232.322C83.8139 223.679 83.3673 215.016 83.9628 206.379C86.7111 204.078 88.473 200.86 89.72 197.555C92.3938 188.502 91.2771 178.953 89.8503 169.788C88.2435 162.478 86.1156 155.291 84.4033 148.012C82.995 140.819 82.0335 133.545 80.954 126.297C79.738 118.286 79.6636 110.125 80.1599 102.052C84.7197 106.058 88.6467 110.727 93.2748 114.664C101.811 123.631 112.029 130.705 121.899 138.097C123.705 139.417 125.392 140.949 127.414 141.941C129.034 142.772 131.224 142.611 132.446 141.147C134.785 138.692 136.751 135.902 138.774 133.186C145.263 123.265 152.056 113.517 157.683 103.069C159.792 99.0386 161.932 95.0205 164.073 91.0087C166.412 86.1722 172.318 84.715 175.153 80.2939C176.921 77.082 177.802 72.7725 175.637 69.5357C174.892 68.2088 173.161 68.0476 171.828 68.3576C165.251 70.3728 159.867 74.8249 154.568 79.0352C153.117 77.33 152.056 75.0915 149.81 74.2854C149.283 78.1671 151.07 81.7201 151.864 85.3971C150.673 88.64 148.83 91.5916 147.366 94.7105C143.588 101.308 140.746 108.371 137.384 115.173C134.425 120.933 132.111 127.035 128.606 132.504C128.01 133.378 127.21 134.792 125.981 133.936C119.436 129.999 113.592 124.976 108.058 119.736C104.02 115.904 99.8012 112.271 95.7315 108.476C90.1542 103.236 85.7495 96.9428 81.0408 90.9529C83.8512 88.4478 86.6181 85.8807 88.9321 82.892C94.5279 76.3813 99.9066 69.1451 101.575 60.5323C103.71 53.2713 105.502 45.5577 103.716 38.0176C102.072 29.2499 96.4201 21.4122 88.8204 16.8237C81.9528 13.4877 74.3531 11.6833 66.7224 11.4663C64.9978 11.2121 63.3475 11.9747 62.4914 13.4939Z" fill="#302026"/>
<path d="M64.4639 36.4555C65.8101 37.8383 67.1005 39.4939 69.1664 39.7419C70.1466 40.2442 72.0077 39.8659 72.2186 41.2115C69.0981 41.5773 64.4825 40.269 64.4639 36.4555Z" fill="#302026"/>
<path d="M53.8926 41.0192C56.43 40.2255 58.3593 38.3467 60.5431 36.9392C58.9921 40.951 54.3269 42.5942 50.3812 43.1213C51.0016 41.7385 52.6766 41.6083 53.8926 41.0192Z" fill="#302026"/>
<path d="M56.312 42.2594C58.2972 41.6145 60.6422 42.9414 61.0331 45.0001C61.9264 47.5176 59.4201 50.5745 56.7587 49.8614C54.3206 49.4646 52.7076 46.296 53.9856 44.1382C54.5315 43.2887 55.3442 42.5756 56.312 42.2594ZM55.2263 46.11C55.8839 47.0835 57.5776 46.9223 57.8071 45.7008C58.5205 44.4234 56.8703 44.0142 56.0824 43.6111C55.6358 44.38 54.8975 45.1427 55.2263 46.11Z" fill="#302026"/>
<path d="M66.3436 42.3896C68.8934 41.3169 72.0139 43.5057 71.437 46.3332C71.195 49.3716 67.0384 50.7543 64.954 48.6399C63.1425 46.8603 63.7566 43.0841 66.3436 42.3896ZM65.8101 44.2436C64.4701 45.5953 66.6662 47.8152 67.8139 46.2216C69.1477 44.9753 67.1129 42.9228 65.8101 44.2436Z" fill="#302026"/>
<path d="M72.5909 43.1337C74.1977 44.6962 74.3218 47.7532 71.9891 48.6895C72.9135 46.9471 72.8391 45.0249 72.5909 43.1337Z" fill="#302026"/>
<path d="M85.8049 45.6015C87.9825 43.2019 92.6415 43.1337 94.0498 46.3642C95.9482 49.5948 94.4096 53.712 91.4318 55.6839C92.1887 53.5818 94.1242 51.827 93.8699 49.4336C93.8265 47.5672 92.8587 45.3535 90.861 44.9195C89.1426 44.6528 87.4862 45.3535 85.8049 45.6015Z" fill="#302026"/>
<path d="M50.1516 46.9533C50.3253 46.234 50.6231 45.5581 50.9085 44.8761C51.076 45.8744 50.9581 46.9409 51.3552 47.8896C52.112 48.8879 53.2535 49.4832 54.2399 50.2335C52.3229 50.3079 50.3439 48.9251 50.1516 46.9533Z" fill="#302026"/>
<path d="M72.5785 54.8468C77.7959 53.5632 81.9338 49.7622 87.1947 48.5779C89.0372 48.9251 90.8611 50.5063 90.371 52.5587C89.5025 56.2915 86.4254 59.1376 83.1746 60.9296C78.3232 63.5029 73.3602 66.1506 67.8636 67.0001C59.7304 68.5131 51.1195 69.251 43.1351 66.6343C40.7529 65.9522 38.5257 63.7758 38.7118 61.1653C39.3074 58.1083 42.8126 56.7628 45.6229 56.831C49.1404 57.0914 52.6518 57.5069 56.1942 57.4201C61.7652 57.6061 67.2308 56.2729 72.5785 54.8468ZM87.2381 50.1467C86.7852 51.4798 86.6425 53.0734 85.5383 54.0593C84.3099 54.5553 82.9575 54.0965 81.6857 53.9911C81.0591 55.9257 79.8866 57.5813 78.0316 58.499C76.4683 58.2758 74.9049 57.9595 73.509 57.1782C72.4296 60.756 67.9442 61.6613 65.047 59.6895C63.7318 60.7746 62.3298 62.0458 60.5183 62.0644C58.8122 62.1636 57.4163 61.1033 56.0515 60.2476C55.0279 61.1963 53.9422 62.4178 52.4037 62.269C50.9209 62.393 50.0028 61.0723 48.9978 60.2352C47.9245 60.8056 46.8947 61.5497 45.6787 61.7605C44.227 61.3079 43.3151 60.0429 42.5086 58.84C39.7975 59.1066 39.264 62.8209 41.2306 64.3338C43.4143 65.884 46.144 66.256 48.7062 66.7521C49.6802 65.9398 50.5611 64.8795 51.8205 64.5074C53.1047 64.0796 54.2276 65.0159 55.3567 65.4809C56.9138 64.2284 58.9115 64.154 60.5307 65.3321C61.9513 63.9866 63.8497 63.4347 65.6054 64.5446C66.3622 63.968 67.0943 63.3665 67.9132 62.8767C68.9492 62.6348 69.9667 63.1185 70.9655 63.3355C72.0946 61.1777 74.7188 59.9995 76.9149 61.3947C77.4485 60.1236 78.2736 58.8896 79.6819 58.5052C81.0653 58.7532 82.517 60.3406 83.8756 59.1811C86.6115 57.2588 90.1291 54.1213 88.7642 50.4071C88.3858 50.3451 87.6165 50.2149 87.2381 50.1467ZM81.1335 52.3727C82.3929 52.9556 83.8198 53.7741 85.2032 53.0176C85.7368 52.1123 85.9725 51.083 86.3075 50.1032C84.465 50.5621 82.6783 51.2628 81.1335 52.3727ZM73.6455 55.9629C75.122 56.9426 77.281 57.9843 78.8629 56.5954C80.3457 55.8575 80.2216 54.0965 80.3643 52.6951C78.2053 53.9539 75.8603 54.8282 73.6455 55.9629ZM65.0843 57.9471C66.3312 59.5593 68.4964 60.1298 70.3761 59.3299C71.8836 58.995 72.1256 57.2588 72.6095 56.0621C70.0845 56.6326 67.5658 57.2278 65.0843 57.9471ZM43.3399 58.1455C43.9603 59.2059 44.7916 60.1174 45.6911 60.9482C46.9071 60.2414 48.1168 59.4663 48.8861 58.2633C47.0436 58.0525 45.1886 57.9843 43.3399 58.1455ZM49.6243 58.2944C49.9283 60.415 51.7336 61.5745 53.8057 61.3017C54.3641 60.4026 54.8852 59.4787 55.3939 58.5486C53.4645 58.4742 51.5475 58.406 49.6243 58.2944ZM56.25 58.5982C57.2426 59.9685 58.7129 61.2025 60.512 61.0785C62.367 61.1405 63.6636 59.5841 64.3274 58.0277C61.6411 58.3192 58.9487 58.5424 56.25 58.5982ZM77.709 62.3992C79.0863 61.7977 80.4139 61.0971 81.6795 60.291C81.1646 60.0988 80.1347 59.7081 79.626 59.5159C78.6954 60.2662 78.0999 61.2893 77.709 62.3992ZM73.1058 62.1326C72.2745 62.765 72.4854 63.937 72.2435 64.8423C73.6331 64.1354 75.6618 63.968 76.5179 62.6224C75.6121 61.7543 74.2225 61.6303 73.1058 62.1326ZM66.3126 66.1568C67.9504 65.853 69.582 65.5119 71.2012 65.1213C70.4009 64.5074 69.6131 63.6951 68.5336 63.6951C67.2184 63.8254 66.8337 65.1771 66.3126 66.1568ZM61.2069 66.8575C62.6151 66.6901 64.0234 66.4855 65.4379 66.287C64.8423 65.698 64.2405 65.1151 63.6388 64.5384C62.6213 65.0779 61.6039 65.7042 61.2069 66.8575ZM50.0214 66.9939C51.6468 67.1737 53.2784 67.2295 54.91 67.1613C54.4075 66.3676 53.7747 65.7228 53.0178 65.2205C51.8391 65.4437 50.8775 66.194 50.0214 66.9939ZM55.8033 67.2729C57.0689 67.2357 58.3469 67.2543 59.6063 67.0621C60.3321 66.256 59.203 65.8902 58.6571 65.5182C57.2923 64.9229 56.3865 66.2746 55.8033 67.2729Z" fill="#302026"/>
<path d="M32.8182 60.3406C33.0911 55.8761 37.7254 52.8067 41.9688 53.3772C38.8793 54.5243 34.7662 55.5908 34.0155 59.3485C32.8058 62.3062 34.4249 65.1337 35.889 67.6264C35.734 67.6636 35.4176 67.7504 35.2625 67.7876C33.7177 65.6298 31.9434 63.1681 32.8182 60.3406Z" fill="#302026"/>
<path d="M64.2033 70.5159C67.1935 70.1811 70.0845 69.2509 73.081 68.9471C69.2594 71.1546 64.5693 71.7808 60.2142 71.4832C61.3868 70.6957 62.8571 70.7391 64.2033 70.5159Z" fill="#302026"/>
<path d="M163.868 77.4917C166.2 76.6794 168.918 77.8637 170.382 79.7611C168.21 79.0046 166.02 78.2977 163.868 77.4917Z" fill="#302026"/>
<path d="M155.468 85.9494C157.143 82.7933 160.815 80.6106 164.426 81.2679C162.863 82.105 161.051 82.3158 159.5 83.1715C158.104 84.021 156.888 85.1371 155.468 85.9494Z" fill="#302026"/>
<path d="M57.9064 88.1134C62.6585 91.1022 69.005 90.9348 73.7137 87.9398C72.3551 90.7611 68.8685 91.1146 66.1016 91.22C63.2044 91.1456 59.4139 91.0898 57.9064 88.1134Z" fill="#302026"/>
<path d="M59.7366 120.531C61.666 119.47 63.9242 119.644 66.0521 119.582C67.3611 119.656 68.912 119.421 69.9357 120.438C66.5422 120.574 63.1301 120.791 59.7366 120.531Z" fill="#302026"/>
<path d="M54.7176 2.03551C58.5268 1.84949 60.5492 5.4893 62.7888 7.93237C63.0307 6.37599 63.2851 4.80722 63.9055 3.34386C64.8919 5.43349 65.3323 7.72154 65.3075 10.0282C61.8458 11.1505 60.4872 14.6911 59.0355 17.6674C58.7067 18.5975 57.6892 18.8084 56.8828 19.1432C56.9386 17.3884 57.1433 15.6398 57.3108 13.8912C54.9099 16.1359 56.678 20.3585 53.787 22.1753C51.7088 19.2982 53.9173 15.8692 54.2399 12.7937C52.8006 14.3377 52.3478 16.6567 50.5362 17.8659C49.2769 17.0164 49.3761 15.2678 49.9159 14.0276C50.6293 12.2108 52.3167 11.1009 53.6692 9.79877C51.5785 10.0964 49.8662 11.8946 47.6453 11.0265C49.6057 6.79764 55.0588 8.2486 58.7749 8.2734C57.6458 6.02255 55.2077 4.6212 54.7176 2.03551Z" fill="#D36537"/>
<path d="M62.4911 13.4944C63.3472 11.9752 64.9974 11.2125 66.7221 11.4668C74.3528 11.6838 81.9524 13.4882 88.8201 16.8242C96.4197 21.4127 102.071 29.2503 103.715 38.0181C105.502 45.5581 103.709 53.2718 101.575 60.5328C99.9063 69.1456 94.5276 76.3818 88.9317 82.8925C86.6177 85.8812 83.8508 88.4483 81.0405 90.9534C85.7492 96.9432 90.1539 103.237 95.7311 108.477C99.8008 112.271 104.019 115.905 108.058 119.737C113.592 124.977 119.436 129.999 125.981 133.937C127.209 134.792 128.01 133.378 128.605 132.504C132.11 127.035 134.424 120.934 137.384 115.173C140.746 108.371 143.587 101.309 147.365 94.711C148.83 91.592 150.672 88.6405 151.863 85.3976C151.069 81.7206 149.282 78.1676 149.81 74.2859C152.056 75.092 153.116 77.3305 154.568 79.0357C159.866 74.8254 165.251 70.3733 171.827 68.3581C173.161 68.048 174.892 68.2093 175.636 69.5362C177.801 72.773 176.92 77.0824 175.152 80.2944C172.317 84.7155 166.411 86.1726 164.072 91.0092C161.932 95.021 159.792 99.0391 157.682 103.07C152.056 113.518 145.262 123.265 138.773 133.186C136.751 135.902 134.784 138.692 132.445 141.148C131.223 142.611 129.033 142.773 127.414 141.942C125.392 140.95 123.704 139.418 121.899 138.097C112.029 130.706 101.811 123.631 93.2744 114.665C88.6464 110.727 84.7193 106.058 80.1595 102.053C79.6632 110.126 79.7377 118.286 80.9536 126.297C82.0331 133.546 82.9947 140.819 84.4029 148.012C86.1152 155.292 88.2431 162.478 89.8499 169.789C91.2768 178.954 92.3934 188.503 89.7196 197.556C88.4726 200.861 86.7108 204.079 83.9625 206.379C83.3669 215.017 83.8136 223.679 83.6026 232.323C82.7217 248.426 83.6523 264.554 84.0555 280.651C84.6449 288.104 84.2354 295.601 84.9923 303.042C85.408 309.583 85.8546 316.144 86.9899 322.611C87.3746 324.546 88.8511 325.978 90.1601 327.348C94.968 332.16 101.277 334.957 107.041 338.41C108.964 339.62 111.501 340.426 112.32 342.782C109.497 344.078 106.333 343.811 103.318 344.047C92.7409 344.103 81.9028 344.245 71.7782 340.717C71.7844 333.747 71.9829 326.778 71.8526 319.808C71.6975 309.683 72.6219 299.575 72.5288 289.45C72.5971 284.917 72.6281 280.384 72.746 275.852C73.3974 266.675 73.0686 257.467 73.2299 248.271C73.8192 235.473 73.3539 222.656 73.751 209.852C75.426 209.467 77.1072 209.039 78.6334 208.215C76.2573 207.737 73.9495 208.897 71.5858 209.021C67.299 209.659 63.1052 208.376 58.9797 207.415C60.1956 208.605 61.7714 209.275 63.3844 209.746C63.2541 223.481 63.2665 237.234 63.8435 250.962C64.2715 268.132 64.5321 285.289 65.078 302.453C65.7605 313.18 65.9218 323.932 66.2692 334.678C66.263 336.519 66.7221 338.41 66.3374 340.227C55.5676 344.134 43.9354 345.163 32.5328 344.865C29.8341 344.661 26.0498 345.764 24.3748 342.999C26.7881 340.76 29.8962 339.533 32.6073 337.716C36.9747 335.366 40.8645 332.278 44.9839 329.537C47.3785 327.925 49.7112 325.78 50.406 322.865C51.1877 319.399 51.38 315.84 51.7584 312.324C52.292 305.286 53.1605 298.273 53.4025 291.217C54.0352 283.175 53.6816 275.095 54.3578 267.053C54.4509 249.914 55.1023 232.751 53.7623 215.643C53.4645 212.326 53.5079 208.965 53.0116 205.666C51.5599 204.01 49.5809 202.882 48.2409 201.109C44.7357 196.762 43.2778 191.169 42.341 185.787C43.9913 182.283 45.8214 178.65 45.6911 174.669C45.5112 173.15 44.5806 171.879 44.1774 170.434C45.536 161.988 47.7632 153.704 49.0226 145.24C48.7992 144.949 48.3463 144.36 48.123 144.068C48.1602 143.703 48.2347 142.971 48.2719 142.605C48.3587 142.704 48.5263 142.903 48.6131 143.002C48.8116 143.262 49.2211 143.789 49.4258 144.05C50.8155 132.2 51.3614 120.233 50.8155 108.309C50.5425 106.443 50.8527 104.111 49.3514 102.716C46.8512 103.156 44.9094 104.973 42.7505 106.176C38.3644 108.694 34.425 111.874 30.2498 114.714C23.0968 120.537 16.1919 126.688 9.7896 133.329C8.84042 134.284 7.98429 135.741 8.72875 137.074C10.3666 140.274 12.6123 143.12 14.9574 145.836C22.4516 155.087 31.931 162.429 41.2988 169.677C43.2158 171.147 44.9032 173.379 44.5372 175.934C44.1588 178.73 43.5012 181.626 41.913 183.995C40.4117 185.427 38.0542 185.142 36.1869 184.757C35.2997 183.951 35.5975 182.717 35.6285 181.676C36.7576 181.855 37.8867 182.023 39.0282 182.165C37.4959 181.316 35.8829 180.417 35.3059 178.637C31.8628 179.047 29.8528 176.114 27.5573 174.142C22.0049 169.349 17.6436 163.402 12.5069 158.2C9.36154 155.062 6.96066 151.305 4.49774 147.634C2.4815 144.341 0.533502 140.534 1.32759 136.559C3.23216 131.456 7.62447 127.947 11.1855 124.028C17.228 118.298 23.3946 112.668 30.0761 107.683C34.3505 103.851 39.2081 100.75 43.6066 97.0735C45.0707 95.7589 46.845 94.3327 46.9195 92.1873C46.7147 89.6388 44.7171 87.7724 42.9552 86.1354C39.0592 82.7499 36.2551 78.366 33.1284 74.3045C29.6542 69.7284 26.3786 64.7369 25.3922 58.9702C23.3263 51.2008 23.3822 42.712 26.422 35.1968C27.911 31.5694 29.6604 27.9234 32.4956 25.1455C34.5863 23.0869 36.4908 20.774 39.0096 19.2114C42.0246 17.3202 45.139 15.553 48.4456 14.2199C48.5511 15.6522 48.154 17.3946 49.3824 18.4611C50.04 19.0998 51.0202 18.6472 51.8267 18.6844C51.8949 20.2531 51.8639 22.6156 53.7437 23.1551C55.5055 23.4217 55.884 21.3073 56.5664 20.1539C60.3755 20.402 60.5989 15.7514 62.4911 13.4944ZM64.4639 36.4555C64.4825 40.269 69.0981 41.5773 72.2186 41.2115C72.0077 39.8659 70.1466 40.2442 69.1664 39.7419C67.1005 39.4939 65.8101 37.8383 64.4639 36.4555ZM53.8926 41.0192C52.6766 41.6083 51.0016 41.7385 50.3812 43.1213C54.3268 42.5942 58.9921 40.951 60.543 36.9392C58.3593 38.3467 56.4299 40.2256 53.8926 41.0192ZM56.312 42.2594C55.3442 42.5756 54.5315 43.2887 53.9856 44.1382C52.7076 46.296 54.3206 49.4646 56.7587 49.8614C59.4202 50.5745 61.9265 47.5176 61.0331 45.0001C60.6423 42.9415 58.2973 41.6145 56.312 42.2594ZM66.3436 42.3896C63.7566 43.0841 63.1424 46.8603 64.954 48.6399C67.0384 50.7543 71.195 49.3716 71.437 46.3332C72.0139 43.5057 68.8934 41.3169 66.3436 42.3896ZM72.5909 43.1337C72.839 45.0249 72.9135 46.9471 71.9891 48.6895C74.3217 47.7532 74.1977 44.6962 72.5909 43.1337ZM85.805 45.6015C87.4862 45.3535 89.1427 44.6528 90.8611 44.9195C92.8587 45.3535 93.8265 47.5672 93.87 49.4336C94.1243 51.827 92.1887 53.5818 91.4319 55.6839C94.4097 53.712 95.9482 49.5948 94.0499 46.3642C92.6416 43.1337 87.9825 43.2019 85.805 45.6015ZM50.1516 46.9533C50.344 48.9251 52.323 50.3079 54.24 50.2335C53.2536 49.4832 52.1121 48.8879 51.3552 47.8896C50.9581 46.9409 51.076 45.8744 50.9085 44.8761C50.6231 45.5581 50.3254 46.234 50.1516 46.9533ZM72.5785 54.8468C67.2308 56.2729 61.7652 57.6061 56.1942 57.4201C52.6518 57.5069 49.1404 57.0914 45.6229 56.831C42.8125 56.7628 39.3074 58.1083 38.7118 61.1653C38.5257 63.7758 40.7529 65.9522 43.1351 66.6343C51.1194 69.251 59.7304 68.5131 67.8636 67.0001C73.3601 66.1506 78.3232 63.5029 83.1746 60.9296C86.4254 59.1376 89.5025 56.2915 90.371 52.5587C90.8611 50.5063 89.0372 48.9251 87.1947 48.5779C81.9338 49.7622 77.7959 53.5632 72.5785 54.8468ZM32.8182 60.3406C31.9434 63.1681 33.7177 65.6298 35.2625 67.7876C35.4176 67.7504 35.734 67.6636 35.8891 67.6264C34.425 65.1337 32.8058 62.3062 34.0155 59.3485C34.7662 55.5909 38.8793 54.5243 41.9688 53.3772C37.7254 52.8067 33.0911 55.8761 32.8182 60.3406ZM64.2033 70.5159C62.8571 70.7391 61.3868 70.6957 60.2142 71.4832C64.5693 71.7808 69.2594 71.1546 73.081 68.9471C70.0845 69.251 67.1935 70.1811 64.2033 70.5159ZM163.868 77.4917C166.02 78.2978 168.21 79.0046 170.382 79.7611C168.918 77.8637 166.2 76.6794 163.868 77.4917ZM155.468 85.9494C156.888 85.1371 158.104 84.021 159.5 83.1715C161.051 82.3158 162.863 82.105 164.426 81.2679C160.815 80.6106 157.143 82.7933 155.468 85.9494ZM57.9064 88.1135C59.414 91.0898 63.2045 91.1456 66.1017 91.22C68.8686 91.1146 72.3551 90.7612 73.7138 87.9398C69.0051 90.9348 62.6586 91.1022 57.9064 88.1135ZM59.7366 120.531C63.13 120.791 66.5421 120.574 69.9356 120.438C68.912 119.421 67.361 119.656 66.052 119.582C63.9241 119.644 61.6659 119.47 59.7366 120.531Z" fill="#93CDEA"/>
<path d="M87.2381 50.1466C87.6165 50.2148 88.3858 50.3451 88.7642 50.4071C90.129 54.1213 86.6115 57.2588 83.8756 59.181C82.517 60.3406 81.0653 58.7532 79.6818 58.5052C78.2735 58.8896 77.4484 60.1235 76.9149 61.3947C74.7188 59.9995 72.0945 61.1777 70.9654 63.3355C69.9666 63.1185 68.9492 62.6348 67.9132 62.8766C67.0943 63.3665 66.3622 63.968 65.6053 64.5446C63.8497 63.4347 61.9513 63.9866 60.5306 65.3321C58.9114 64.154 56.9138 64.2284 55.3566 65.4809C54.2275 65.0159 53.1047 64.0796 51.8205 64.5074C50.5611 64.8795 49.6801 65.9398 48.7061 66.7521C46.144 66.256 43.4143 65.884 41.2305 64.3338C39.2639 62.8208 39.7975 59.1066 42.5085 58.84C43.315 60.0429 44.227 61.3079 45.6787 61.7605C46.8946 61.5497 47.9245 60.8056 48.9977 60.2351C50.0027 61.0722 50.9209 62.393 52.4036 62.269C53.9422 62.4178 55.0278 61.1963 56.0515 60.2476C57.4163 61.1032 58.8122 62.1636 60.5182 62.0644C62.3297 62.0457 63.7318 60.7746 65.047 59.6895C67.9442 61.6613 72.4295 60.756 73.509 57.1782C74.9049 57.9595 76.4682 58.2757 78.0316 58.499C79.8865 57.5813 81.0591 55.9257 81.6856 53.9911C82.9574 54.0965 84.3099 54.5553 85.5382 54.0593C86.6425 53.0734 86.7852 51.4798 87.2381 50.1466Z" fill="#8D258B"/>
<path d="M81.1335 52.3727C82.6783 51.2628 84.465 50.5621 86.3075 50.1032C85.9725 51.083 85.7368 52.1123 85.2032 53.0176C83.8198 53.7741 82.3929 52.9556 81.1335 52.3727Z" fill="#DDE0DE"/>
<path d="M73.6455 55.9629C75.8603 54.8282 78.2053 53.9539 80.3642 52.6951C80.2215 54.0965 80.3456 55.8575 78.8629 56.5954C77.2809 57.9843 75.122 56.9426 73.6455 55.9629Z" fill="#DDE0DE"/>
<path d="M65.0842 57.9471C67.5658 57.2278 70.0845 56.6326 72.6095 56.0621C72.1256 57.2588 71.8836 58.995 70.3761 59.3299C68.4963 60.1297 66.3312 59.5593 65.0842 57.9471Z" fill="#DDE0DE"/>
<path d="M43.3398 58.1455C45.1886 57.9843 47.0435 58.0525 48.8861 58.2633C48.1168 59.4663 46.907 60.2414 45.6911 60.9482C44.7915 60.1174 43.9602 59.2059 43.3398 58.1455Z" fill="#DDE0DE"/>
<path d="M49.6243 58.2944C51.5475 58.406 53.4644 58.4742 55.3938 58.5486C54.8851 59.4787 54.364 60.4026 53.8056 61.3017C51.7336 61.5745 49.9283 60.415 49.6243 58.2944Z" fill="#DDE0DE"/>
<path d="M56.25 58.5982C58.9487 58.5424 61.6411 58.3192 64.3274 58.0277C63.6636 59.5841 62.367 61.1405 60.512 61.0785C58.7129 61.2025 57.2426 59.9685 56.25 58.5982Z" fill="#DDE0DE"/>
<path d="M73.1057 62.1326C74.2224 61.6303 75.6121 61.7543 76.5178 62.6224C75.6617 63.968 73.6331 64.1354 72.2434 64.8423C72.4854 63.937 72.2744 62.765 73.1057 62.1326Z" fill="#DDE0DE"/>
<path d="M66.3126 66.1568C66.8337 65.1771 67.2184 63.8254 68.5336 63.6951C69.6131 63.6951 70.4009 64.5074 71.2012 65.1213C69.582 65.5119 67.9504 65.853 66.3126 66.1568Z" fill="#DDE0DE"/>
<path d="M61.2069 66.8575C61.604 65.7042 62.6214 65.0779 63.6388 64.5384C64.2406 65.1151 64.8423 65.698 65.4379 66.287C64.0234 66.4855 62.6152 66.6901 61.2069 66.8575Z" fill="#DDE0DE"/>
<path d="M50.0214 66.9939C50.8775 66.194 51.8391 65.4437 53.0178 65.2205C53.7747 65.7228 54.4075 66.3676 54.91 67.1613C53.2784 67.2295 51.6468 67.1737 50.0214 66.9939Z" fill="#DDE0DE"/>
<path d="M55.8033 67.2729C56.3865 66.2746 57.2923 64.9229 58.6571 65.5182C59.203 65.8902 60.3321 66.256 59.6063 67.0621C58.3469 67.2543 57.0689 67.2357 55.8033 67.2729Z" fill="#DDE0DE"/>
</svg>
