<svg width="151" height="372" viewBox="0 0 151 372" fill="none" xmlns="http://www.w3.org/2000/svg">
<path d="M141.42 0C141.999 0.0415309 142.578 0.0599891 143.153 0.119978C146.84 1.98425 150.08 5.69435 149.987 10.1981C150.155 13.1791 148.829 15.8325 148.055 18.6197C147.512 19.6026 147.03 20.6085 146.822 21.7022C146.782 21.7022 146.742 21.7068 146.703 21.7114C146.464 21.1854 146.23 20.6593 145.995 20.1379C147.268 17.1338 148.741 14.0559 148.78 10.7057C149.077 7.48479 147.202 4.39766 144.682 2.68566C143.193 1.35206 141.239 0.826003 139.377 1.64739C139.192 1.58279 138.851 1.47204 138.617 1.39821C139.59 0.987512 140.567 0.636807 141.42 0Z" fill="#29261D"/>
<path d="M122.052 116.997C121.986 116.993 121.924 116.993 121.858 116.988C121.747 116.674 121.53 116.042 121.42 115.728L121.526 115.336C121.738 115.4 122.171 115.539 122.384 115.608C122.45 115.654 122.547 115.719 122.644 115.783C122.437 116.18 122.242 116.586 122.052 116.997Z" fill="#29261D"/>
<path d="M132.467 80.916C132.445 79.2963 132.264 77.6858 132.184 76.0707C132.494 74.0173 132.852 71.973 133.343 69.9565C133.595 70.8286 133.864 71.6915 134.09 72.5729C133.917 74.1373 133.816 75.7016 133.754 77.2751C133.219 78.4519 132.794 79.6562 132.467 80.916Z" fill="#29261D"/>
<path d="M144.682 2.68567C143.192 1.35206 141.238 0.826006 139.377 1.64739C137.657 3.05022 135.876 4.52225 134.881 6.61264C133.705 8.98913 132.348 11.2687 131.296 13.7098C131.066 14.3143 130.854 14.9234 130.642 15.5326C130.116 15.4956 129.594 15.4541 129.068 15.4449C128.869 15.4726 128.475 15.5326 128.281 15.5649C128.201 14.3743 128.1 13.1838 128.055 11.9886C127.525 15.6525 127.339 19.358 126.734 23.0035C126.437 25.3477 126.782 27.7334 126.402 30.073C125.885 32.6894 126.747 35.292 126.628 37.9223C126.552 43.7597 126.933 49.634 126.194 55.4391C126.269 58.5447 125.832 61.6088 125.425 64.6774C125.43 68.8674 124.678 72.9928 124.43 77.169C124.249 80.5422 123.272 83.7862 122.737 87.1041C122.538 88.9038 122.552 90.7358 122.114 92.4985C121.371 95.2026 120.713 97.9252 120.748 100.759C119.895 104.547 119.324 108.405 118.383 112.17C118.838 112.872 119.378 113.513 119.996 114.067C121.053 111.104 121.928 108.059 123.228 105.193C124.453 102.586 124.346 99.568 125.514 96.9377C126.588 94.4366 127.193 91.7694 127.6 89.0699C129.245 83.5555 130.359 77.8843 131.521 72.2407C132.419 69.7027 131.985 66.9293 132.79 64.3729C133.573 61.8256 133.519 59.1215 134.107 56.5328C134.66 54.0409 135.42 51.5998 135.836 49.071C136.03 49.1403 136.424 49.2741 136.623 49.3433C136.835 46.51 137.348 43.7182 137.657 40.8941C137.206 38.1992 137.675 35.4858 137.869 32.7909C137.976 30.9913 139.479 29.8192 140.151 28.2502C141.3 25.6845 143.028 23.4603 144.076 20.8393C144.748 19.2011 146.331 18.0429 146.512 16.1786C146.773 14.0328 147.18 11.8871 147.175 9.71823C146.954 6.98181 145.089 4.92833 143.568 2.86102C143.846 2.81487 144.403 2.73181 144.682 2.68567ZM142.281 14.582C140.597 17 138.214 19.0119 137.317 21.9929C136.702 23.0496 136.839 24.8309 135.664 25.3246C135.526 25.1308 135.261 24.7478 135.129 24.554C135.761 21.9329 136.87 19.418 138.338 17.203C139.483 16.0955 140.451 14.1482 142.281 14.582Z" fill="#66C6ED"/>
<path d="M131.009 6.65417L131.985 6.39114C132.26 6.87106 132.52 7.3602 132.781 7.84934C133.489 6.88029 134.174 5.86047 134.514 4.69299C135.115 4.22231 135.602 3.62703 136.11 3.06867C136.393 2.90255 136.676 2.73643 136.866 2.62568C137.016 2.43648 137.162 2.23806 137.304 2.04424C137.383 1.99348 137.458 1.93811 137.542 1.89196C137.896 1.70738 138.259 1.55049 138.617 1.39821C138.851 1.47204 139.191 1.58279 139.377 1.64739C137.657 3.05021 135.876 4.52225 134.881 6.61264C133.705 8.98913 132.348 11.2687 131.296 13.7098C131.097 13.2022 130.898 12.6946 130.699 12.1824C132.043 10.6781 131.592 8.4077 131.009 6.65417Z" fill="#002240"/>
<path d="M148.78 10.7057C149.076 7.48479 147.202 4.39766 144.682 2.68567C144.403 2.73181 143.846 2.81488 143.568 2.86102C145.089 4.92834 146.954 6.98181 147.175 9.71823C147.18 11.8871 146.773 14.0328 146.512 16.1786C146.331 18.0429 144.748 19.2011 144.076 20.8393C143.028 23.4603 141.3 25.6846 140.151 28.2502C139.479 29.8192 137.976 30.9913 137.869 32.7909C137.675 35.4858 137.206 38.1992 137.657 40.8941C138.325 38.4622 138.033 35.8042 139.045 33.4785C139.93 30.6406 141.724 28.2918 143.139 25.7445C144.222 23.9495 145.08 22.0252 145.995 20.1379C147.268 17.1338 148.74 14.0559 148.78 10.7057Z" fill="#89BDD8"/>
<path d="M131.141 5.23289C131.446 5.59744 131.734 5.98045 131.985 6.39115L131.009 6.65417C130.708 6.3773 130.403 6.09581 130.102 5.81433C130.447 5.62513 130.796 5.42671 131.141 5.23289Z" fill="#022839"/>
<path d="M121.526 85.6228C122.587 82.2727 123.201 78.7933 123.387 75.2724C123.953 71.7561 124.028 68.1891 124.355 64.6451C124.687 59.5507 125.403 54.4516 125.147 49.3387C125.16 44.0966 125.474 38.8222 124.811 33.6077C124.793 33.3078 124.762 32.7125 124.749 32.4126C124.97 29.1085 125.611 25.8276 125.284 22.5005C125.279 22.2836 125.279 22.0621 125.279 21.8453C125.337 21.7668 125.39 21.6791 125.434 21.573C126.163 19.921 126.499 18.2321 126.486 16.5201C126.499 16.4139 126.513 16.3124 126.526 16.2063C126.765 15.2788 126.729 14.2451 126.831 13.3084C127.03 11.5548 127.401 9.90282 127.75 8.18621C127.755 8.17237 127.755 8.15852 127.755 8.14468C127.773 8.08008 127.795 8.02009 127.817 7.95548C127.861 7.61862 127.896 7.28637 127.932 6.94951C128.586 6.63111 129.231 6.29425 129.872 5.94354C128.741 7.74321 128.312 9.88436 128.06 11.9932C127.529 15.6572 127.344 19.3626 126.738 23.0081C126.442 25.3523 126.787 27.738 126.407 30.0776C125.889 32.694 126.751 35.2967 126.632 37.9269C126.557 43.7643 126.937 49.6386 126.199 55.4437C126.274 58.5493 125.836 61.6134 125.43 64.6821C125.434 68.8721 124.682 72.9975 124.435 77.1736C124.254 80.5469 123.277 83.7909 122.742 87.1087C122.543 88.9084 122.556 90.7404 122.118 92.5031C122.039 91.3818 121.968 90.2559 121.919 89.1345C121.884 88.2439 121.721 87.3671 121.486 86.5135C121.491 86.2873 121.517 85.8443 121.526 85.6228Z" fill="#022839"/>
<path d="M130.102 5.81433C130.403 6.0912 130.708 6.37269 131.008 6.65418C131.592 8.4077 132.043 10.6781 130.699 12.1824C129.943 13.1422 129.289 14.199 129.068 15.4449C128.869 15.4726 128.475 15.5326 128.281 15.5649C128.201 14.3743 128.1 13.1838 128.055 11.9886C128.307 9.87974 128.736 7.7386 129.868 5.93892C129.943 5.89739 130.023 5.85586 130.102 5.81433Z" fill="#7CC4E3"/>
<path d="M130.699 12.1824C129.943 13.1422 129.289 14.1989 129.068 15.4449C129.594 15.4541 130.116 15.4956 130.642 15.5325C130.854 14.9234 131.066 14.3143 131.296 13.7098C131.097 13.2022 130.898 12.6946 130.699 12.1824Z" fill="#297297"/>
<path d="M142.281 14.5819C140.451 14.1482 139.483 16.0955 138.338 17.203C136.87 19.418 135.761 21.9329 135.129 24.554C135.261 24.7478 135.526 25.1308 135.664 25.3246C136.839 24.8308 136.702 23.0496 137.317 21.9929C138.214 19.0119 140.597 17 142.281 14.5819Z" fill="#05547D"/>
<path d="M139.045 33.4785C139.93 30.6406 141.724 28.2918 143.139 25.7445C144.222 23.9495 145.08 22.0252 145.995 20.1379C146.229 20.6593 146.463 21.1854 146.702 21.7114C146.189 22.9112 145.593 24.0648 144.96 25.1954C143.298 27.5673 141.654 29.9391 140.73 32.8602C140.672 33.0494 140.619 33.2385 140.566 33.4277C140.102 34.9367 139.863 36.5103 139.625 38.07C139.399 37.8992 138.953 37.5624 138.732 37.3962C138.877 36.0949 138.975 34.789 139.045 33.4785Z" fill="#1C3033"/>
<path d="M1.14939 24.2725C1.15823 24.2633 1.16706 24.254 1.18032 24.2448C1.18916 24.2356 1.19359 24.231 1.20243 24.2264C1.2378 24.1987 1.27316 24.171 1.30853 24.1433C1.38368 24.0879 1.45441 24.0372 1.52956 23.9818C2.12194 23.5711 2.78947 23.2435 3.31554 22.7312C3.35975 22.6897 3.39511 22.639 3.42164 22.5836C3.70014 22.399 3.99192 22.2329 4.30137 22.1221C5.81326 21.4807 7.55945 21.7068 8.96524 22.5282C10.1942 23.2065 11.4939 23.7695 12.8422 24.1294C13.5761 25.5415 14.637 27.0182 16.1843 27.3181C16.2992 27.5027 16.5026 27.6319 16.7148 27.6319C16.7457 27.6319 16.7723 27.6273 16.7988 27.6227C16.8386 27.6503 16.8784 27.6734 16.9181 27.7011C16.9226 27.6642 16.9226 27.6273 16.927 27.5904C17.1613 27.4981 17.3248 27.2581 17.3337 26.9812C17.3381 26.8428 17.3116 26.7136 17.2674 26.589C17.2806 26.4875 17.2851 26.386 17.2895 26.2844C17.3027 26.2521 17.316 26.2198 17.3249 26.1829C17.3602 26.0629 17.3646 25.9476 17.3381 25.8276C17.3381 25.7815 17.3248 25.7353 17.316 25.6892V25.6938C17.316 25.6892 17.316 25.6892 17.3116 25.6845C17.3072 25.6753 17.3027 25.6661 17.3027 25.6522C17.2983 25.5277 17.2895 25.4031 17.2806 25.2785C17.3249 25.2185 17.3602 25.1493 17.3867 25.08C17.4177 24.9878 17.453 24.9001 17.484 24.8078C17.5017 24.7663 17.5149 24.7201 17.5326 24.6786C17.5326 24.674 17.5326 24.674 17.537 24.6693C17.5547 24.5401 17.6652 24.3786 17.7227 24.2587C17.7448 24.2125 17.7713 24.171 17.7979 24.1248C17.8332 24.0879 17.8686 24.051 17.904 24.0141C17.9084 24.0095 17.9084 24.0095 17.9128 24.0049C17.9305 23.991 17.9438 23.9818 17.9482 23.9772C17.9703 23.9587 17.9924 23.9403 18.0145 23.9264C18.1736 23.811 18.346 23.7095 18.514 23.6126C18.5715 23.5803 18.629 23.5526 18.682 23.5249C19.155 23.548 19.6236 23.548 20.0922 23.4603C20.468 23.6588 20.8659 23.8341 21.2947 23.9818C21.3566 24.0049 21.4229 24.0187 21.4848 24.0372C21.5467 24.4755 21.7367 24.8816 21.9003 25.2923C22.1258 25.8553 22.3601 26.409 22.6342 26.9535C22.7579 27.1981 22.8906 27.4427 23.0232 27.6826C23.7703 29.6023 24.3538 31.5958 25.3308 33.4093C25.6889 34.1245 26.0249 34.849 26.3078 35.6012C26.7366 38.5268 28.0495 41.1756 28.5624 44.0735C28.9425 45.7578 29.6764 47.3498 29.8223 49.0895C29.7073 49.7678 29.5659 50.437 29.4377 51.1153C28.3678 47.8897 27.2229 44.6872 26.3652 41.3925C25.9276 39.0298 25.375 36.6764 24.3538 34.5122C22.8552 31.1574 22.1037 27.4796 20.3663 24.2448C19.9994 24.2771 19.2611 24.3417 18.8942 24.3786C18.2974 25.8968 18.125 27.5304 18.1383 29.1593C17.7934 29.3808 17.4398 29.6023 17.0906 29.8238C14.0049 26.8705 10.6407 23.4234 6.1625 23.3588C4.41631 23.1742 2.87789 24.3602 2.04679 25.883C1.51631 25.7768 0.981394 25.6892 0.442064 25.6107C0.433224 25.6107 0.424383 25.6107 0.415541 25.6107C0.671944 25.1677 0.915087 24.7201 1.14939 24.2725Z" fill="#12232B"/>
<path d="M17.1082 29.8284C14.0226 26.8751 10.6584 23.428 6.18018 23.3634C4.43398 23.1788 2.89555 24.3648 2.06445 25.8876C1.18031 27.9641 1.14938 30.4329 1.79922 32.5833C2.57727 33.9492 3.42605 35.2782 4.42072 36.4826C7.56828 40.1465 11.0783 43.5151 15.0791 46.1454C19.9596 58.5955 26.2945 70.3579 33.2483 81.6589C38.0006 88.8623 42.4479 96.2778 47.4654 103.283C56.6606 116.693 66.2226 129.899 77.0755 141.902C78.1365 141.939 78.7863 142.862 79.4495 143.591C80.2187 144.504 81.1559 145.413 81.3238 146.692C82.1373 153.161 82.0444 159.792 80.8066 166.197C80.369 169.363 79.9623 172.538 79.224 175.648C78.4062 182.953 76.1162 189.939 74.3302 197.023C73.897 198.868 73.1985 200.631 72.7299 202.468C71.5717 207.433 69.9316 212.283 69.1801 217.35C68.2561 222.633 68.8132 228.055 69.8565 233.27C71.7751 237.367 74.874 240.838 78.5697 243.242C79.1444 243.454 79.7235 243.662 80.2982 243.869C80.2761 244.091 80.2363 244.538 80.2187 244.765C79.7545 245.235 79.1223 245.604 78.8924 246.278C77.9376 249.065 77.2656 251.949 76.377 254.76C76.5318 255.221 76.6821 255.687 76.8235 256.158C76.5892 256.638 76.3594 257.122 76.1251 257.611C76.3815 259.342 76.3991 261.169 77.1772 262.766C78.5918 261.257 78.5565 259.111 78.3222 257.168C78.4769 257.173 78.7863 257.173 78.9411 257.173C79.1709 258.576 79.2284 260.071 80.0905 261.252C80.453 260.168 80.8729 259.116 81.3504 258.087C82.292 256.227 81.0895 253.874 82.3362 252.125C83.4237 250.413 83.9674 248.419 84.8649 246.61C85.1168 246.597 85.6252 246.578 85.8772 246.569L86.4607 246.564C86.5713 246.56 86.7879 246.555 86.894 246.555C89.4624 246.49 92.0176 246.892 94.5861 246.79C96.9821 246.864 99.3383 246.352 101.717 246.232C104.343 254.723 107.291 263.13 109.21 271.838C109.055 270.929 109.042 270.006 109.037 269.092C109.59 269.18 110.151 269.254 110.686 269.425C111.146 270.375 111.363 271.423 111.796 272.387C113.082 272.738 114.417 272.913 115.744 273.029C116.274 273.135 116.734 272.627 116.889 272.152C116.898 271.007 116.738 269.863 116.924 268.733C115.819 264.589 115.156 260.32 113.998 256.186C113.118 253.325 111.862 250.607 111.111 247.704C110.823 246.481 110.209 245.392 109.471 244.414C108.976 244.395 108.485 244.382 107.99 244.368C108.105 243.966 108.224 243.565 108.335 243.168C108.379 242.185 108.295 241.091 109.02 240.339C110.518 238.466 111.637 236.315 113.021 234.354C114.161 232.771 114.51 230.769 115.461 229.08C117.163 226.117 116.548 222.522 116.628 219.242C116.553 217.506 117.388 215.901 117.375 214.179C116.937 208.342 116.584 202.495 116.15 196.653C116.296 192.154 115.262 187.747 114.917 183.285C114.692 179.547 113.573 175.934 113.555 172.178C112.875 168.486 111.464 164.915 111.292 161.117C111.155 157.54 109.762 154.2 109.409 150.656C108.945 147.01 107.415 143.295 108.511 139.613C109.736 137.638 110.651 135.478 111.871 133.494C112.574 132.359 112.251 130.947 112.216 129.682C110.633 130.859 110.045 132.931 108.494 134.145C108.467 134.265 108.423 134.509 108.401 134.629C108.03 134.592 107.663 134.555 107.291 134.523C107.106 134.066 106.924 133.614 106.743 133.162C106.186 131.902 106.049 130.513 106.129 129.143C108.162 128.727 109.426 126.895 110.673 125.34C111.588 124.168 111.217 122.544 111.606 121.182C112.265 119.766 113.489 118.709 114.917 118.22C117.035 113.776 118.131 108.894 118.847 104.012C118.714 103.841 118.445 103.495 118.312 103.32C117.649 103.306 116.986 103.347 116.323 103.297C115.704 102.849 115.355 102.111 114.899 101.501C116.601 99.5218 118.573 97.4453 118.882 94.6673C119.081 92.8307 119.254 90.9619 119.957 89.2452C119.103 88.7884 118.25 88.327 117.406 87.8517C114.784 88.5808 113.074 90.8096 111.363 92.8261C111.186 92.6093 110.828 92.1709 110.651 91.954C112.079 89.416 114.493 87.1872 117.287 86.555C117.91 86.5411 118.538 86.5411 119.161 86.555C119.161 86.4719 119.165 86.3104 119.17 86.232C118.409 86.2366 117.645 86.2504 116.884 86.2689C118.065 84.843 117.627 82.9049 117.11 81.2852C116.257 78.7241 116.942 75.7477 115.408 73.4174C113.684 70.6025 112.309 67.52 110.059 65.0974C107.844 61.6318 104.776 58.9092 101.827 56.1498C100.161 54.507 98.0342 53.5471 96.1819 52.172C96.4383 52.0243 96.96 51.7382 97.2164 51.5906C95.0502 50.903 92.8796 50.0309 90.5809 50.0078C86.39 49.934 82.1594 49.8371 78.0392 50.7692C72.6371 52.0474 67.3278 53.8194 62.35 56.3759C57.1999 59.3845 52.4653 63.2515 48.7253 68.0414C46.095 71.8023 45.1755 76.4445 43.7785 80.7776C43.7387 82.3788 44.7511 83.6294 45.4849 84.9353C48.9552 91.2203 52.6465 97.3761 56.5987 103.347C63.1414 113.592 70.1968 123.508 77.9818 132.77C79.4318 133.932 81.4565 134.103 82.8048 135.529C82.8048 136.027 82.8048 136.526 82.8092 137.029C81.8322 136.378 80.9083 135.621 79.8341 135.16C79.0074 134.962 78.1586 135.229 77.3363 135.349C77.1728 134.505 77.1551 133.554 76.5052 132.927C68.5965 123.448 61.4615 113.287 54.7773 102.844C53.8622 102.798 52.7349 103.01 52.0895 102.143C50.7412 100.892 50.5246 98.9773 50.025 97.2838C49.384 96.5639 48.438 96.1578 47.934 95.3088C47.4212 94.372 48.1374 93.3937 48.3938 92.5077C47.0499 90.1036 45.6441 87.7363 44.2648 85.3552C44.2339 85.5813 44.1764 86.0381 44.1455 86.2643C42.2401 84.1323 39.9855 82.1389 39.0307 79.3055C38.3985 77.1413 37.1784 75.2355 36.5285 73.0759C35.6267 70.381 33.5313 68.3598 32.5941 65.6834C31.8691 63.9022 31.7497 61.9456 31.2855 60.0906C29.1149 54.65 27.3909 49.0111 25.5695 43.4367C24.261 41.0325 24.2256 38.1992 23.2884 35.652C22.6651 33.3631 21.75 31.1758 20.4768 29.2008C20.0745 29.5977 19.6723 29.9899 19.27 30.3868C19.8579 31.0189 20.3707 31.7296 20.6404 32.5694C18.8544 32.8878 18.0985 30.9636 17.1082 29.8284ZM19.3319 39.7912C19.8889 40.4972 21.4803 41.8677 19.8447 42.3246C18.8677 41.0787 17.8642 39.8558 16.7104 38.7806C14.973 40.0542 12.2101 38.1576 12.3957 36.035C10.9236 35.2736 9.26142 35.6104 7.72301 35.2551C7.46218 34.3922 8.64252 33.9953 9.25258 34.0184C13.2268 34.3183 16.8916 36.5426 19.3319 39.7912ZM97.8839 68.2306C97.9149 68.489 97.9812 69.0105 98.0121 69.2689C97.3579 69.1904 96.7036 69.0566 96.1554 68.6598C94.5816 67.6353 92.7514 67.1462 90.908 67.1093C90.8505 66.6663 90.7975 66.2279 90.74 65.7849C93.3438 65.5542 95.7531 66.814 97.8839 68.2306ZM86.2353 67.4277C85.2495 68.4613 83.7508 68.3968 82.5882 69.0843C81.7129 69.6058 80.9525 70.3026 80.1789 70.9624C79.9534 70.9624 79.4981 70.9578 79.2726 70.9578C79.2947 70.7409 79.3389 70.2979 79.3655 70.0811C80.895 68.7844 82.4334 67.3492 84.4316 66.9478C85.1124 66.6894 85.7136 66.8509 86.2353 67.4277ZM83.5386 76.7398C83.4104 76.906 83.154 77.2336 83.0302 77.3951C84.0956 77.2474 85.1743 77.2521 86.2441 77.349C87.9107 78.8764 88.8435 81.3313 87.7472 83.5232C88.1495 84.6907 87.3979 86.1489 86.1646 86.2273C84.7013 86.3289 83.1054 86.5319 81.7261 85.9043C80.1966 85.1199 80.9702 82.9649 79.8783 81.8435C78.6758 80.736 79.7722 79.0979 80.453 78.0227C81.0895 76.9152 82.4865 77.049 83.5386 76.7398ZM97.4816 79.3563C97.517 80.6437 97.5214 81.9312 97.5126 83.2233C96.8937 84.2385 96.0095 85.0091 95.0723 85.6921C93.8168 85.7474 92.3359 85.6598 91.5578 84.4692C90.2493 82.9464 90.74 80.7453 90.8328 78.8948C91.6861 77.229 93.4146 76.606 95.1386 76.8414C96.0493 77.5382 96.8362 78.3872 97.4816 79.3563ZM67.9909 93.8413C68.7557 94.5427 70.1792 95.1888 69.547 96.4993C67.151 95.018 65.2677 92.6646 62.6109 91.6633C61.6118 91.3818 59.7462 91.2295 59.7683 92.7892C59.2113 95.6456 61.0901 97.9298 62.4296 100.177C63.2386 101.571 64.9583 102.106 65.7363 103.472C66.2226 104.556 64.693 103.975 64.3438 103.606C62.0273 102.051 60.4845 99.5911 59.1627 97.1315C58.4333 95.4472 58.0442 93.5552 58.5305 91.7371C59.282 91.1603 59.9054 90.1174 60.9531 90.2328C63.7293 90.182 65.8866 92.2401 67.9909 93.8413ZM115.669 94.2797C115.593 94.8842 115.611 95.5303 115.35 96.1025C113.83 99.5126 111.411 102.397 108.697 104.833C103.158 109.785 95.5321 111.746 88.3661 110.726C81.9693 109.775 75.904 106.956 70.7406 102.932C68.9369 101.617 67.4162 99.9418 65.67 98.5528C65.6435 98.3128 65.5949 97.8375 65.5728 97.5976C65.8159 97.616 66.2978 97.6576 66.5365 97.6806C67.7124 98.8896 69.0165 99.9371 70.3162 100.989C74.8873 105.004 80.3911 107.819 86.2264 109.166C91.1644 110.075 96.4339 110.02 101.124 108.003C107.035 105.636 111.964 100.694 114.497 94.6489C114.86 94.4551 115.253 94.3305 115.669 94.2797ZM108.573 121.187C108.874 123.9 107.075 126.402 104.847 127.601C103.313 128.769 101.642 129.779 99.6964 129.913C96.1245 130.227 92.1104 130.435 89.0336 128.169C89.038 127.92 89.0513 127.412 89.0557 127.158C92.6807 128.658 96.708 129.383 100.558 128.455C102.667 127.689 104.48 126.254 106.058 124.639C106.933 123.679 107.137 122.322 107.517 121.109C107.782 121.127 108.308 121.164 108.573 121.187Z" fill="#65C6EF"/>
<path d="M24.3715 34.5168C22.8729 31.162 22.1213 27.4842 20.384 24.2494C20.0171 24.2817 19.2788 24.3463 18.9119 24.3832C18.3151 25.9014 18.1427 27.535 18.1559 29.1639C18.5317 29.57 18.903 29.9761 19.27 30.3868C19.6723 29.9899 20.0745 29.5977 20.4768 29.2008C21.75 31.1758 22.6651 33.3631 23.2884 35.652C24.2256 38.1992 24.261 41.0325 25.5695 43.4367C27.3909 49.0111 29.1149 54.65 31.2855 60.0906C31.7497 61.9456 31.8691 63.9022 32.5941 65.6834C33.5313 68.3598 35.6267 70.381 36.5285 73.0759C37.1784 75.2355 38.3985 77.1413 39.0307 79.3055C39.9855 82.1389 42.2401 84.1323 44.1455 86.2643C44.1764 86.0381 44.2339 85.5813 44.2648 85.3552C43.7609 84.4 43.2215 83.4586 42.7264 82.4988C41.6256 80.3069 40.3348 78.2211 39.3666 75.96C35.5781 67.903 32.1432 59.6522 29.4553 51.1199C28.3855 47.8943 27.2406 44.6918 26.3829 41.3971C25.9453 39.0344 25.3927 36.681 24.3715 34.5168Z" fill="#84C0D6"/>
<path d="M1.79922 32.5833C1.50304 32.9894 1.198 33.4001 0.892972 33.8061C0.782455 33.1324 0.601215 32.4633 0.349236 31.7988C0.287346 31.6373 0.21661 31.4804 0.150299 31.3235C-0.132625 29.4362 9.53674e-07 27.4981 0.459753 25.6153C0.999078 25.6938 1.53397 25.7814 2.06445 25.8876C1.18031 27.9641 1.14938 30.4329 1.79922 32.5833Z" fill="#1A343F"/>
<path d="M18.156 29.1639C17.8111 29.3854 17.4575 29.6069 17.1082 29.8284C18.0985 30.9636 18.8544 32.8878 20.6404 32.5694C20.3707 31.7296 19.8579 31.019 19.27 30.3868C18.9031 29.9761 18.5317 29.57 18.156 29.1639Z" fill="#004369"/>
<path d="M26.1221 34.7798C26.2061 35.0013 26.2945 35.2182 26.3874 35.4258C26.3653 35.4951 26.3432 35.5551 26.3255 35.6058C26.0425 34.8536 25.7066 34.1292 25.3485 33.4139C25.4369 33.4185 25.5297 33.4185 25.6181 33.4231C25.7861 33.8754 25.9541 34.3276 26.1221 34.7798Z" fill="#1E1E17"/>
<path d="M57.7569 355.624C59.1583 353.225 60.595 350.839 62.1776 348.569C62.045 348.467 61.7842 348.269 61.656 348.167C62.1953 347.83 62.7302 347.507 63.2696 347.189C63.5569 345.957 63.7868 344.702 63.8133 343.437C63.8664 339.787 63.9327 336.133 63.8575 332.482C63.8531 332.164 63.8487 331.532 63.8442 331.213C63.8796 328.366 63.9636 325.514 63.7558 322.672C63.747 322.358 63.7382 321.726 63.7337 321.408C63.6497 316.11 63.4818 310.817 63.495 305.515C63.4906 305.007 63.4862 304.5 63.4862 304.001C63.4862 300.199 63.6763 296.378 63.0795 292.617C62.686 290.31 63.8354 288.215 64.3659 286.056C64.4587 285.617 64.5427 285.183 64.6267 284.754C65.1528 283.933 65.6833 283.098 65.9706 282.152C67.204 278.317 68.2738 274.422 69.6133 270.624C71.4789 265.009 72.9952 259.273 74.9889 253.703C75.4664 252.116 76.156 250.537 76.0676 248.839C76.019 248.567 75.9261 248.022 75.8775 247.75C76.3328 246.758 76.8854 245.794 77.1241 244.718C76.9871 243.939 76.2311 243.556 75.736 243.048C74.4673 242.065 73.76 240.519 72.4956 239.532C70.997 238.364 70.0952 236.611 68.7557 235.272C68.0705 232.25 67.341 229.237 66.8459 226.173C66.8769 225.61 66.9167 225.06 66.9697 224.511C67.0449 223.768 67.1112 223.025 67.1642 222.287C67.1819 221.946 67.2217 221.263 67.2394 220.921C67.4604 217.34 68.5081 213.893 68.8883 210.335C68.9369 210.063 69.0386 209.519 69.0872 209.251C69.9272 206.815 70.7141 204.355 71.2092 201.817C71.7087 199.071 72.7034 196.464 73.2914 193.742C73.4151 193.234 73.5345 192.74 73.6362 192.237C75.0243 189.492 75.21 186.326 76.1339 183.41C76.3196 182.86 76.4654 182.298 76.5627 181.725C76.9075 181.121 77.1904 180.387 77.3408 179.81C77.6414 178.634 77.659 177.978 77.5529 177.014C77.743 175.45 78.0613 173.904 78.3531 172.353C78.5565 172.053 78.7465 171.739 78.919 171.393C79.3566 170.512 79.6882 169.575 79.8871 168.611C79.476 171.121 79.0737 173.636 78.7465 176.16C76.9119 185.085 74.5601 193.875 72.1331 202.638C70.524 209.482 67.9555 216.242 68.1766 223.395C68.2517 226.726 68.1677 230.303 69.8609 233.265C71.7795 237.363 74.8784 240.833 78.5741 243.237C78.7863 243.459 79.2151 243.897 79.4273 244.119C78.7068 245.12 78.1984 246.26 77.9154 247.478C77.3275 249.896 76.3903 252.208 75.9129 254.658C75.5415 256.301 74.9889 257.893 74.4805 259.494C71.6115 267.86 69.2729 276.42 66.3199 284.759C66.1784 285.16 66.0414 285.566 65.9176 285.986C65.4269 287.431 64.7196 288.801 64.3747 290.301C64.0697 292.917 64.4985 295.548 64.7063 298.155C64.9671 305.224 64.4941 312.317 65.029 319.377C65.1439 325.385 65.1086 331.393 65.0821 337.402C65.0909 340.549 65.0688 343.714 64.6444 346.834C62.2263 350.576 59.5561 354.217 57.7481 358.361C57.1689 359.653 56.8683 361.157 57.2574 362.56C58.1857 364.757 60.3386 365.929 62.3412 366.842C65.3694 368.139 68.433 369.634 71.775 369.671C70.6301 369.966 69.494 370.303 68.3225 370.46C66.6735 370.123 65.1218 369.417 63.5657 368.776C60.7542 367.604 57.6596 366.173 56.1478 363.261C55.215 360.613 56.6429 357.945 57.7569 355.624Z" fill="#072938"/>
<path d="M1.7992 32.5833C2.57726 33.9492 3.42603 35.2782 4.4207 36.4826C7.56826 40.1465 11.0783 43.5151 15.0791 46.1454C19.9596 58.5955 26.2945 70.3579 33.2483 81.6589C38.0006 88.8622 42.4479 96.2778 47.4654 103.283C56.6605 116.693 66.2226 129.899 77.0755 141.902C78.3001 143.683 80.6121 144.892 80.7138 147.301C81.5316 152.649 81.3371 158.103 80.7182 163.466C80.4927 164.905 80.254 166.345 80.0197 167.785C80.1568 166.668 80.1037 165.528 79.8119 164.407C79.7677 164.241 79.7147 164.084 79.6616 163.927C79.9357 162.044 80.1037 160.148 79.9048 158.251C79.7103 154.44 80.1744 150.573 79.4273 146.807C79.3566 145.861 78.5211 145.349 77.9287 144.758C76.7395 143.72 75.6078 142.608 74.6529 141.334C73.2693 139.382 71.2225 138.132 69.7371 136.286C68.9635 135.294 67.9688 134.542 66.815 134.103C64.2775 132.58 62.2572 130.305 59.87 128.547C59.5694 128.247 59.2776 127.934 58.9991 127.606C57.6685 125.645 55.7278 124.279 54.3176 122.392C53.345 121.206 52.5095 119.789 51.2407 118.949C51.1169 118.709 50.9799 118.478 50.834 118.252C51.0993 118.132 51.3689 118.012 51.6342 117.892C51.254 117.842 50.865 117.795 50.4759 117.754C50.3389 117.579 50.193 117.408 50.0383 117.246C49.4547 115.507 47.4522 114.782 47.0057 112.955C46.0331 109.429 44.5477 106.07 43.8227 102.466C43.2082 99.3788 41.882 96.2917 39.455 94.2982C39.3489 94.1967 39.2428 94.0951 39.1367 93.989C38.898 93.5968 38.5974 93.2368 38.2526 92.9046C38.1156 91.3864 37.3552 90.0297 36.5285 88.8069C35.1758 86.8365 33.7744 84.8984 32.4924 82.8772C30.6445 79.4532 28.3325 76.3291 26.5819 72.8452C24.9594 69.5504 22.7358 66.5925 21.4405 63.1223C21.4052 62.9285 21.3256 62.7716 21.2239 62.6332C20.2558 59.1538 18.5936 55.776 16.9314 52.9103C16.6617 52.4443 16.3567 51.992 16.0384 51.5444C16.0384 51.4752 16.034 51.4014 16.0251 51.3276C15.9146 50.64 15.6494 49.9386 15.309 49.2972C15.3046 49.2602 15.3001 49.2279 15.2957 49.1956C15.2825 49.1956 15.2648 49.1956 15.2515 49.1956C15.0924 48.9049 14.9155 48.6234 14.7299 48.365C14.5353 48.0928 14.3099 47.8713 14.0712 47.6728C13.6423 47.0683 13.0058 46.593 12.4222 46.1408C10.1765 44.5073 8.23138 42.4815 6.07848 40.728C4.3986 38.8544 3.04585 36.6487 1.02557 35.1213C1.00347 34.6829 0.959259 34.2399 0.884109 33.8015C1.19798 33.4001 1.50301 32.9894 1.7992 32.5833ZM46.4265 107.168C48.3849 114.505 53.986 119.784 58.6366 125.326C60.038 126.558 61.2714 127.989 62.7125 129.161C64.2244 131.168 66.3464 132.636 68.4595 133.877C68.2429 132.562 67.2747 131.616 66.3375 130.804C64.2156 128.469 62.4738 125.802 60.5154 123.328C56.5545 118.326 53.04 112.973 49.247 107.842C47.7086 106.042 46.7095 103.832 45.1799 102.023C45.3037 103.804 45.9403 105.475 46.4265 107.168Z" fill="#072938"/>
<path d="M139.045 33.4785C138.033 35.8042 138.325 38.4622 137.657 40.8941C137.348 43.7182 136.835 46.51 136.623 49.3433C136.358 51.226 135.893 53.0672 135.677 54.9546C135.385 57.5249 134.519 60.0121 134.625 62.624C136.119 58.2217 136.238 53.4226 137.242 48.8726C137.79 45.0564 138.391 41.2402 138.732 37.3963C138.877 36.095 138.975 34.789 139.045 33.4785Z" fill="#5D8494"/>
<path d="M19.3319 39.7912C16.8916 36.5426 13.2268 34.3184 9.25257 34.0184C8.64251 33.9953 7.46218 34.3922 7.723 35.2551C9.26142 35.6104 10.9236 35.2736 12.3957 36.035C14.0137 36.5979 15.4946 37.5301 16.7104 38.7806C17.8642 39.8558 18.8677 41.0787 19.8447 42.3246C21.4803 41.8677 19.8889 40.4972 19.3319 39.7912Z" fill="#00385F"/>
<path d="M16.7104 38.7806C15.4946 37.5301 14.0137 36.5979 12.3957 36.035C12.21 38.1576 14.973 40.0542 16.7104 38.7806Z" fill="#90C6F5"/>
<path d="M138.732 37.3963C138.953 37.5624 139.399 37.8992 139.625 38.07C139.598 38.8221 139.297 39.7035 139.403 40.4649C138.926 41.8539 138.678 43.2613 138.922 44.7472C138.205 46.9161 138.161 49.2602 137.772 51.5029C137.604 50.6261 137.401 49.754 137.242 48.8726C137.79 45.0564 138.391 41.2402 138.732 37.3963Z" fill="#1B1B1D"/>
<path d="M93.0786 48.4804C89.237 48.305 85.3688 48.2358 81.5316 48.5358C79.6926 49.2372 77.7165 49.4171 75.9084 50.2016C76.6157 50.4 77.3275 50.5892 78.0392 50.7692C82.1594 49.8371 86.39 49.934 90.5809 50.0078C92.8796 50.0309 95.0502 50.903 97.2164 51.5906C100.112 52.8873 102.725 54.7746 105.063 56.9619C107.437 58.7847 109.232 61.2396 111.124 63.5607C113.728 66.9801 116.022 70.7732 117.065 75.0417C118.047 78.6918 119.28 82.3927 119.17 86.232C119.165 86.3104 119.161 86.4719 119.161 86.555C118.538 86.5411 117.91 86.5411 117.287 86.555C118.343 87.1687 119.771 87.0718 120.598 88.0778C120.748 88.3408 121.049 88.8576 121.199 89.116C121.376 89.1207 121.734 89.1253 121.915 89.1299C121.88 88.2393 121.716 87.3625 121.482 86.5088C121.146 85.4336 120.814 84.3584 120.545 83.2602C119.307 79.7578 118.882 76.0107 117.463 72.5729C116.256 67.2108 112.441 63.1962 109.148 59.1261C107.755 57.1926 105.788 55.8683 104.122 54.2209C101.628 51.8721 98.4232 50.64 95.3287 49.4218C94.5639 49.1495 93.8257 48.8034 93.0786 48.4804Z" fill="#0D2435"/>
<path d="M77.0755 48.5035C78.5609 48.5173 80.0463 48.5312 81.5316 48.5358C79.6926 49.2372 77.7165 49.4171 75.9084 50.2016C75.0729 50.5431 74.1888 50.7184 73.3002 50.8476C73.6937 50.6077 74.0827 50.3539 74.4673 50.0955C75.4531 49.8001 76.3328 49.2372 77.0755 48.5035Z" fill="#1A1B1A"/>
<path d="M29.84 49.0941C29.8665 49.0941 29.893 49.0941 29.9195 49.0941C30.145 49.9524 30.4677 50.76 30.8833 51.4891C31.0159 52.3151 31.4403 53.0672 31.8205 53.8194C32.6074 56.0944 33.4561 58.3509 34.2298 60.6351C34.1856 60.8981 34.2209 61.1888 34.3668 61.4842C34.5702 61.9041 34.7956 62.3886 35.0653 62.8547C35.2952 63.7222 35.5737 64.599 35.8478 65.4158C35.9229 65.6372 36.0334 65.8634 36.1528 66.0895C36.5462 67.1785 36.9883 68.2583 37.4127 69.2043C37.5409 69.4904 37.7487 69.675 37.9918 69.7719C38.1023 69.9841 38.2129 70.201 38.3234 70.4179C38.5444 71.8254 38.9113 73.1313 39.6054 74.4603C39.7247 74.691 39.9016 74.8525 40.1005 74.9586C40.1668 75.1386 40.2287 75.3139 40.3083 75.4893L39.3667 75.9554C35.5781 67.8984 32.1432 59.6476 29.4554 51.1153C29.5836 50.4416 29.725 49.7725 29.84 49.0941Z" fill="#1A1B1A"/>
<path d="M137.242 48.8726C136.238 53.4226 136.119 58.2217 134.625 62.624C134.311 65.0881 133.714 67.5015 133.343 69.9565C133.595 70.8286 133.864 71.6915 134.09 72.5729C135.46 65.5819 137.007 58.6001 137.772 51.5029C137.604 50.6261 137.401 49.754 137.242 48.8726Z" fill="#222C37"/>
<path d="M136.623 49.3433C136.424 49.2741 136.03 49.1403 135.836 49.071C135.42 51.5998 134.66 54.0409 134.107 56.5328C133.519 59.1215 133.573 61.8256 132.79 64.3729C131.985 66.9293 132.419 69.7027 131.521 72.2407C130.359 77.8843 129.245 83.5555 127.6 89.0699C127.193 91.7694 126.588 94.4366 125.514 96.9377C124.346 99.568 124.453 102.586 123.228 105.193C121.928 108.059 121.053 111.104 119.996 114.067C119.378 113.513 118.838 112.872 118.383 112.17C116.584 118.169 113.922 123.854 110.925 129.299C110.121 130.919 108.622 132.23 108.494 134.145C110.045 132.931 110.633 130.859 112.216 129.682C112.251 130.947 112.574 132.359 111.871 133.494C110.651 135.478 109.736 137.638 108.511 139.613C107.415 143.295 108.945 147.01 109.409 150.656C109.762 154.2 111.155 157.54 111.292 161.117C111.464 164.915 112.875 168.486 113.555 172.178C113.573 175.934 114.692 179.547 114.917 183.285C115.262 187.747 116.296 192.154 116.15 196.653C116.584 202.495 116.937 208.342 117.375 214.179C117.388 215.901 116.553 217.506 116.628 219.242C116.548 222.522 117.163 226.117 115.461 229.08C114.51 230.769 114.161 232.771 113.021 234.354C111.637 236.315 110.518 238.466 109.02 240.339C108.295 241.091 108.379 242.185 108.335 243.168C108.732 242.868 109.121 242.573 109.515 242.277C111.593 240.404 113.074 237.93 114.568 235.559C115.567 232.891 116.447 230.178 117.105 227.4C117.375 226.385 117.72 225.397 118.02 224.396C118.414 218.845 118.374 213.256 118.343 207.691C118.339 200.645 117.437 193.654 116.774 186.658C116.217 182.45 115.686 178.241 115.112 174.037C114.608 170.457 113.993 166.894 113.467 163.313C113.454 163.253 113.432 163.138 113.423 163.078C113.273 162.261 113.131 161.449 112.994 160.632C112.645 159.945 112.402 159.188 112.517 158.403C112.525 158.163 112.539 157.674 112.548 157.43C112.026 156.968 111.893 156.239 112.079 155.579V155.095C111.619 154.444 111.425 153.637 111.637 152.852L111.672 152.428C111.557 152.169 111.332 151.662 111.221 151.408C111.208 150.822 111.19 150.24 111.177 149.659C111.067 149.405 110.841 148.897 110.731 148.644C110.735 148.427 110.748 147.998 110.757 147.781C110.306 147.407 110.147 146.936 110.28 146.364C109.908 145.833 109.736 145.164 109.908 144.523L109.97 143.988C109.369 143.748 109.174 143.323 109.396 142.7C109.493 142.419 109.692 141.86 109.789 141.579C109.807 141.537 109.846 141.459 109.864 141.422C110.045 141.113 110.408 140.499 110.585 140.19L110.412 139.719C110.571 139.627 110.885 139.442 111.04 139.35C111.071 139.281 111.137 139.152 111.168 139.087L111.301 138.796C111.438 138.446 111.716 137.749 111.858 137.398C111.911 137.301 112.017 137.112 112.074 137.015L112.326 136.563C112.38 136.461 112.477 136.267 112.525 136.166L112.702 135.764C112.738 135.668 112.808 135.474 112.844 135.377L112.967 134.957C113.091 134.68 113.339 134.122 113.467 133.845C113.564 133.6 113.759 133.106 113.856 132.857C113.86 132.114 114.227 131.478 114.745 130.998C114.921 130.767 115.275 130.31 115.452 130.079C115.483 130.01 115.536 129.876 115.562 129.807L115.664 129.503C115.478 128.875 115.607 128.321 116.058 127.855C116.968 126.111 117.631 124.247 118.44 122.451C118.635 121.215 118.958 120.001 119.488 118.871C120.346 117.034 120.686 114.934 121.95 113.324C123.648 109.319 125.018 105.156 126.115 100.929C128.732 92.8123 130.138 84.3492 132.184 76.0707C132.494 74.0173 132.852 71.973 133.343 69.9565C133.714 67.5015 134.311 65.0881 134.625 62.624C134.519 60.0121 135.385 57.5249 135.677 54.9546C135.893 53.0672 136.358 51.226 136.623 49.3433Z" fill="#7FC1DC"/>
<path d="M78.0392 50.7692C77.3275 50.5892 76.6158 50.4 75.9084 50.2016C75.0729 50.5431 74.1888 50.7184 73.3002 50.8477C70.0686 51.2676 67.0979 52.7442 64.1139 54.0086C61.3775 54.9038 59.1627 56.8742 56.7313 58.3878C53.5528 60.8704 50.6616 63.7499 48.0401 66.8647C46.2188 68.7705 45.5336 71.4424 44.5654 73.8604C43.8625 75.5908 43.6592 77.492 42.9253 79.2132C41.8025 78.1888 41.02 76.846 40.3083 75.4939L39.3666 75.96C40.3348 78.2211 41.6256 80.3069 42.7264 82.4988C43.0845 81.9266 43.447 81.359 43.7785 80.7776C45.1755 76.4445 46.095 71.8023 48.7253 68.0414C52.4653 63.2515 57.1999 59.3846 62.35 56.3759C67.3278 53.8194 72.6371 52.0474 78.0392 50.7692Z" fill="#032639"/>
<path d="M105.063 56.9619C102.725 54.7746 100.112 52.8873 97.2164 51.5906C96.96 51.7383 96.4383 52.0244 96.1819 52.172C98.0342 53.5472 100.161 54.507 101.827 56.1498C104.776 58.9093 107.844 61.6318 110.059 65.0974C112.309 67.52 113.684 70.6025 115.408 73.4174C116.942 75.7477 116.256 78.7241 117.11 81.2852C117.627 82.9049 118.065 84.843 116.884 86.2689C117.645 86.2504 118.409 86.2366 119.17 86.232C119.28 82.3927 118.047 78.6918 117.065 75.0417C116.022 70.7732 113.728 66.9801 111.124 63.5607C109.232 61.2396 107.437 58.7847 105.063 56.9619Z" fill="#84C2DB"/>
<path d="M97.8839 68.2306C95.7531 66.814 93.3438 65.5542 90.74 65.7849C90.7975 66.2279 90.8505 66.6663 90.908 67.1093C92.7515 67.1462 94.5816 67.6353 96.1554 68.6598C96.7036 69.0566 97.3579 69.1905 98.0121 69.2689C97.9812 69.0105 97.9149 68.489 97.8839 68.2306Z" fill="#003F71"/>
<path d="M86.2353 67.4277C85.7136 66.8509 85.1124 66.6894 84.4316 66.9478C82.4334 67.3492 80.895 68.7844 79.3655 70.0811C79.3389 70.2979 79.2947 70.7409 79.2726 70.9578C79.4981 70.9578 79.9534 70.9624 80.1789 70.9624C80.9525 70.3026 81.7129 69.6058 82.5882 69.0843C83.7508 68.3967 85.2495 68.4613 86.2353 67.4277Z" fill="#003461"/>
<path d="M121.95 113.324C123.648 109.319 125.018 105.156 126.115 100.929C128.732 92.8123 130.138 84.3492 132.184 76.0707C132.264 77.6858 132.445 79.2963 132.467 80.916C132.366 81.3082 132.268 81.7051 132.184 82.1112C130.703 87.4225 129.797 92.8861 128.338 98.1975C128.064 99.1158 127.759 100.025 127.467 100.939C126.703 103.186 125.964 105.479 125.858 107.874C125.796 108.119 125.739 108.368 125.69 108.612C125.421 108.899 125.155 109.185 124.89 109.48C123.829 111.414 123.374 113.629 122.388 115.604C122.176 115.534 121.743 115.396 121.53 115.331C121.694 114.671 121.818 113.993 121.95 113.324Z" fill="#162330"/>
<path d="M83.5387 76.7398C82.4865 77.049 81.0896 76.9152 80.453 78.0227C79.7722 79.0979 78.6758 80.736 79.8783 81.8435C80.9702 82.9649 80.1966 85.1198 81.7261 85.9043C83.1054 86.5319 84.7013 86.3289 86.1646 86.2273C87.398 86.1489 88.1495 84.6907 87.7472 83.5232C87.283 84.1277 86.779 84.6953 86.2795 85.2721C85.329 85.2629 84.3742 85.2583 83.4193 85.2675C80.8951 83.5094 80.7138 79.4117 83.0303 77.3951C83.154 77.2336 83.4105 76.906 83.5387 76.7398Z" fill="#78BBD0"/>
<path d="M97.4816 79.3563C96.8362 78.3872 96.0493 77.5382 95.1386 76.8414C93.4146 76.606 91.686 77.229 90.8328 78.8948C90.74 80.7453 90.2493 82.9464 91.5578 84.4692C92.3359 85.6598 93.8168 85.7474 95.0723 85.6921C96.0095 85.0091 96.8937 84.2385 97.5126 83.2233C97.5214 81.9312 97.517 80.6438 97.4816 79.3563ZM94.754 79.1763C95.3287 80.0854 95.2492 81.1283 94.7098 82.0327C94.0114 82.0235 93.3129 81.9866 92.6188 81.9128C92.5879 81.0498 92.5746 80.1915 92.5879 79.3286C93.2819 78.8487 94.0158 78.7518 94.754 79.1763Z" fill="#011422"/>
<path d="M87.7472 83.5232C88.8435 81.3313 87.9107 78.8764 86.2441 77.349C85.1743 77.2521 84.0957 77.2475 83.0303 77.3951C80.7138 79.4117 80.895 83.5094 83.4193 85.2675C84.3742 85.2583 85.329 85.2629 86.2795 85.2721C86.779 84.6953 87.283 84.1277 87.7472 83.5232ZM85.4175 81.9035C84.5952 81.9727 83.5519 82.305 83.017 81.419C82.2699 80.3023 82.8755 78.9502 83.7774 78.1796C85.6606 78.1657 86.5138 80.3992 85.4175 81.9035Z" fill="#021122"/>
<path d="M85.4174 81.9035C86.5138 80.3992 85.6606 78.1657 83.7774 78.1796C82.8755 78.9502 82.2699 80.3023 83.017 81.419C83.5519 82.305 84.5952 81.9727 85.4174 81.9035ZM84.7764 79.0979C86.0187 79.7347 85.2362 82.2265 83.8216 81.5851C82.6943 80.7499 83.2734 78.2857 84.7764 79.0979Z" fill="#827F89"/>
<path d="M94.754 79.1763C94.0158 78.7518 93.2819 78.8487 92.5879 79.3286C92.5746 80.1915 92.5879 81.0498 92.6188 81.9127C93.3129 81.9866 94.0114 82.0235 94.7098 82.0327C95.2492 81.1283 95.3287 80.0854 94.754 79.1763Z" fill="#F1ECEB"/>
<path d="M84.7764 79.0979C83.2734 78.2857 82.6943 80.7499 83.8216 81.5851C85.2362 82.2265 86.0187 79.7347 84.7764 79.0979Z" fill="#F0E4EA"/>
<path d="M43.7785 80.7776C43.447 81.359 43.0845 81.9266 42.7264 82.4988C43.2215 83.4586 43.7609 84.4 44.2648 85.3552C45.6441 87.7363 47.0499 90.1036 48.3938 92.5077C50.5069 95.9594 52.5802 99.4434 54.7773 102.844C61.4615 113.287 68.5966 123.448 76.5053 132.927C77.1551 133.554 77.1728 134.505 77.3364 135.349C78.1586 135.229 79.0074 134.962 79.8341 135.16C80.9083 135.621 81.8322 136.378 82.8092 137.029C82.8048 136.526 82.8048 136.027 82.8048 135.529C81.4565 134.103 79.4318 133.932 77.9818 132.77C70.1969 123.508 63.1414 113.592 56.5987 103.347C52.6465 97.3761 48.9552 91.2203 45.485 84.9353C44.7511 83.6294 43.7388 82.3788 43.7785 80.7776Z" fill="#00436A"/>
<path d="M117.287 86.555C114.493 87.1872 112.079 89.416 110.651 91.954C110.828 92.1709 111.186 92.6093 111.363 92.8262C113.074 90.8096 114.784 88.5808 117.406 87.8517C118.462 87.4041 119.559 87.7686 120.598 88.0778C119.771 87.0718 118.343 87.1687 117.287 86.555Z" fill="#185379"/>
<path d="M120.598 88.0778C119.559 87.7686 118.462 87.4041 117.406 87.8517C118.25 88.327 119.103 88.7884 119.957 89.2453C119.254 90.9619 119.081 92.8308 118.882 94.6673C118.573 97.4453 116.601 99.5218 114.899 101.501C115.355 102.111 115.704 102.849 116.323 103.297C116.986 103.347 117.649 103.306 118.312 103.32C118.445 103.495 118.714 103.841 118.847 104.012C119.232 102.24 119.59 100.463 119.811 98.6589C118.896 99.9648 118.069 101.335 117.238 102.701C117.043 102.715 116.654 102.747 116.46 102.761C116.495 102.314 116.526 101.866 116.557 101.418C118.913 97.7637 121.513 93.7352 121.199 89.1161C121.049 88.8576 120.748 88.3408 120.598 88.0778Z" fill="#7EC0DF"/>
<path d="M121.915 89.1299C121.734 89.1253 121.376 89.1207 121.199 89.116C121.513 93.7352 118.913 97.7637 116.557 101.418C116.526 101.866 116.495 102.314 116.46 102.761C116.654 102.747 117.043 102.715 117.238 102.701C118.069 101.335 118.896 99.9648 119.811 98.6589C120.129 99.3557 120.443 100.057 120.748 100.759C120.713 97.9252 121.371 95.2026 122.114 92.4985C122.034 91.3772 121.964 90.2512 121.915 89.1299Z" fill="#042B4A"/>
<path d="M67.9909 93.8413C65.8866 92.2401 63.7293 90.182 60.9531 90.2328C59.9054 90.1174 59.2821 91.1603 58.5305 91.7371C58.0442 93.5552 58.4333 95.4472 59.1627 97.1315C60.4845 99.5911 62.0273 102.051 64.3438 103.606C64.693 103.975 66.2226 104.556 65.7363 103.472C64.9583 102.106 63.2386 101.571 62.4296 100.177C61.0901 97.9298 59.2113 95.6456 59.7683 92.7892C59.7462 91.2295 61.6118 91.3818 62.6109 91.6633C65.2677 92.6646 67.151 95.018 69.547 96.4993C70.1792 95.1888 68.7557 94.5428 67.9909 93.8413Z" fill="#044369"/>
<path d="M54.7773 102.844C52.5802 99.4434 50.5069 95.9594 48.3938 92.5077C48.1374 93.3937 47.4212 94.372 47.934 95.3088C48.438 96.1578 49.384 96.5639 50.025 97.2838C50.5246 98.9773 50.7412 100.892 52.0895 102.143C52.7349 103.01 53.8622 102.798 54.7773 102.844Z" fill="#7BC0E5"/>
<path d="M115.669 94.2797C115.253 94.3305 114.86 94.4551 114.497 94.6489C111.964 100.694 107.035 105.636 101.124 108.003C96.4339 110.02 91.1644 110.075 86.2264 109.166C80.3911 107.819 74.8873 105.004 70.3162 100.989C69.0165 99.9372 67.7124 98.8897 66.5365 97.6806C66.2978 97.6576 65.8159 97.616 65.5728 97.5976C65.5949 97.8375 65.6435 98.3128 65.67 98.5528C67.4162 99.9418 68.937 101.617 70.7406 102.932C75.904 106.956 81.9693 109.775 88.3661 110.726C95.5321 111.746 103.158 109.785 108.697 104.833C111.411 102.397 113.83 99.5126 115.35 96.1025C115.611 95.5303 115.593 94.8842 115.669 94.2797Z" fill="#074062"/>
<path d="M120.748 100.759C120.443 100.057 120.129 99.3557 119.811 98.6589C119.59 100.463 119.232 102.24 118.847 104.012C118.131 108.894 117.035 113.776 114.917 118.22C112.534 123.379 110.328 128.75 106.743 133.162C106.924 133.614 107.106 134.066 107.291 134.523C107.663 134.555 108.03 134.592 108.401 134.629C108.423 134.509 108.467 134.265 108.494 134.145C108.622 132.23 110.121 130.919 110.925 129.299C113.922 123.854 116.584 118.169 118.383 112.17C119.324 108.405 119.895 104.547 120.748 100.759Z" fill="#054262"/>
<path d="M49.247 107.842C47.7086 106.042 46.7095 103.832 45.1799 102.023C45.3037 103.804 45.9403 105.475 46.4265 107.168C48.3849 114.505 53.986 119.784 58.6366 125.326C60.038 126.558 61.2714 127.989 62.7125 129.161C63.8708 129.793 64.8875 131.228 66.3375 130.804C64.2156 128.469 62.4738 125.802 60.5154 123.328C56.5545 118.326 53.04 112.973 49.247 107.842Z" fill="#73C3E0"/>
<path d="M121.95 113.324C120.686 114.934 120.346 117.034 119.488 118.871C118.958 120.001 118.635 121.215 118.44 122.451C119.789 120.389 120.359 117.938 121.424 115.728L121.53 115.336C121.694 114.671 121.818 113.993 121.95 113.324Z" fill="#5F8292"/>
<path d="M109.396 142.7C109.493 142.419 109.692 141.86 109.789 141.579C109.807 141.537 109.846 141.459 109.864 141.422C110.045 141.113 110.408 140.499 110.585 140.19C110.7 139.978 110.93 139.558 111.04 139.35C111.071 139.281 111.137 139.152 111.168 139.087L111.301 138.796C111.438 138.446 111.716 137.749 111.858 137.398C111.911 137.301 112.017 137.112 112.074 137.015L112.326 136.563C112.38 136.461 112.477 136.267 112.525 136.166L112.702 135.764C112.738 135.668 112.808 135.474 112.844 135.377L112.967 134.957C113.091 134.68 113.339 134.122 113.467 133.845C113.6 133.693 113.869 133.383 114.002 133.231L113.856 132.857C114.767 132.82 115.036 131.75 114.745 130.998C114.921 130.767 115.275 130.31 115.452 130.079C115.483 130.01 115.536 129.876 115.562 129.807L115.664 129.503C116.195 129.032 116.323 128.483 116.058 127.855C116.968 126.111 117.631 124.247 118.44 122.451C119.789 120.389 120.359 117.938 121.424 115.728C121.535 116.042 121.751 116.674 121.862 116.988C120.496 120.767 118.785 124.39 117.304 128.114C117.114 128.653 116.933 129.203 116.738 129.742C115.867 131.658 115.081 133.609 114.311 135.571C113.746 136.48 113.237 137.426 112.746 138.381C112.313 139.018 111.968 139.687 111.721 140.379C111.535 140.739 111.349 141.103 111.159 141.463C110.708 142.935 111.186 144.449 111.451 145.903C112.296 149.71 113.043 153.535 113.869 157.347C113.9 157.66 113.967 157.96 114.059 158.251C114.139 159.557 114.333 160.868 114.572 162.16C114.267 162.598 113.878 162.981 113.467 163.313C113.454 163.253 113.432 163.138 113.423 163.078C113.273 162.261 113.131 161.449 112.994 160.632C113.286 159.894 113.476 158.694 112.517 158.403C112.525 158.163 112.539 157.674 112.548 157.43C112.817 156.761 112.764 155.939 112.079 155.579V155.095C112.402 154.315 112.406 153.332 111.637 152.852L111.672 152.428C111.557 152.169 111.332 151.662 111.221 151.408C111.208 150.822 111.19 150.24 111.177 149.659C111.067 149.405 110.841 148.897 110.731 148.644C110.735 148.427 110.748 147.998 110.757 147.781C111.049 147.079 110.89 146.609 110.28 146.364C110.801 145.769 110.549 144.883 109.908 144.523L109.97 143.988C110.129 143.355 109.935 142.926 109.396 142.7Z" fill="#0E2128"/>
<path d="M114.917 118.22C113.489 118.709 112.265 119.766 111.606 121.182C111.217 122.544 111.588 124.168 110.673 125.34C109.426 126.895 108.162 128.727 106.129 129.143C106.049 130.513 106.186 131.902 106.743 133.162C110.328 128.75 112.534 123.379 114.917 118.22Z" fill="#7CC1DC"/>
<path d="M108.573 121.187C108.308 121.164 107.782 121.127 107.517 121.109C107.137 122.322 106.933 123.679 106.058 124.639C104.48 126.254 102.667 127.689 100.558 128.455C96.708 129.383 92.6807 128.658 89.0557 127.158C89.0513 127.412 89.038 127.92 89.0336 128.169C92.1104 130.435 96.1245 130.227 99.6964 129.913C101.642 129.779 103.313 128.769 104.847 127.601C107.075 126.402 108.874 123.9 108.573 121.187Z" fill="#1D719D"/>
<path d="M116.058 127.855C115.607 128.321 115.478 128.875 115.664 129.503C116.195 129.032 116.323 128.483 116.058 127.855Z" fill="#305064"/>
<path d="M117.914 129.138C117.901 129.17 117.892 129.198 117.883 129.221C117.826 129.327 117.764 129.429 117.702 129.539C117.379 129.609 117.057 129.678 116.734 129.747C116.928 129.207 117.11 128.658 117.3 128.118C117.631 128.114 117.958 128.114 118.29 128.118C118.171 128.455 118.042 128.797 117.914 129.138Z" fill="#1F1A18"/>
<path d="M114.572 162.16C114.674 162.718 114.789 163.272 114.904 163.825C114.899 163.825 114.899 163.825 114.895 163.825C114.807 165.634 115.377 167.369 115.814 169.095C115.854 170.341 115.881 171.592 115.996 172.833C116 172.893 116.009 172.948 116.013 173.008C115.708 173.345 115.403 173.687 115.107 174.037C114.603 170.457 113.989 166.894 113.463 163.313C113.874 162.986 114.263 162.598 114.572 162.16Z" fill="#1F1A18"/>
<path d="M116.849 131.501C116.641 131.944 116.429 132.387 116.208 132.82C115.699 133.817 115.156 134.805 114.572 135.755C114.258 136.267 113.931 136.77 113.591 137.264C113.569 137.296 113.555 137.32 113.538 137.343C113.489 137.398 113.401 137.504 113.25 137.689C113.069 137.915 112.901 138.146 112.742 138.381C113.233 137.426 113.741 136.48 114.307 135.571C115.076 133.609 115.863 131.658 116.734 129.742C117.057 129.673 117.379 129.604 117.702 129.535C117.485 129.941 117.278 130.361 117.096 130.808C117.008 131.035 116.928 131.27 116.849 131.501Z" fill="#2B2825"/>
<path d="M66.3376 130.804C64.8876 131.228 63.8708 129.793 62.7125 129.161C64.2244 131.168 66.3464 132.636 68.4595 133.877C68.2429 132.562 67.2748 131.616 66.3376 130.804Z" fill="#53798C"/>
<path d="M115.562 129.807C115.536 129.876 115.483 130.011 115.452 130.08C115.483 130.011 115.536 129.876 115.562 129.807Z" fill="#2D3F52"/>
<path d="M115.452 130.079C115.275 130.31 114.921 130.767 114.745 130.998C114.921 130.767 115.275 130.31 115.452 130.079Z" fill="#3D5669"/>
<path d="M114.745 130.998C114.227 131.478 113.86 132.114 113.856 132.857C114.767 132.82 115.036 131.75 114.745 130.998Z" fill="#415C70"/>
<path d="M113.856 132.857C113.759 133.106 113.564 133.6 113.467 133.845C113.6 133.693 113.869 133.383 114.002 133.231L113.856 132.857Z" fill="#37586A"/>
<path d="M113.467 133.845C113.339 134.122 113.091 134.68 112.967 134.957C113.091 134.68 113.339 134.122 113.467 133.845Z" fill="#325767"/>
<path d="M112.844 135.377C112.808 135.474 112.738 135.668 112.702 135.764C112.738 135.668 112.808 135.474 112.844 135.377Z" fill="#1F4451"/>
<path d="M112.525 136.166C112.477 136.267 112.38 136.461 112.326 136.563C112.38 136.461 112.477 136.267 112.525 136.166Z" fill="#325260"/>
<path d="M112.074 137.015C112.017 137.112 111.911 137.301 111.858 137.398C111.911 137.301 112.017 137.112 112.074 137.015Z" fill="#304A59"/>
<path d="M111.858 137.398C111.716 137.749 111.438 138.446 111.301 138.796C111.438 138.446 111.716 137.749 111.858 137.398Z" fill="#355363"/>
<path d="M111.168 139.087C111.137 139.152 111.071 139.281 111.04 139.351C111.071 139.281 111.137 139.152 111.168 139.087Z" fill="#2B4958"/>
<path d="M111.04 139.35C110.885 139.442 110.571 139.627 110.412 139.719L110.585 140.19C110.7 139.978 110.93 139.558 111.04 139.35Z" fill="#3E5F6E"/>
<path d="M109.864 141.422C109.846 141.459 109.806 141.538 109.789 141.58C109.806 141.538 109.846 141.459 109.864 141.422Z" fill="#396070"/>
<path d="M80.0197 167.785C80.254 166.345 80.4927 164.905 80.7182 163.466C81.3371 158.103 81.5316 152.649 80.7138 147.301C80.6121 144.892 78.3001 143.683 77.0755 141.902C78.1365 141.939 78.7863 142.862 79.4495 143.591C80.2187 144.504 81.1559 145.413 81.3238 146.692C82.1373 153.161 82.0444 159.792 80.8066 166.197C80.369 169.363 79.9623 172.538 79.224 175.648L78.7421 176.165C79.0693 173.641 79.4716 171.13 79.8827 168.615C79.9402 168.343 79.9844 168.066 80.0197 167.785Z" fill="#3C7A94"/>
<path d="M109.97 143.988C110.129 143.355 109.935 142.926 109.396 142.7C109.174 143.323 109.369 143.748 109.97 143.988Z" fill="#2C5162"/>
<path d="M110.28 146.364C110.801 145.769 110.549 144.883 109.908 144.523C109.736 145.164 109.908 145.833 110.28 146.364Z" fill="#305062"/>
<path d="M110.757 147.781C111.049 147.079 110.89 146.609 110.28 146.364C110.147 146.936 110.306 147.407 110.757 147.781Z" fill="#2C4A58"/>
<path d="M111.177 149.659C111.067 149.405 110.841 148.897 110.731 148.644C110.841 148.897 111.067 149.405 111.177 149.659Z" fill="#294956"/>
<path d="M111.672 152.428C111.557 152.169 111.332 151.662 111.221 151.408C111.332 151.662 111.557 152.169 111.672 152.428Z" fill="#2D4958"/>
<path d="M112.079 155.095C112.402 154.315 112.406 153.332 111.637 152.852C111.425 153.637 111.619 154.444 112.079 155.095Z" fill="#364E5B"/>
<path d="M112.547 157.43C112.817 156.761 112.764 155.939 112.079 155.579C111.893 156.239 112.026 156.968 112.547 157.43Z" fill="#314F5E"/>
<path d="M112.994 160.632C113.286 159.894 113.476 158.694 112.517 158.403C112.402 159.188 112.645 159.945 112.994 160.632Z" fill="#37576A"/>
<path d="M113.467 163.314C113.454 163.254 113.432 163.138 113.424 163.078C113.432 163.138 113.454 163.254 113.467 163.314Z" fill="#59757F"/>
<path d="M116.774 186.658C116.968 185.795 117.198 184.951 117.375 184.088C117.481 184.088 117.587 184.079 117.698 184.074C117.835 184.891 117.967 185.703 118.091 186.524C118.14 187.973 118.308 189.413 118.577 190.834C118.679 191.85 118.754 192.865 118.829 193.88C118.944 195.698 119.064 197.516 119.223 199.334C118.993 199.27 118.683 199.182 118.507 199.127C118.104 203.054 118.427 206.999 118.423 210.935C118.458 214.17 118.281 217.4 118.387 220.635C118.432 221.895 118.432 223.187 118.025 224.396C118.418 218.845 118.378 213.256 118.348 207.691C118.339 200.645 117.437 193.654 116.774 186.658Z" fill="#251E1E"/>
<path d="M117.388 182.274C117.401 182.879 117.401 183.483 117.375 184.088C117.198 184.951 116.968 185.795 116.774 186.658C116.217 182.45 115.686 178.241 115.112 174.037C115.408 173.687 115.713 173.35 116.018 173.008C116.336 176.271 116.871 179.293 117.388 182.274Z" fill="#1C2E2F"/>
<path d="M79.224 175.648L78.7421 176.165C76.9075 185.089 74.5557 193.88 72.1287 202.643C70.5196 209.486 67.9511 216.247 68.1722 223.399C68.2473 226.731 68.1633 230.307 69.8565 233.27C68.8132 228.055 68.2561 222.633 69.1801 217.35C69.9316 212.283 71.5717 207.433 72.7299 202.468C73.1985 200.631 73.897 198.868 74.3302 197.023C76.1162 189.939 78.4062 182.953 79.224 175.648Z" fill="#4A88A1"/>
<path d="M117.388 182.274C117.494 182.874 117.596 183.474 117.698 184.074C117.592 184.079 117.485 184.088 117.375 184.088C117.401 183.483 117.397 182.879 117.388 182.274Z" fill="#787F7A"/>
<path d="M118.706 192.016C118.745 192.634 118.785 193.257 118.825 193.875C118.75 192.86 118.675 191.845 118.573 190.83C118.308 189.409 118.135 187.964 118.087 186.52C118.356 188.324 118.582 190.142 118.706 192.016Z" fill="#5B4845"/>
<path d="M118.02 224.396C118.427 223.187 118.427 221.895 118.383 220.635C118.277 217.4 118.454 214.17 118.418 210.935C118.423 206.999 118.1 203.054 118.502 199.127C118.679 199.177 118.984 199.265 119.218 199.334C119.298 200.276 119.391 201.217 119.501 202.158C119.51 203.847 119.457 205.555 119.656 207.23C119.621 208.393 119.599 209.556 119.594 210.718C119.594 210.912 119.607 211.101 119.621 211.295C119.63 214.064 119.634 216.828 119.36 219.588C119.364 220.146 119.391 220.714 119.435 221.277C119.824 223.999 118.776 226.551 118.109 229.117C117.773 228.54 117.441 227.968 117.11 227.4C117.375 226.385 117.72 225.397 118.02 224.396Z" fill="#1E323A"/>
<path d="M118.104 229.117C117.768 228.54 117.437 227.968 117.105 227.4C116.447 230.178 115.567 232.891 114.568 235.559C115.39 234.363 115.965 233.011 116.491 231.655C116.606 232.315 116.716 232.965 116.809 233.634C117.397 232.181 117.733 230.639 118.104 229.117Z" fill="#292E37"/>
<path d="M114.568 235.559C115.39 234.363 115.965 233.011 116.491 231.655C116.606 232.315 116.716 232.965 116.809 233.634C115.691 236.472 113.781 238.844 112.242 241.428C111.792 242.051 112.278 242.78 112.45 243.417C113.944 246.892 114.692 250.657 116.186 254.127C116.283 255.401 116.575 256.601 116.999 257.764C117.119 258.179 117.251 258.59 117.419 258.991C117.167 259.019 116.663 259.074 116.411 259.102C115.85 257.09 115.284 255.073 114.387 253.195C113.449 249.91 112.282 246.689 111.022 243.528C110.784 243.477 110.306 243.38 110.067 243.334C109.93 243.071 109.652 242.54 109.515 242.277C111.593 240.404 113.074 237.93 114.568 235.559Z" fill="#0F222E"/>
<path d="M109.515 242.277C109.121 242.573 108.732 242.868 108.335 243.168C108.224 243.565 108.105 243.966 107.99 244.368C108.485 244.382 108.976 244.395 109.471 244.414C109.67 244.049 109.869 243.689 110.067 243.334C109.93 243.071 109.652 242.54 109.515 242.277Z" fill="#0C5574"/>
<path d="M111.022 243.528C110.784 243.477 110.306 243.38 110.067 243.334C109.869 243.689 109.67 244.049 109.471 244.414C110.209 245.392 110.823 246.481 111.111 247.704C111.862 250.607 113.118 253.325 113.998 256.186C115.156 260.32 115.819 264.589 116.924 268.733C118.255 272.507 119.037 276.48 120.041 280.37C120.439 281.607 120.408 283.342 121.8 283.877C120.12 274.976 117.799 266.227 115.399 257.51C114.966 256.093 114.559 254.667 114.387 253.195C113.449 249.91 112.282 246.689 111.022 243.528Z" fill="#80BACF"/>
<path d="M80.2982 243.869C79.7235 243.662 79.1444 243.454 78.5697 243.242C78.7819 243.463 79.2107 243.902 79.4229 244.123C78.7024 245.125 78.194 246.264 77.911 247.483C77.3231 249.901 76.3859 252.212 75.9084 254.663L76.377 254.76C77.2656 251.949 77.9376 249.065 78.8924 246.278C79.1223 245.604 79.7545 245.235 80.2187 244.765C80.2363 244.538 80.2761 244.091 80.2982 243.869Z" fill="#387A98"/>
<path d="M94.586 246.79C96.9821 246.864 99.3383 246.352 101.717 246.232C104.343 254.723 107.291 263.13 109.21 271.838C111.124 278.945 112.459 286.226 113.401 293.545C113.308 294.957 112.64 296.244 112.318 297.61C109.895 305.958 107.428 314.301 105.275 322.732L105.178 322.058C105.059 321.288 104.913 320.522 104.794 319.756C105.103 317.868 105.775 316.082 106.142 314.209C107.167 310.674 107.906 307.056 108.976 303.535C109.922 300.637 110.974 297.763 111.575 294.763C111.92 292.903 111.588 291.072 111.257 289.244C111.385 288.243 111.411 287.237 111.341 286.235C111.358 286.217 111.38 286.199 111.394 286.185C111.376 286.166 111.349 286.143 111.332 286.125C111.195 284.417 110.77 282.724 110.103 281.076C110.063 280.878 110.028 280.68 109.979 280.481C109.815 279.798 109.625 279.124 109.431 278.455C108.419 275.35 107.87 272.11 106.982 268.968C106.08 265.991 105.899 262.766 104.453 259.988C104.453 259.956 104.458 259.928 104.458 259.896C104.484 259.139 104.396 258.336 104.148 257.621C104.069 257.395 103.755 256.61 103.56 256.139C103.352 255.493 103.052 254.866 102.813 254.257C102.654 253.869 102.49 253.486 102.344 253.098C102.123 251.179 101.531 249.351 100.828 247.579C98.9891 247.718 97.1678 248.041 95.3199 248.101C94.1484 248.138 92.9857 248.285 91.8187 248.415C90.3642 248.438 88.2423 247.183 87.367 248.95C87.2255 248.147 87.0575 247.353 86.894 246.56C89.4624 246.49 92.0176 246.892 94.586 246.79Z" fill="#032A3B"/>
<path d="M79.0958 271.944C81.8455 264.501 83.7729 256.772 86.253 249.236C86.5315 248.373 86.5005 247.455 86.4607 246.564C86.5713 246.56 86.7879 246.555 86.894 246.555C87.0575 247.349 87.2255 248.142 87.367 248.945C87.146 251.114 86.1734 253.085 85.6473 255.18C84.52 259.291 83.1982 263.338 81.9781 267.427C80.9923 270.491 79.7456 273.458 78.804 276.54C78.8217 276.55 78.8482 276.568 78.8659 276.577C78.7466 276.849 78.6316 277.126 78.5299 277.408C78.5255 277.412 78.5255 277.422 78.5211 277.426C78.4459 277.459 78.3708 277.486 78.2956 277.519C77.3761 280.08 76.5362 282.687 75.8908 285.345C75.8068 285.714 75.7139 286.083 75.6211 286.462C75.0597 289.138 73.3709 291.621 73.8219 294.459C73.928 297.721 74.7591 300.896 74.8607 304.154C74.8917 306.175 75.3647 308.136 75.8024 310.093C75.7979 310.342 75.7847 310.845 75.7758 311.094C75.7272 314.546 76.4522 317.96 76.912 321.371C76.9915 321.781 77.0534 322.197 77.1065 322.617C77.0932 325.413 77.6546 328.154 78.0437 330.909C78.0746 331.195 78.1277 331.767 78.1542 332.053C77.69 331.698 77.2302 331.338 76.7749 330.978C76.1295 324.97 75.3382 318.971 74.5601 312.977C74.3921 311.039 74.3347 309.077 73.813 307.199C73.4682 302.322 72.8272 297.472 72.363 292.613C74.3347 285.636 76.5229 278.709 79.0958 271.944Z" fill="#102830"/>
<path d="M86.4607 246.564L85.8772 246.569C85.7402 247.483 85.6252 248.405 85.4042 249.305C84.9931 251.082 83.543 252.406 83.4016 254.28C82.9905 257.399 81.9251 260.357 81.0498 263.357C80.117 266.135 79.4406 269.028 78.0481 271.617C76.9296 273.532 76.8103 275.82 75.9836 277.855C75.0641 280.043 74.622 282.433 73.4417 284.505C72.783 286.286 72.3453 288.146 71.6601 289.918C70.5859 292.557 71.4302 295.437 71.6601 298.159C72.2657 301.994 71.6247 306.087 73.3975 309.664L73.6671 309.077C73.7202 308.45 73.7688 307.822 73.813 307.199C73.4682 302.322 72.8272 297.472 72.363 292.613C74.3347 285.636 76.5229 278.709 79.0958 271.944C81.8455 264.501 83.7729 256.772 86.253 249.236C86.5315 248.373 86.5005 247.455 86.4607 246.564Z" fill="#72ABBE"/>
<path d="M85.8772 246.569C85.6252 246.578 85.1168 246.597 84.8649 246.61C83.9674 248.419 83.4237 250.413 82.3362 252.125C81.0895 253.874 82.292 256.227 81.3504 258.087C80.8729 259.116 80.453 260.168 80.0905 261.252C79.2284 260.071 79.1709 258.576 78.9411 257.173C78.7863 257.173 78.4769 257.173 78.3222 257.168C78.5565 259.111 78.5918 261.257 77.1772 262.766C76.3991 261.169 76.3815 259.342 76.125 257.611C76.3593 257.122 76.5892 256.638 76.8235 256.158C76.6821 255.687 76.5318 255.221 76.377 254.76L75.9084 254.663C75.5371 256.306 74.9845 257.898 74.4761 259.499C71.6071 267.865 69.2685 276.425 66.3154 284.763C66.5807 284.44 66.8548 284.122 67.1288 283.817C67.1775 284.15 67.2792 284.814 67.3278 285.146C68.1058 283.845 69.0961 282.632 69.463 281.118C69.7813 279.881 70.1305 278.654 70.6389 277.491C70.9793 277.754 71.3197 278.017 71.6601 278.285C72.3099 278.229 72.9598 278.183 73.6096 278.137C73.3488 280.246 72.752 282.41 73.4417 284.505C74.622 282.433 75.0641 280.043 75.9836 277.855C76.8103 275.82 76.9296 273.532 78.0481 271.617C79.4406 269.028 80.117 266.135 81.0498 263.357C81.9251 260.357 82.9905 257.399 83.4016 254.28C83.5431 252.406 84.9931 251.082 85.4042 249.305C85.6252 248.405 85.7402 247.483 85.8772 246.569Z" fill="#62BBE1"/>
<path d="M116.411 259.102C115.85 257.09 115.284 255.073 114.387 253.195C114.559 254.667 114.966 256.093 115.399 257.51C117.799 266.227 120.12 274.976 121.8 283.877C122.985 286.923 122.499 290.269 122.821 293.462C123.847 291.302 123.25 288.875 122.945 286.618C121.539 279.194 119.749 271.857 117.897 264.543C117.401 262.729 116.889 260.92 116.411 259.102Z" fill="#4C7282"/>
<path d="M122.821 293.462C123.847 291.302 123.25 288.875 122.945 286.619C121.539 279.194 119.749 271.857 117.897 264.543C118.051 264.353 118.361 263.97 118.511 263.781L118.798 263.435C118.922 266.042 120.067 268.419 120.584 270.948C121.181 272.927 121.491 274.985 122.034 276.974C122.114 277.883 122.264 278.797 122.512 279.734C122.538 279.835 122.569 279.932 122.6 280.029C122.574 280.158 122.569 280.297 122.614 280.449C122.667 280.97 122.742 281.501 122.848 282.022C122.958 283.804 123.409 285.262 124.178 286.891C124.117 286.978 124.059 287.057 124.01 287.122C125.147 291.524 123.675 295.917 122.644 300.162C121.592 303.374 120.814 306.669 119.926 309.936C119.643 310.383 119.395 310.84 119.179 311.297C119.134 311.223 119.095 311.154 119.064 311.103C118.966 311.495 118.869 311.888 118.776 312.285C118.37 313.438 118.175 314.629 118.197 315.87C117.583 317.434 117.052 319.031 116.836 320.715C116.783 321.001 116.676 321.583 116.623 321.874C116.173 323.576 115.554 325.233 115.226 326.977C115.041 326.239 114.829 325.51 114.634 324.781C117.344 314.329 120.461 304.001 122.821 293.462Z" fill="#0A1A26"/>
<path d="M116.924 268.733C116.738 269.863 116.898 271.008 116.889 272.152C116.734 272.627 116.274 273.135 115.744 273.029C114.417 272.913 113.082 272.738 111.796 272.387C111.363 271.423 111.146 270.375 110.686 269.425C110.151 269.254 109.59 269.18 109.037 269.092C109.042 270.006 109.055 270.929 109.21 271.838C111.124 278.945 112.459 286.226 113.401 293.545C113.308 294.957 112.64 296.244 112.318 297.61C112.512 299.613 112.273 301.625 111.597 303.512C111.809 303.618 112.238 303.831 112.45 303.937C112.738 304.555 113.029 305.183 113.321 305.806C113.905 305.94 114.484 306.073 115.067 306.221C115.461 306.982 115.89 307.735 116.345 308.464C116.34 307.698 116.292 306.932 116.38 306.175C116.668 305.446 117.508 305.298 118.087 304.934C118.723 302.636 120.142 300.614 120.355 298.187C120.558 296.443 121.778 294.98 121.734 293.19C121.597 290.089 121.623 286.978 121.8 283.877C120.408 283.342 120.439 281.607 120.041 280.37C119.037 276.48 118.255 272.507 116.924 268.733Z" fill="#5EB7D9"/>
<path d="M71.6601 278.285C71.3197 278.017 70.9793 277.754 70.6389 277.491C70.1305 278.654 69.7813 279.881 69.463 281.118C69.0961 282.632 68.1058 283.845 67.3278 285.146C67.2792 284.814 67.1775 284.15 67.1289 283.817C66.8548 284.122 66.5807 284.44 66.3154 284.763C66.174 285.165 66.0369 285.571 65.9132 285.991C65.8513 288.081 64.8654 290.015 64.9936 292.124C65.0688 294.842 65.0953 297.569 65.4711 300.264C65.8292 301.062 66.3066 301.846 66.2933 302.769C66.4304 305.557 66.7796 308.335 66.8636 311.131C67.204 309.391 67.8097 307.73 68.3269 306.046C68.601 307.342 68.8972 308.644 69.2199 309.931C70.2897 310.328 71.333 310.808 72.4293 311.131C72.8228 310.693 73.119 310.18 73.3975 309.663C71.6248 306.087 72.2658 301.994 71.6601 298.159C71.4302 295.437 70.5859 292.557 71.6601 289.918C72.3453 288.146 72.783 286.286 73.4417 284.505C72.752 282.41 73.3488 280.246 73.6097 278.137C72.9598 278.183 72.31 278.229 71.6601 278.285Z" fill="#5AB4D9"/>
<path d="M122.821 293.462C122.499 290.269 122.985 286.923 121.8 283.877C121.623 286.978 121.597 290.089 121.734 293.19C121.778 294.98 120.558 296.443 120.355 298.187C120.142 300.614 118.723 302.636 118.087 304.934C117.954 306.493 118.06 308.127 117.481 309.608C115.96 312.972 115.244 316.655 114.431 320.259C113.719 322.889 112.671 325.418 112.185 328.117C112.194 328.74 112.203 329.368 112.203 329.995C112.428 329.912 112.875 329.751 113.096 329.668C113.109 329.889 113.135 330.332 113.144 330.549C113.538 328.597 114.077 326.682 114.639 324.776C117.344 314.329 120.461 304.001 122.821 293.462Z" fill="#71A4BB"/>
<path d="M65.9132 285.991C65.4225 287.435 64.7151 288.806 64.3703 290.305C64.0653 292.922 64.4941 295.552 64.7019 298.159C64.9627 305.229 64.4897 312.321 65.0246 319.382C65.1395 325.39 65.1042 331.398 65.0776 337.406C65.0865 340.553 65.0644 343.719 64.64 346.838C62.2218 350.581 59.5517 354.221 57.7436 358.365C57.1645 359.657 56.8639 361.162 57.2529 362.565C58.1813 364.761 60.3342 365.933 62.3368 366.847C65.365 368.144 68.4286 369.639 71.7706 369.676C75.0906 369.86 78.1498 368.393 80.8508 366.519C80.5104 364.927 82.6412 364.521 82.9905 363.169C83.3353 361.176 83.1054 359.044 82.1947 357.244C81.0719 355.011 80.1126 352.689 78.9057 350.502C77.4557 346.82 76.8103 342.861 76.2798 338.938C75.599 336.299 75.6167 333.567 75.3868 330.872C74.9138 331.384 74.3833 331.855 73.9545 332.427C73.7379 333.747 73.7865 335.094 73.7423 336.437C73.34 335.574 72.9952 334.67 72.4072 333.927C71.5894 333.959 70.7848 334.148 69.9802 334.291C69.8653 335.016 69.7504 335.745 69.631 336.479C69.463 335.731 69.295 334.988 69.1226 334.245C68.9812 334.993 68.8353 335.745 68.685 336.497C68.5479 335.726 68.4109 334.965 68.2783 334.204C67.6903 336.405 67.1068 338.657 65.9618 340.632C65.8159 335.869 66.0325 331.098 65.8424 326.331C65.9662 323.101 65.3561 319.903 65.4711 316.673C65.4357 311.205 65.3296 305.732 65.4711 300.264C65.0953 297.569 65.0688 294.842 64.9937 292.124C64.8654 290.015 65.8513 288.081 65.9132 285.991Z" fill="#529FC1"/>
<path d="M112.318 297.61C109.895 305.958 107.428 314.301 105.275 322.732C105.072 323.586 104.873 324.435 104.683 325.293C104.811 325.994 104.962 326.7 105.112 327.406C105.355 326.959 105.594 326.516 105.832 326.077C107.154 327.014 108.693 327.499 110.156 328.117C110.227 327.891 110.373 327.439 110.443 327.213C110.876 327.619 111.305 328.029 111.752 328.422C111.858 328.343 112.074 328.196 112.185 328.117C112.671 325.418 113.719 322.889 114.431 320.259C115.244 316.655 115.96 312.972 117.481 309.608C118.06 308.127 117.954 306.493 118.087 304.934C117.508 305.298 116.668 305.446 116.38 306.175C116.292 306.932 116.34 307.698 116.345 308.464C115.89 307.735 115.461 306.982 115.067 306.221C114.484 306.073 113.905 305.94 113.321 305.806C113.029 305.183 112.738 304.555 112.45 303.937C112.238 303.831 111.809 303.618 111.597 303.512C112.273 301.625 112.512 299.613 112.318 297.61Z" fill="#59ADD0"/>
<path d="M66.2933 302.769C66.3066 301.846 65.8292 301.062 65.4711 300.264C65.3296 305.732 65.4357 311.205 65.4711 316.673C65.3561 319.903 65.9662 323.101 65.8424 326.331C66.0325 331.098 65.8159 335.87 65.9618 340.632C67.1067 338.657 67.6903 336.405 68.2782 334.204C68.4109 334.965 68.5479 335.726 68.685 336.497C68.8353 335.745 68.9811 334.993 69.1226 334.245C69.295 334.988 69.463 335.731 69.631 336.479C69.7504 335.745 69.8653 335.016 69.9802 334.291C70.7848 334.148 71.5894 333.959 72.4072 333.927C72.9952 334.67 73.34 335.574 73.7423 336.437C73.7865 335.094 73.7379 333.747 73.9545 332.427C74.3833 331.855 74.9138 331.384 75.3868 330.872C75.0641 328.191 75.4752 325.367 74.4452 322.824C73.844 321.292 74.3877 319.608 74.1313 318.016C73.7732 315.053 73.7909 312.058 73.6671 309.077L73.3975 309.664C73.119 310.18 72.8228 310.693 72.4293 311.131C71.333 310.808 70.2897 310.328 69.2199 309.931C68.8972 308.644 68.601 307.342 68.3269 306.046C67.8096 307.73 67.204 309.391 66.8636 311.131C66.7796 308.335 66.4304 305.557 66.2933 302.769Z" fill="#58ACCE"/>
<path d="M74.5601 312.977C74.3921 311.039 74.3347 309.077 73.813 307.199C73.7688 307.822 73.7202 308.45 73.6671 309.077C73.7909 312.058 73.7732 315.053 74.1313 318.016C74.3877 319.608 73.844 321.292 74.4452 322.824C75.4752 325.367 75.0641 328.191 75.3868 330.872C75.6167 333.567 75.599 336.299 76.2798 338.938C76.8103 342.861 77.4557 346.82 78.9057 350.502C80.1126 352.689 81.0719 355.011 82.1947 357.244C83.1054 359.044 83.3353 361.176 82.9905 363.169C82.6412 364.521 80.5104 364.927 80.8508 366.519C82.6059 365.273 84.9577 363.557 84.5598 361.019C83.4237 355.491 79.5688 351.033 78.6051 345.445C77.8182 340.646 77.3363 335.805 76.7749 330.978C76.1295 324.97 75.3382 318.971 74.5601 312.977Z" fill="#6B9EAF"/>
<path d="M105.178 322.058C104.864 322.09 104.237 322.15 103.927 322.183C103.472 325.164 102.411 327.979 101.699 330.89C101.761 330.983 101.88 331.158 101.938 331.25C101.783 331.338 101.465 331.523 101.31 331.615C100.174 335.085 98.8874 338.504 97.6673 341.947C96.5798 345.016 95.3199 348.029 94.4402 351.176C94.4048 354.323 94.2899 357.475 94.2678 360.627C94.7054 360.742 95.1431 360.871 95.5807 361.01C95.6515 356.257 95.3111 351.291 97.1014 346.811C97.9768 344.577 98.6752 342.265 99.6787 340.092C101.398 335.177 103.26 330.314 104.683 325.293C104.873 324.435 105.072 323.586 105.275 322.732L105.178 322.058Z" fill="#11333A"/>
<path d="M71.7706 369.676C75.0906 369.86 78.1498 368.393 80.8508 366.519C82.6059 365.273 84.9577 363.557 84.5598 361.019C83.4237 355.491 79.5688 351.033 78.6051 345.445C77.8182 340.646 77.3363 335.805 76.7749 330.978C77.2302 331.338 77.69 331.698 78.1542 332.053C78.1674 332.201 78.194 332.501 78.2072 332.649C78.3929 334.268 78.6405 335.879 78.8394 337.498C79.3168 341.056 79.5423 344.697 80.6342 348.13C81.3106 349.893 82.2522 351.522 83.0302 353.239C84.299 355.509 85.1345 358.001 85.8639 360.507C88.6623 360.76 91.465 360.571 94.2678 360.627C94.7054 360.742 95.1431 360.871 95.5807 361.01C99.1659 361.868 102.844 362.214 106.496 362.602C114.369 362.703 122.242 362.782 130.116 362.643C131.566 362.648 133.042 362.232 134.121 361.185C134.576 359.745 133.113 358.841 132.149 358.176C130.787 357.272 129.324 356.561 127.843 355.906C124.7 353.871 121.442 352.034 118.246 350.092C115.969 348.638 113.653 347.111 111.982 344.891C111.845 340.078 112.441 335.297 113.144 330.549C113.538 328.597 114.077 326.682 114.639 324.776C114.833 325.505 115.045 326.234 115.231 326.973C115.085 327.831 114.899 328.68 114.705 329.534C114.497 329.871 114.325 330.221 114.174 330.586C113.98 330.807 113.785 331.024 113.586 331.25C113.666 331.283 113.776 331.329 113.891 331.38C113.573 332.478 113.502 333.655 113.71 334.817C113.259 337.628 113.078 340.484 113.356 343.327C113.538 344.979 114.745 346.183 115.956 347.115C116.531 347.517 117.119 347.895 117.702 348.278C122.26 351.144 126.888 353.889 131.636 356.39C133.219 357.207 134.678 358.324 135.615 359.92C135.398 360.719 135.544 361.766 134.859 362.352C134.001 363.021 132.971 363.377 132.016 363.866C129.996 363.972 127.994 364.332 125.964 364.341C116.513 364.295 106.995 364.503 97.6408 362.809C95.7973 362.786 94.2368 361.448 92.3801 361.632C90.2493 361.683 88.1229 361.688 85.9921 361.632C85.5501 364.35 83.6315 366.487 81.4211 367.839C79.4273 369.03 77.4071 370.312 75.1127 370.751C72.8626 371.217 70.5417 370.986 68.318 370.469C69.4895 370.308 70.6257 369.971 71.7706 369.676Z" fill="#1F333E"/>
<path d="M104.683 325.293C103.26 330.314 101.398 335.177 99.6787 340.092C100.39 341.905 98.8167 343.645 99.2367 345.482C99.3649 346.455 100.037 347.512 99.3914 348.44C97.8883 350.798 99.4002 353.617 99.9838 356.04C100.616 355.209 100.824 354.157 101.001 353.142C102.636 353.109 104.272 353.072 105.903 352.999C106.022 352.265 106.137 351.54 106.252 350.816C108.799 350.714 111.354 350.682 113.891 350.95C114.86 351.13 115.722 350.548 116.566 350.151C114.674 348.615 111.632 347.946 111.044 345.186C110.669 340.096 111.243 334.983 112.203 329.995C112.203 329.368 112.194 328.74 112.185 328.117C112.074 328.195 111.858 328.343 111.752 328.422C111.305 328.029 110.876 327.619 110.443 327.213C110.372 327.439 110.227 327.891 110.156 328.117C108.693 327.499 107.154 327.014 105.832 326.077C105.594 326.516 105.355 326.959 105.112 327.406C104.962 326.7 104.811 325.994 104.683 325.293Z" fill="#54A4C6"/>
<path d="M113.096 329.668C112.875 329.751 112.428 329.912 112.203 329.995C111.243 334.984 110.669 340.096 111.044 345.186C111.632 347.946 114.674 348.615 116.566 350.152C119.095 351.983 121.968 353.211 124.475 355.075C125.434 355.855 126.707 355.744 127.843 355.906C124.7 353.871 121.442 352.034 118.246 350.092C115.969 348.638 113.653 347.111 111.982 344.891C111.845 340.078 112.441 335.297 113.144 330.549C113.135 330.332 113.109 329.889 113.096 329.668Z" fill="#6B98AB"/>
<path d="M99.2367 345.482C98.8167 343.645 100.39 341.905 99.6787 340.092C98.6752 342.265 97.9768 344.577 97.1015 346.811C95.3111 351.291 95.6515 356.257 95.5807 361.01C99.1659 361.868 102.844 362.214 106.496 362.602C114.369 362.703 122.242 362.782 130.116 362.643C130.911 362.043 131.813 361.554 132.454 360.765C132.936 359.653 131.932 358.915 131.322 358.181C131.53 358.181 131.941 358.176 132.149 358.176C130.787 357.272 129.324 356.561 127.843 355.906C126.707 355.744 125.434 355.855 124.475 355.075C121.968 353.211 119.095 351.983 116.566 350.151C115.722 350.548 114.86 351.13 113.891 350.95C111.354 350.682 108.799 350.714 106.252 350.816C106.137 351.54 106.023 352.265 105.903 352.999C104.272 353.072 102.636 353.109 101.001 353.142C100.824 354.157 100.616 355.209 99.9838 356.04C99.4002 353.617 97.8883 350.798 99.3914 348.44C100.037 347.512 99.3649 346.455 99.2367 345.482Z" fill="#519FBF"/>
<path d="M134.121 361.185C134.576 359.745 133.113 358.841 132.149 358.176C131.941 358.176 131.53 358.181 131.322 358.181C131.932 358.915 132.936 359.653 132.454 360.765C131.813 361.554 130.911 362.043 130.116 362.643C131.566 362.648 133.042 362.232 134.121 361.185Z" fill="#6F9AA7"/>
</svg>
