<svg width="323" height="380" viewBox="0 0 323 380" fill="none" xmlns="http://www.w3.org/2000/svg">
<path d="M151.547 247.241C151.193 247.749 150.825 248.264 150.457 248.772C150.72 255.715 150.607 262.673 151.103 269.6C152.035 262.181 151.193 254.691 151.547 247.241Z" fill="white"/>
<path d="M144.428 0.685027C143.827 0.354059 143.188 0.123151 142.504 0C142.587 8.46662 145.751 16.5869 145.473 25.092C141.008 27.1394 136.039 26.1234 131.387 25.5307C131.199 25.8463 130.815 26.4774 130.62 26.793C135.942 28.1785 141.692 28.5094 146.879 26.4082C147.578 18.388 144.767 10.7141 144.361 2.77859C153.05 8.34347 162.243 14.0623 167.791 23.1909C171.038 17.5182 172.857 11.1529 175.616 5.24161C177.562 7.38136 178.194 10.3986 179.179 13.0694C180.795 17.7337 180.953 22.7213 180.674 27.6166C184.553 26.3235 188.101 24.2299 191.476 21.9132C190.732 26.7007 189.522 31.3958 188.094 36.0139C187.146 35.9678 186.199 35.9139 185.245 35.86C181.328 30.6107 175.563 26.6853 169.016 26.1619C158.41 24.8457 148.164 32.6812 145.172 42.9412C144.879 47.213 143.729 51.7926 145.714 55.8258C145.225 50.2764 145.593 44.4421 148.262 39.4776C151.208 33.6741 156.748 29.1945 163.062 27.9937C170.767 26.2619 179.058 30.018 183.621 36.4681C180.329 38.2153 177.863 41.0785 175.165 43.6108C170.632 39.3082 165.032 34.3129 158.342 35.8446C155.869 36.4758 155.906 40.7476 158.582 40.8861C161.649 40.786 164.543 41.7635 167.122 43.403C163.168 43.7955 158.77 44.9578 156.711 48.8062C153.479 53.9324 156.726 61.2984 162.303 62.8685C167.49 64.7081 173.849 61.637 175.353 56.1491C176.202 53.7015 175.375 51.1769 174.616 48.837C175.488 48.7062 176.36 48.583 177.224 48.4522C176.465 51.1538 175.631 54.1941 177.096 56.8187C178.803 60.0899 179.727 63.6998 181.08 67.1326C181.734 68.4026 181.659 71.2428 179.622 70.5655C176.6 70.0344 175.473 66.5785 174.638 63.9769C174.27 64.0385 173.526 64.1693 173.158 64.2309C173.879 66.794 174.774 69.5649 177.059 71.1196C178.495 72.4204 180.479 72.0587 182.215 71.9432C182.824 70.0652 182.982 68.0947 182.711 66.132C184.41 65.9165 186.094 65.6394 187.763 65.2854C187.665 68.7336 187.59 72.1895 187.379 75.6377C186.568 75.4992 184.951 75.2221 184.147 75.0759C185.643 77.1925 188.853 78.578 188.56 81.5952C188.778 84.3815 185.966 86.0594 183.629 86.4442C183.14 86.5366 182.636 86.629 182.133 86.7367C182.103 87.1677 182.05 88.0375 182.027 88.4685C178.675 92.6172 173.691 95.4727 168.384 95.6959C162.596 96.05 156.696 93.41 153.11 88.7148C150.9 85.967 149.502 82.665 148.367 79.3323C148.811 78.9012 149.698 78.0392 150.141 77.6082C147.66 77.2618 144.736 77.4157 142.887 75.3837C141.271 73.7443 141.181 70.8503 142.865 69.2262C144.368 67.3712 146.879 67.2943 149.021 67.0326C149.111 66.7401 149.292 66.1628 149.374 65.8703C148.442 65.7241 147.51 65.5471 146.571 65.3546C146.105 62.5837 146.225 59.7513 145.841 56.9727C144.391 59.6897 145.263 62.807 145.187 65.7318L144.804 65.9935C141.76 67.3558 139.242 70.4038 140.226 74.0291C139.775 74.2908 139.324 74.5602 138.866 74.8219C134.138 73.4595 129.71 71.2274 125.681 68.3564C129.62 64.862 134.709 63.1533 138.663 59.7205C132.161 56.8264 125.193 55.0485 118.773 52.0466C125.298 48.6523 131.973 45.5273 138.956 43.2568C135.062 38.2384 131.311 33.0814 127.876 27.7166C127.696 27.4473 127.335 26.9162 127.155 26.6468C128.5 26.462 129.846 26.1927 130.996 25.423C128.778 24.9919 126.568 24.4993 124.321 24.2068C124.629 26.7622 126.613 28.5556 127.876 30.6415C130.515 34.7132 133.559 38.4924 136.197 42.5563C128.974 44.7115 122.547 48.8139 115.511 51.454C115.473 51.7619 115.391 52.3853 115.353 52.7009C121.998 55.1639 128.628 57.6654 135.318 59.9822C131.484 62.9917 126.666 64.685 123.374 68.4257C127.598 71.8278 132.319 74.7603 137.618 75.9687C136.791 77.9622 135.16 79.3938 133.574 80.7562C133.514 81.041 133.386 81.6106 133.326 81.903C136.814 83.6348 140.722 83.5964 144.488 83.173C143.256 85.4744 142.076 87.8297 141.429 90.3774C144.601 90.3312 147.683 89.346 150.517 87.9297C151.569 89.2844 152.674 90.6083 153.869 91.8321C153.847 93.6793 153.727 95.5189 153.636 97.3662C146.871 98.5669 139.7 99.2673 133.822 103.27C127.951 107.357 122.87 112.498 117.285 116.963C109.34 122.897 101.582 129.093 93.8851 135.366C90.4875 137.914 88.8864 142.909 90.931 146.842C98.3351 162.428 107.28 177.322 117.999 190.768C119.502 192.2 120.472 194.771 122.87 194.632C123.276 195.995 123.426 197.403 123.434 198.827C122.306 199.066 120.773 198.535 120.006 199.697C117.811 202.514 117.368 206.67 118.706 209.98C120.277 212.489 123.148 213.867 126.027 213.782C123.065 231.67 119.63 249.481 115.458 267.122C113.865 274.473 111.595 281.661 110.001 289.012C110.37 288.981 111.114 288.912 111.482 288.881C116.864 285.533 123.035 284.063 129.004 282.293C128.079 282.069 127.147 281.823 126.223 281.569C122.186 282.485 118.21 283.747 114.459 285.541L114.466 284.794L113.97 283.201C113.699 283.586 113.143 284.371 112.865 284.756C115.398 273.187 118.676 261.788 120.871 250.143C123.486 237.897 125.614 225.535 127.809 213.213C130.567 211.435 134.965 210.827 135.566 206.893C135.934 201.713 134.754 196.587 133.649 191.577C133.416 189.922 132.003 188.875 131.071 187.62C131.883 186.881 132.687 186.143 133.491 185.419C132.935 184.665 132.371 183.91 131.808 183.164C132.206 180.385 132.567 177.607 132.89 174.82C132.589 173.674 132.131 172.604 131.507 171.611C131.191 174.944 130.89 178.284 130.282 181.578C121.051 169.425 112.031 156.971 105.16 143.224C110.572 138.375 116.857 134.704 122.344 129.955C126.486 126.653 130.312 122.912 134.656 119.887C134.536 135.081 133.529 150.283 132.168 165.422C132.033 167.539 132.071 169.663 132.251 171.78C133.814 168.655 133.236 164.991 133.762 161.612C133.86 156.479 135.13 151.376 134.453 146.242C133.852 142.755 135.543 139.476 135.791 136.043C135.724 130.086 136.415 124.159 136.393 118.202C137.738 117.178 139.076 116.147 140.399 115.108C140.204 114.553 140.008 114.007 139.805 113.46C132.649 119.079 125.756 125.029 118.721 130.794C114.105 134.496 109.062 137.621 104.619 141.554C103.875 141.062 103.116 140.577 102.349 140.115C103.221 143.856 105.348 147.088 107.167 150.398C114.09 162.79 122.517 174.22 131.281 185.304C127.959 187.451 125.08 190.222 121.848 192.485C119.239 190.191 117.285 187.251 115.165 184.495C106.325 172.419 98.6433 159.45 92.2089 145.872C91.5624 143.94 91.6 141.747 92.254 139.83C93.3289 137.644 95.3885 136.251 97.1775 134.742C103.71 129.662 110.039 124.313 116.714 119.426C123.261 114.63 128.756 108.427 135.626 104.078C140.286 101.369 145.608 100.16 150.878 99.4674C152.419 98.944 153.712 99.6599 154.591 100.945C158.56 102.846 163.1 103.562 167.264 101.823C167.64 108.827 168.061 115.823 168.332 122.835C168.896 120.057 169.362 117.255 169.497 114.423C169.407 110.005 168.971 105.617 168.708 101.222C169.076 101.261 169.82 101.338 170.196 101.376C172.985 110.574 177.344 119.218 182.403 127.315C179.569 130.07 176.247 132.364 173.857 135.566C173.849 135.866 173.842 136.459 173.834 136.759C176.285 139.622 179.434 141.785 181.824 144.718C181.652 147.966 180.171 150.945 179.412 154.069C177.75 160.35 175.811 166.608 175.052 173.089C175.465 172.965 176.292 172.719 176.706 172.596C177.262 168.039 178.434 163.591 179.682 159.188C180.088 181.717 180.607 204.284 182.644 226.736C183.343 224.858 183.711 222.865 183.681 220.856C182.463 204.076 181.794 187.251 181.471 170.425C183.756 173.373 187.071 175.713 190.92 175.336C206.044 175.013 221.273 175.96 236.299 173.897C235.803 173.581 234.803 172.958 234.299 172.642C220.867 173.951 207.359 174.282 193.866 174.128C190.785 173.912 187.274 173.958 184.869 171.657C182.614 169.794 181.569 166.823 181.479 163.922C181.358 160.604 181.238 157.279 181.396 153.962C181.824 150.729 183.05 147.681 183.914 144.564C183.05 143.594 182.088 142.701 181.358 141.616C181.171 137.906 181.373 134.181 181.396 130.463C182.358 129.562 183.35 128.685 184.192 127.669C183.546 125.945 182.366 124.506 181.614 122.828C181.208 120.049 181.516 117.209 181.449 114.415C181.08 114.346 180.336 114.207 179.96 114.138C179.893 115.939 179.84 117.74 179.735 119.549C176.781 114.022 173.954 108.342 172.18 102.285C175.142 103.077 178.314 103.762 180.712 105.84C182.975 107.826 184.215 110.813 184.568 113.799C185.5 121.073 186.244 128.377 187.409 135.62C187.718 135.12 188.319 134.127 188.627 133.626C187.823 127.33 187.019 121.027 186.267 114.73C186.207 109.335 182.824 103.939 177.735 102.215C174.947 101.222 172.09 100.437 169.256 99.5983C169.271 98.8132 169.286 98.0358 169.286 97.2584C172.068 96.6888 174.932 96.1424 177.382 94.603C180.381 92.9097 182.591 90.1695 184.846 87.6142C187.349 87.0061 189.852 85.1896 190.176 82.3956C190.649 80.4329 189.281 78.8089 188.875 76.9924C188.95 74.3523 188.92 71.6892 189.229 69.0646C190.657 67.1788 192.686 65.9088 194.28 64.2001C195.407 61.9757 191.852 61.5139 190.521 60.5518C193.521 57.4884 194.799 52.6701 192.716 48.7062C194.761 46.5741 197.55 44.8423 198.452 41.8636C194.483 41.7866 190.619 40.6937 187.004 39.0619C186.68 39.2467 186.034 39.6084 185.718 39.7854C181.298 41.3248 179.351 47.1129 174.368 47.2207C170.963 45.7352 168.828 42.31 165.475 40.7014C163.213 39.3929 160.559 39.4468 158.041 39.2467C158.124 38.7463 158.289 37.7304 158.372 37.2224C163.453 36.4758 168.227 39.1235 171.737 42.6718C172.977 43.6647 174.315 45.5581 176.089 44.6653C178.224 43.3645 179.637 41.1709 181.584 39.6315C183.087 38.3769 184.989 37.8381 186.793 37.2224L186.665 38.6925C187.432 38.6925 188.191 38.6848 188.943 38.6848C190.912 32.4041 192.641 26.031 193.438 19.4655C191.544 19.3424 190.191 20.8202 188.695 21.7669C186.703 23.1678 184.546 24.2915 182.373 25.3845C182.899 17.0718 180.013 8.98232 175.931 1.92423C175.713 2.0012 175.277 2.15514 175.059 2.23211C172.692 8.22032 170.158 14.1393 167.783 20.1275C161.755 11.6685 152.697 6.48082 144.428 0.685027ZM195.625 43.3183C194.581 44.8192 193.265 46.0969 191.859 47.2669C190.972 46.4664 190.063 45.6736 189.153 44.9039C188.793 43.8032 188.432 42.7026 188.071 41.6019C190.604 42.1099 193.092 42.8334 195.625 43.3183ZM186.756 41.5557C186.846 42.4332 186.936 43.3106 187.019 44.1958C186.365 44.1496 185.049 44.0495 184.388 44.0034C184.568 44.4036 184.914 45.2118 185.094 45.612C186.064 45.6582 187.011 45.8121 187.943 46.0815C190.98 47.5132 192.326 50.9845 192.288 54.2326C190.709 53.6168 189.852 54.1171 189.725 55.7181C190.236 55.7489 191.243 55.8104 191.754 55.8412C190.303 59.6512 186.289 61.3214 182.509 60.4748C181.08 59.4665 179.442 58.5429 178.705 56.8418C176.548 53.3012 178.171 47.5824 182.133 46.3124L182.148 45.7813L183.862 45.6351C183.433 45.0501 182.99 44.4729 182.539 43.9033C183.666 42.6333 185.027 41.6327 186.756 41.5557ZM174.09 53.8323C174.15 58.0041 170.519 60.8904 166.904 61.891C162.912 62.145 158.425 59.9899 157.357 55.772C155.899 51.2385 159.357 46.1508 163.859 45.5043C168.768 44.1804 174.435 48.4984 174.09 53.8323ZM187.973 62.1758C187.004 64.5234 183.831 64.8082 181.772 64.0462C181.231 63.1302 180.832 62.1296 180.411 61.1598C182.772 62.476 185.403 62.2451 187.973 62.1758ZM192.551 63.4612C191.619 64.6465 190.514 65.701 189.116 66.3014C189.236 64.7312 189.386 63.1687 189.589 61.6139C190.582 62.2143 191.574 62.83 192.551 63.4612ZM141.241 75.1528C141.827 77.7082 144.639 78.2008 146.653 79.0475C147.255 81.7183 149.029 84.0659 149.382 86.729C147.638 87.7219 145.661 88.176 143.677 88.3608C144.714 85.9824 146.24 83.7503 146.443 81.0872C142.94 81.6259 139.377 82.0416 135.867 81.3027C137.393 79.0321 139.046 76.8 141.241 75.1528ZM157.711 94.6184C160.65 96.5503 164.175 97.1199 167.603 97.2892C167.332 98.3052 167.948 100.037 166.565 100.306C162.86 102.077 158.327 101.476 155.14 98.8748C154.907 97.2738 155.117 95.6344 155.335 94.0411C156.109 93.1483 156.951 94.3413 157.711 94.6184ZM179.802 132.018C179.885 134.727 179.848 137.436 179.78 140.146C178.269 138.86 176.818 137.498 175.383 136.128C176.728 134.619 178.171 133.195 179.802 132.018ZM129.755 188.744C130.597 189.452 131.349 190.268 132.108 191.061C130.417 192.662 128.59 194.286 126.283 194.848C125.012 195.702 124.328 193.986 123.644 193.262C125.711 191.815 127.478 189.837 129.755 188.744ZM132.319 193.178C133.379 197.673 134.393 202.329 133.995 206.986C132.785 209.795 129.5 210.488 127.012 211.658C124.569 212.897 121.765 211.45 120.186 209.457C119.269 206.316 119.315 202.452 121.833 200.082C123.982 201.775 123.607 205.5 120.84 206.262L120.622 207.278C121.194 207.263 122.329 207.224 122.9 207.201C122.975 207.694 123.126 208.687 123.208 209.187C123.479 208.918 124.02 208.387 124.291 208.117C124.975 204.369 124.584 200.49 124.967 196.695C127.748 196.356 130.146 194.879 132.319 193.178Z" fill="#131314"/>
<path d="M186.305 266.983C179.825 246.017 177.585 224.035 175.104 202.291C174.789 209.557 176.352 216.715 176.758 223.95C177.134 229.661 179.63 235.203 178.9 240.96C179.712 250.266 182.471 259.294 184.974 268.246C185.312 267.93 185.974 267.299 186.305 266.983Z" fill="#131314"/>
<path d="M167.791 23.1909C162.243 14.0623 153.05 8.34348 144.361 2.77859C144.767 10.7141 147.578 18.388 146.879 26.4082C141.692 28.5094 135.942 28.1785 130.62 26.793C129.59 26.8315 128.553 26.8854 127.508 26.9547L127.876 27.7167C131.311 33.0814 135.062 38.2384 138.956 43.2568C131.973 45.5274 125.298 48.6523 118.773 52.0467C125.193 55.0485 132.161 56.8264 138.663 59.7205C134.709 63.1533 129.62 64.862 125.681 68.3565C129.71 71.2274 134.138 73.4595 138.866 74.8219C139.324 74.5602 139.775 74.2908 140.226 74.0291C139.242 70.4038 141.76 67.3559 144.804 65.9935C144.714 58.335 142.767 50.4149 145.172 42.9412C148.164 32.6812 158.41 24.8457 169.016 26.1619C175.563 26.6853 181.328 30.6107 185.245 35.86C186.199 35.9139 187.146 35.9678 188.094 36.0139C189.522 31.3958 190.732 26.7007 191.476 21.9132C188.101 24.2299 184.553 26.3235 180.674 27.6166C180.953 22.7213 180.795 17.7337 179.179 13.0694C178.194 10.3986 177.562 7.38136 175.616 5.24161C172.857 11.1529 171.038 17.5182 167.791 23.1909Z" fill="#B5DDF5"/>
<path d="M183.621 36.4681C179.058 30.018 170.767 26.2619 163.062 27.9937C156.748 29.1945 151.208 33.6741 148.262 39.4776C145.593 44.4421 145.225 50.2764 145.714 55.8258C145.744 56.1106 145.811 56.6879 145.841 56.9727C146.225 59.7513 146.105 62.5837 146.571 65.3546C147.51 65.5471 148.442 65.7241 149.374 65.8703C149.292 66.1628 149.111 66.7401 149.021 67.0326C146.879 67.2943 144.368 67.3712 142.865 69.2262C141.181 70.8503 141.271 73.7443 142.887 75.3837C144.736 77.4157 147.66 77.2618 150.141 77.6082C149.698 78.0392 148.811 78.9012 148.367 79.3323C149.502 82.665 150.9 85.967 153.11 88.7148C156.696 93.41 162.596 96.05 168.384 95.696C173.691 95.4727 178.675 92.6172 182.027 88.4685C182.05 88.0375 182.103 87.1678 182.133 86.7367L182.012 86.375C175.646 84.8202 168.903 87.5141 162.461 86.2056C159.823 85.5437 158.62 81.7876 160.612 79.7864C164.1 76.5075 169.091 75.8456 173.624 75.5685C177.983 75.4145 182.937 75.3299 186.41 78.4856C187.778 79.5786 187.951 81.5028 187.477 83.1038C186.402 84.6662 184.463 85.1204 182.884 85.9593C183.072 86.0748 183.441 86.3211 183.629 86.4442C185.966 86.0594 188.778 84.3815 188.56 81.5952C188.853 78.578 185.643 77.1925 184.147 75.0759C184.951 75.2221 186.568 75.4992 187.379 75.6377C187.59 72.1895 187.665 68.7336 187.763 65.2854C186.094 65.6394 184.41 65.9165 182.711 66.132C182.982 68.0947 182.824 70.0652 182.215 71.9432C180.479 72.0587 178.495 72.4204 177.059 71.1196C174.774 69.5649 173.879 66.794 173.158 64.2309C173.526 64.1693 174.27 64.0385 174.638 63.9769C175.473 66.5785 176.6 70.0344 179.622 70.5655C181.659 71.2428 181.734 68.4026 181.08 67.1326C179.727 63.6998 178.803 60.0899 177.096 56.8187C175.631 54.1941 176.465 51.1538 177.224 48.4522C176.36 48.583 175.488 48.7062 174.616 48.837C175.375 51.1769 176.202 53.7015 175.353 56.1491C173.849 61.637 167.49 64.7081 162.303 62.8685C156.726 61.2984 153.479 53.9324 156.711 48.8062C158.77 44.9578 163.168 43.7955 167.122 43.403C164.543 41.7635 161.649 40.786 158.582 40.8861C155.906 40.7475 155.869 36.4758 158.342 35.8446C165.032 34.3129 170.632 39.3082 175.165 43.6108C177.863 41.0785 180.329 38.2153 183.621 36.4681ZM161.552 65.8319C164.152 66.4553 166.625 65.1853 169.151 64.7928C168.136 67.4867 164.664 67.5329 162.288 67.5252C159.477 67.2019 155.395 65.6856 155.696 62.145C157.53 63.5536 159.116 65.6009 161.552 65.8319ZM164.025 75.353C163.1 78.0315 159.086 78.3163 158.793 81.472C158.094 84.1352 160.191 86.1364 162.228 87.2832C164.243 87.3371 166.265 87.3525 168.279 87.4064L167.76 88.6763C165.355 89.0689 162.739 89.1074 160.507 87.9451C158.207 86.5212 156.575 83.5348 157.44 80.7793C158.289 77.8083 161.146 75.8456 164.025 75.353Z" fill="#E0D2CA"/>
<path d="M179.246 77.1771C178.818 77.1771 177.976 77.1617 177.547 77.1617C177.593 77.5928 177.675 78.4548 177.713 78.8781C178.096 78.8858 178.855 78.9012 179.231 78.9089C179.239 78.4779 179.239 77.6158 179.246 77.1771Z" fill="#E0D2CA"/>
<path d="M169.429 83.5425C168.587 83.0114 167.873 83.1422 167.302 83.9504C166.971 85.1434 168.7 85.7284 169.452 85.028C169.444 84.6585 169.437 83.9196 169.429 83.5425Z" fill="#E0D2CA"/>
<path d="M171.737 42.6718C168.227 39.1235 163.453 36.4758 158.372 37.2224C158.289 37.7304 158.124 38.7464 158.041 39.2467C160.559 39.4468 163.213 39.3929 165.475 40.7014C168.828 42.31 170.963 45.7352 174.368 47.2207C179.351 47.1129 181.298 41.3248 185.718 39.7854C186.079 38.9311 186.44 38.0767 186.793 37.2224C184.989 37.8381 183.087 38.3769 181.584 39.6315C179.637 41.1709 178.224 43.3645 176.089 44.6653C174.315 45.5581 172.977 43.6647 171.737 42.6718Z" fill="#CEE5EC"/>
<path d="M195.625 43.3183C193.092 42.8334 190.604 42.1099 188.071 41.6019C188.432 42.7026 188.793 43.8033 189.153 44.9039C190.063 45.6736 190.972 46.4664 191.859 47.2669C193.265 46.0969 194.581 44.8192 195.625 43.3183Z" fill="#C0DEEA"/>
<path d="M186.756 41.5557C185.027 41.6327 183.666 42.6333 182.539 43.9033C182.99 44.4729 183.433 45.0501 183.862 45.6351L182.148 45.7813L182.133 46.3124C184.064 46.12 186.004 46.0584 187.943 46.0815C187.011 45.8121 186.064 45.6582 185.094 45.612C184.914 45.2118 184.568 44.4036 184.388 44.0033C185.049 44.0495 186.365 44.1496 187.019 44.1958C186.936 43.3106 186.846 42.4332 186.756 41.5557Z" fill="#DAD7D2"/>
<path d="M145.172 42.9412C142.767 50.4149 144.714 58.335 144.804 65.9935L145.187 65.7318C145.263 62.807 144.391 59.6897 145.841 56.9727C145.811 56.6879 145.744 56.1106 145.714 55.8258C143.729 51.7926 144.879 47.213 145.172 42.9412Z" fill="#4D4D4D"/>
<path d="M169.497 114.423C169.362 117.255 168.895 120.057 168.332 122.835C168.362 124.305 168.452 125.768 168.542 127.23C168.753 126.691 169.166 125.606 169.377 125.067C169.97 127.777 170.279 130.54 170.361 133.311C170.264 127.007 170.158 120.696 169.497 114.423Z" fill="#4D4D4D"/>
<path d="M135.791 136.043C135.543 139.476 133.852 142.755 134.453 146.242C135.13 151.376 133.86 156.479 133.762 161.612C133.236 164.991 133.814 168.655 132.251 171.78C132.07 169.663 132.033 167.539 132.168 165.422C131.943 167.478 131.672 169.54 131.507 171.611C132.131 172.604 132.589 173.674 132.89 174.82C134.265 161.928 135.491 149.013 135.791 136.043Z" fill="#4D4D4D"/>
<path d="M180.434 359.385C178.066 358.246 176.495 355.991 174.278 354.644C171.353 356.653 167.896 355.829 164.754 354.921C163.581 359.354 162.626 363.973 163.115 368.591C166.678 370.192 170.669 370.161 174.473 370.6C181.516 370.907 188.575 370.892 195.618 370.592C191.799 365.35 185.944 362.364 180.434 359.385Z" fill="#4D4D4D"/>
<path d="M143.511 356.876C140.264 357.984 136.212 358.408 133.739 355.452C131.627 360.163 130.657 365.473 131.424 370.63C139.625 374.571 148.788 375.533 157.741 375.172C154.117 368.283 148.901 362.379 143.511 356.876Z" fill="#4D4D4D"/>
<path d="M174.09 53.8324C174.435 48.4984 168.768 44.1804 163.859 45.5043C159.357 46.1508 155.899 51.2385 157.357 55.772C158.425 59.9899 162.912 62.145 166.904 61.891C170.519 60.8904 174.15 58.0041 174.09 53.8324ZM172.902 55.0485C173.3 56.3185 172.879 56.7649 171.654 56.38C171.293 55.1023 171.707 54.6636 172.902 55.0485Z" fill="#FDFDFE"/>
<path d="M187.943 46.0815C186.004 46.0584 184.065 46.12 182.133 46.3124C178.171 47.5824 176.548 53.3013 178.705 56.8418C179.442 58.5429 181.08 59.4665 182.509 60.4748C186.289 61.3215 190.303 59.6512 191.754 55.8412C191.243 55.8105 190.236 55.7489 189.725 55.7181C189.852 54.1171 190.709 53.6168 192.288 54.2326C192.326 50.9845 190.98 47.5132 187.943 46.0815Z" fill="#FDFDFD"/>
<path d="M170.196 101.376C169.82 101.338 169.076 101.261 168.708 101.222C168.971 105.617 169.407 110.005 169.497 114.423C170.158 120.696 170.264 127.007 170.361 133.311C171.459 150.844 172.308 168.393 173.676 185.912C174.045 191.377 174.631 196.826 175.104 202.291C177.585 224.035 179.825 246.017 186.305 266.983C187.718 271.371 189.071 275.897 191.672 279.73C189.537 272.225 187.492 264.667 186.47 256.908C184.553 246.948 183.463 236.842 182.644 226.736C180.607 204.284 180.088 181.717 179.682 159.188C178.434 163.591 177.262 168.039 176.706 172.596C176.292 172.719 175.465 172.965 175.052 173.089C175.811 166.608 177.75 160.35 179.412 154.069C180.171 150.945 181.652 147.966 181.825 144.718C179.434 141.785 176.285 139.622 173.834 136.759C173.842 136.459 173.849 135.866 173.857 135.566C176.247 132.364 179.569 130.07 182.403 127.315C177.344 119.218 172.985 110.574 170.196 101.376Z" fill="#FDFDFD"/>
<path d="M63.3067 366.282C59.4806 364.604 55.7823 362.664 52.3171 360.293C50.2274 361.202 47.9498 361.34 45.7022 361.194C45.2738 361.217 44.4093 361.263 43.9809 361.286C43.5599 363.996 43.7629 366.751 43.8005 369.491C51.0166 369.714 58.2629 370.138 65.464 369.46C65.013 368.237 64.7048 366.705 63.3067 366.282Z" fill="#FDFDFD"/>
<path d="M172.902 55.0485C171.707 54.6636 171.293 55.1023 171.654 56.38C172.879 56.7649 173.3 56.3185 172.902 55.0485Z" fill="#080707"/>
<path d="M164.025 75.353C161.146 75.8456 158.289 77.8083 157.44 80.7793C156.575 83.5348 158.207 86.5212 160.507 87.9452C162.739 89.1074 165.355 89.0689 167.76 88.6764L168.279 87.4064C166.265 87.3525 164.243 87.3371 162.228 87.2832C160.191 86.1364 158.094 84.1352 158.793 81.472C159.086 78.3163 163.1 78.0315 164.025 75.353Z" fill="#080707"/>
<path d="M188.627 133.626C188.319 134.127 187.718 135.12 187.409 135.62C188.65 143.994 189.92 152.407 192.243 160.566C191.739 160.743 190.732 161.112 190.236 161.297C190.303 161.636 190.446 162.313 190.514 162.652C198.422 162.775 206.329 162.859 214.237 162.644C221.791 162.059 229.331 161.266 236.795 159.896C236.164 160.797 235.472 161.666 234.968 162.659C233.405 165.338 235.044 168.909 237.524 170.341C240.847 171.403 244.101 169.825 247.236 168.863C243.861 172.304 238.644 171.719 234.299 172.642C234.803 172.958 235.803 173.581 236.299 173.897C239.794 173.458 243.297 172.942 246.642 171.788C247.627 170.656 248.521 169.448 249.235 168.124C249.679 168.07 250.558 167.955 250.994 167.893C252.092 168.748 253.189 170.372 254.753 169.617C256.955 168.44 259.917 169.086 261.533 166.877C263.54 167.631 265.554 166.893 266.795 165.176C268.366 165.307 269.561 164.453 270.696 163.491C275.695 163.237 280.671 162.652 285.677 162.559C289.646 161.759 293.72 162.29 297.681 161.505C303.965 161.282 310.212 160.55 316.488 160.235C318.323 157.61 320.142 154.97 322.066 152.415C321.976 148.997 321.562 145.603 321.307 142.201C314.489 142.278 307.686 142.724 300.861 142.724C300.771 142.894 300.575 143.225 300.478 143.394C300.132 144.441 299.763 145.487 299.365 146.534C299.237 146.85 299.087 147.165 298.922 147.473C294.893 149.274 289.638 149.267 286.196 146.196C285.933 145.103 285.895 143.979 285.842 142.87C283.52 142.901 281.197 142.932 278.874 143.086C275.725 143.548 272.289 142.801 269.396 144.464C267.764 145.426 266.269 146.642 264.555 147.473C264.299 148.074 264.036 148.674 263.773 149.274C264.938 149.374 265.66 149.936 265.923 150.952C265.419 151.183 264.412 151.66 263.908 151.899C261.773 152.599 258.549 151.984 257.977 154.901C258.526 154.87 259.624 154.801 260.172 154.762C260.849 154.393 261.518 154.023 262.179 153.654C263.848 154.308 265.675 155.517 267.486 154.608C269.433 153.946 271.109 151.93 270.764 149.752C270.237 148.566 269.26 147.681 268.463 146.696C273.109 143.771 278.754 144.548 283.948 144.541C283.617 145.403 283.294 146.265 282.956 147.135C284.752 150.906 289.029 151.922 292.735 152.407C294.389 152.014 296.065 151.76 297.764 151.722C299.583 151.206 301.605 150.444 302.439 148.551C303.003 146.865 301.613 145.557 300.936 144.194C307.092 144.171 313.241 144.102 319.375 143.648C318.308 146.411 316.909 149.02 315.504 151.622C309.971 151.961 304.431 152.084 298.899 152.361C299.2 152.53 299.794 152.884 300.094 153.061C301.319 153.338 302.56 153.531 303.808 153.623C307.092 153.446 310.377 153.338 313.655 153.354C313.993 153.361 314.677 153.361 315.015 153.369C315.075 155.155 315.15 156.948 315.226 158.742C309.49 158.857 303.793 159.58 298.057 159.865C289.668 160.758 281.235 161.174 272.838 161.897C269.343 162.282 267.824 156.571 271.275 155.301C279.626 154.477 288.045 154.331 296.434 154.069C294.87 153.623 293.337 153.092 291.781 152.63C285.248 153.061 278.709 153.361 272.177 153.638C269.786 153.6 268.787 156.04 267.464 157.618C265.359 157.017 263.39 155.817 261.165 155.724C260.646 156.586 260.413 157.541 260.45 158.588C258.864 158.234 257.263 157.764 255.625 157.879C254.339 160.142 251.896 161.004 249.544 161.597C249.664 163.136 249.822 164.684 250.032 166.215C246.657 167.27 243.395 168.971 239.839 169.248C236.036 169.394 234.48 163.814 237.472 161.605C239.884 160.312 242.688 160.035 245.319 159.419C244.695 158.795 244.056 158.187 243.402 157.587C242.275 156.925 240.937 157.518 239.749 157.656C224.685 160.766 209.238 161.774 193.896 161.135C193.385 158.996 192.822 156.871 192.258 154.755C190.95 147.727 189.642 140.7 188.627 133.626ZM289.398 149.213C293.547 150.36 298.208 149.89 301.515 146.888C301.079 148.451 299.891 149.598 298.388 150.09C294.028 151.568 289.052 150.906 285.226 148.304C285.158 147.796 285.023 146.78 284.955 146.273C286.151 147.635 287.549 148.951 289.398 149.213ZM269.448 149.944C269.478 151.891 267.727 153.261 265.99 153.585C267.14 151.876 267.622 149.952 266.81 147.981C267.749 148.535 268.839 148.959 269.448 149.944ZM268.742 163.721C266.269 163.652 265.036 161.166 263.375 159.673C263.074 159.134 261.36 157.533 262.908 157.533C265.554 158.495 269.892 159.988 268.742 163.721ZM265.209 164.029C265.276 165.438 263.457 166.007 262.412 165.392C259.684 164.276 257.805 161.751 256.128 159.388C259.533 159.619 263.382 160.843 265.209 164.029ZM260.075 166.354C256.745 168.37 254.715 164.283 253.467 161.805C256.121 162.49 258.278 164.322 260.075 166.354ZM252.625 163.644C253.482 165.161 254.475 166.592 255.497 167.986C255.001 168.055 254.001 168.178 253.497 168.24C252.137 166.839 251.272 165.053 251.077 163.075C251.468 163.213 252.242 163.506 252.625 163.644Z" fill="#080707"/>
<path d="M64.1109 364.919C60.4502 363.403 57.0602 361.348 53.6024 359.424C53.2792 359.639 52.6403 360.078 52.317 360.293C55.7823 362.664 59.4806 364.604 63.3066 366.282C64.7048 366.705 65.013 368.237 65.464 369.46C58.2628 370.138 51.0166 369.714 43.8005 369.491C43.7629 366.751 43.5599 363.996 43.9809 361.286C44.4093 361.263 45.2738 361.217 45.7022 361.194C45.7849 360.817 45.9353 360.047 46.0104 359.662H45.5745C45.0182 359.662 44.4695 359.67 43.9057 359.693L43.0488 359.739C41.6732 363.187 42.252 367.005 42.455 370.615C49.0397 371.654 55.7522 371.115 62.3896 371.238C63.8328 371.115 66.5765 371.454 66.5915 369.33C66.9373 367.467 65.8473 365.558 64.1109 364.919Z" fill="#080707"/>
<path d="M187.973 62.1758C185.403 62.2451 182.772 62.476 180.411 61.1598C180.832 62.1296 181.231 63.1302 181.772 64.0462C183.831 64.8082 187.004 64.5234 187.973 62.1758Z" fill="#F3EEE9"/>
<path d="M192.551 63.4612C191.574 62.8301 190.582 62.2143 189.589 61.614C189.386 63.1687 189.236 64.7312 189.116 66.3014C190.514 65.701 191.619 64.6465 192.551 63.4612Z" fill="#CECFCF"/>
<path d="M283.948 144.541C278.754 144.548 273.109 143.771 268.463 146.696C269.26 147.681 270.237 148.566 270.764 149.752C271.109 151.93 269.433 153.946 267.486 154.608C265.675 155.517 263.848 154.308 262.179 153.654C261.518 154.023 260.849 154.393 260.172 154.762C255.685 157.579 250.401 158.395 245.319 159.419C242.688 160.035 239.884 160.312 237.472 161.605C234.48 163.814 236.036 169.394 239.839 169.248C243.395 168.971 246.657 167.27 250.032 166.215C249.822 164.684 249.664 163.136 249.544 161.597C251.896 161.004 254.339 160.142 255.625 157.879C257.263 157.764 258.864 158.234 260.451 158.588C260.413 157.541 260.646 156.586 261.165 155.724C263.39 155.817 265.359 157.017 267.464 157.618C268.787 156.04 269.786 153.6 272.177 153.638C278.709 153.361 285.249 153.061 291.781 152.63L292.735 152.407C289.029 151.922 284.752 150.906 282.956 147.135C283.294 146.265 283.617 145.403 283.948 144.541ZM281.422 145.818C281.43 147.881 281.46 149.952 281.49 152.022C278.867 152.13 276.243 152.13 273.62 152.076C273.8 149.882 274.53 147.804 275.319 145.78C277.356 145.757 279.393 145.749 281.422 145.818Z" fill="#CECFCF"/>
<path d="M161.552 65.8318C159.116 65.6009 157.53 63.5535 155.696 62.145C155.395 65.6856 159.477 67.2019 162.288 67.5252C164.664 67.5329 168.136 67.4867 169.151 64.7927C166.625 65.1853 164.152 66.4553 161.552 65.8318Z" fill="#110D06"/>
<path d="M186.41 78.4856C182.937 75.3299 177.983 75.4145 173.624 75.5685C169.091 75.8456 164.1 76.5075 160.612 79.7864C158.62 81.7876 159.823 85.5437 162.461 86.2056C168.903 87.5141 175.646 84.8202 182.012 86.375L182.133 86.7367C182.636 86.629 183.14 86.5366 183.629 86.4442C183.441 86.3211 183.072 86.0748 182.884 85.9593C184.463 85.1204 186.402 84.6662 187.477 83.1038C187.951 81.5028 187.778 79.5786 186.41 78.4856ZM182.358 78.9397C181.419 79.9095 179.848 78.3009 180.802 77.3465C181.742 76.4228 183.313 77.9776 182.358 78.9397ZM179.246 77.1771C179.239 77.6158 179.239 78.4779 179.231 78.9089C178.855 78.9012 178.096 78.8858 177.713 78.8781C177.675 78.4548 177.593 77.5928 177.547 77.1617C177.976 77.1617 178.818 77.1771 179.246 77.1771ZM175.638 77.154C175.586 77.5928 175.488 78.4702 175.435 78.9089C175.104 78.8704 174.435 78.8012 174.105 78.7627C174.075 78.3624 174.015 77.562 173.984 77.1617C174.398 77.1617 175.225 77.1617 175.638 77.154ZM172.015 78.9859C171.617 79.0013 170.82 79.0244 170.414 79.0398C170.414 78.5934 170.421 77.6928 170.421 77.2464C171.534 76.9462 172.864 77.7159 172.015 78.9859ZM168.896 77.8852C168.865 78.3394 168.79 79.2399 168.76 79.694C168.399 79.6478 167.685 79.5632 167.332 79.517C167.294 79.1475 167.227 78.4086 167.189 78.0392C167.618 78.0007 168.467 77.9237 168.896 77.8852ZM165.754 78.6011C166.573 79.6401 164.904 81.2257 164.077 80.0404C163.318 79.0013 164.949 77.3926 165.754 78.6011ZM185.418 79.2784C186.342 80.8409 186.102 82.3802 184.846 83.6502C184.162 82.819 183.553 81.903 182.689 81.2565C180.667 80.9255 178.637 81.3796 176.653 81.803C172.849 81.8261 169.038 81.8569 165.242 82.1262C163.829 82.1878 163.123 83.6348 162.115 84.443C161.168 83.2115 161.093 81.7337 161.717 80.3406C162.439 80.7947 163.153 81.2565 163.897 81.649C170.128 81.1333 176.367 80.5792 182.614 80.3406C183.546 79.9711 184.478 79.617 185.418 79.2784ZM182.486 83.0576C183.313 84.1736 181.396 85.4051 180.682 84.2814C179.818 83.1345 181.749 81.9338 182.486 83.0576ZM179.366 83.1961C180.201 84.2814 178.412 85.6591 177.653 84.4892C176.773 83.3808 178.615 81.98 179.366 83.1961ZM175.841 83.4039C176.901 84.5662 174.744 85.6976 174.03 84.5662C173.15 83.427 175.119 82.3726 175.841 83.4039ZM172.286 83.5271C172.654 84.7817 172.226 85.1819 170.978 84.7355C170.639 83.504 171.068 83.0961 172.286 83.5271ZM169.429 83.5425C169.437 83.9196 169.444 84.6585 169.452 85.028C168.7 85.7284 166.971 85.1434 167.302 83.9504C167.873 83.1422 168.587 83.0114 169.429 83.5425ZM166.084 83.8196C166.475 85.0742 166.062 85.5129 164.852 85.1357C164.476 83.8735 164.889 83.427 166.084 83.8196Z" fill="#110D06"/>
<path d="M145.353 202.691C139.58 231.046 131.108 259.71 113.97 283.201L114.466 284.794C123.907 272.91 130.304 258.848 135.641 244.639C136.603 256.269 137.137 267.946 137.385 279.622C133.627 280.037 129.906 280.699 126.223 281.569C127.147 281.823 128.079 282.069 129.004 282.293C131.935 282.431 134.837 280.823 137.693 281.461C138.137 289.266 136.708 297.001 136.009 304.752C135.04 316.89 133.191 328.967 132.589 341.128C133.221 341.228 134.484 341.42 135.115 341.521C135.213 345.169 134.889 348.81 134.694 352.45C129.876 356.53 129.485 363.488 129.575 369.414C129.41 370.769 130.56 371.739 131.575 372.347C136.197 374.879 141.452 375.726 146.571 376.526C150.637 376.796 154.726 376.911 158.785 376.703C160.033 376.026 159.868 374.502 159.018 373.578C155.14 367.883 151.171 362.164 146.187 357.407C145.398 356.53 144.316 355.86 143.752 354.805C143.834 350.857 143.88 346.893 144.21 342.975C144.496 342.66 145.075 342.044 145.368 341.728C147.149 328.674 148.247 315.513 149.758 302.42C150.397 295.046 151.75 287.704 151.336 280.276C156.59 280.299 161.845 280.399 167.092 280.684C168.693 282.585 167.655 285.495 167.978 287.827C167.137 304.498 164.987 321.124 164.724 337.841C164.28 339.673 166.445 340.643 166.069 342.46C166.062 344.761 165.806 347.055 165.588 349.348C165.566 351.688 163.912 353.474 162.935 355.467C161.988 359.277 161.364 363.203 161.334 367.151C161.221 368.544 161.845 370.276 163.333 370.584C166.377 371.439 169.55 371.716 172.677 372.047C173.128 371.685 174.022 370.961 174.473 370.6C170.67 370.161 166.678 370.192 163.115 368.591C162.627 363.973 163.581 359.354 164.754 354.921C167.896 355.829 171.354 356.653 174.278 354.644C173.842 354.544 172.97 354.359 172.534 354.259C170.677 354.382 168.813 354.382 166.964 354.09C167.272 349.818 167.137 345.5 167.828 341.267L168.024 340.358C167.482 339.65 166.821 339.05 166.167 338.449C166.783 322.047 168.302 305.699 169.489 289.335C169.76 281.3 168.001 273.395 167.242 265.429C164.791 247.295 162.762 229.099 160.356 210.957C156.117 211.45 151.877 210.957 147.676 210.419C147.916 227.498 148.735 244.562 149.149 261.634C149.262 272.656 150.479 283.74 149.036 294.723C147.367 310.094 145.638 325.449 144.113 340.836C140.7 340.912 137.265 340.705 133.965 339.743C135.333 327.72 136.445 315.667 137.738 303.629C138.437 295.57 139.798 287.496 139.001 279.391C138.67 269.369 138.099 259.363 137.543 249.35C137.37 245.617 136.513 241.722 137.798 238.097C141.474 227.083 144.376 215.783 146.495 204.346C146.21 203.93 145.638 203.107 145.353 202.691ZM159.011 212.743C159.079 213.567 159.146 214.406 159.214 215.245C160.687 223.434 161.311 231.77 162.491 240.006C162.777 241.945 162.92 243.9 162.905 245.871C164.115 253.121 164.912 260.503 165.784 267.822L165.911 267.684C166.31 270.493 166.648 273.318 167.039 276.143C167.122 276.912 167.279 278.452 167.362 279.229C164.806 278.96 162.236 278.868 159.695 278.506C156.914 278.798 154.11 278.437 151.321 278.614C151.156 275.612 150.803 272.602 151.103 269.6C150.607 262.673 150.72 255.715 150.457 248.773C150.299 247.78 150.239 246.779 150.276 245.778C149.901 234.541 149.66 223.303 149.239 212.066C152.419 212.997 155.749 212.851 159.011 212.743ZM142.632 342.721C142.564 347.116 142.354 351.519 141.745 355.875C139.926 356.037 138.099 356.037 136.273 355.875C136.265 351.249 136.257 346.547 137.129 341.998C138.971 342.19 140.805 342.436 142.632 342.721ZM143.511 356.876C148.901 362.379 154.117 368.283 157.741 375.172C148.788 375.533 139.625 374.571 131.424 370.63C130.657 365.473 131.627 360.163 133.739 355.452C136.212 358.408 140.264 357.984 143.511 356.876Z" fill="#110D06"/>
<path d="M141.241 75.1528C139.046 76.8 137.392 79.0321 135.867 81.3027C139.377 82.0416 142.94 81.6259 146.443 81.0872C146.24 83.7503 144.714 85.9824 143.677 88.3608C145.661 88.176 147.638 87.7219 149.382 86.729C149.029 84.0659 147.255 81.7183 146.653 79.0475C144.639 78.2008 141.827 77.7082 141.241 75.1528Z" fill="#C0E1ED"/>
<path d="M182.358 78.9397C183.313 77.9776 181.742 76.4228 180.802 77.3465C179.848 78.3009 181.419 79.9095 182.358 78.9397Z" fill="#C9DDC6"/>
<path d="M157.064 213.921C154.779 213.313 152.381 213.628 150.051 213.651C150.118 215.876 150.284 218.093 150.517 220.309C151.118 225.866 150.336 231.485 151.013 237.042C151.502 239.983 150.787 242.9 150.276 245.778C150.239 246.779 150.299 247.78 150.457 248.773C150.825 248.265 151.193 247.749 151.547 247.241C151.193 254.691 152.035 262.181 151.103 269.6C150.802 272.602 151.156 275.612 151.321 278.614C154.11 278.437 156.914 278.798 159.695 278.506C161.597 278.167 163.506 277.882 165.415 277.675C165.964 277.159 166.505 276.651 167.039 276.143C166.648 273.318 166.31 270.493 165.911 267.684L165.784 267.822C165.603 268.007 165.257 268.384 165.077 268.569C164.175 261.519 162.957 254.514 162.213 247.441C161.529 243.746 161.003 240.006 161.093 236.227C161.424 239.49 161.815 242.769 162.905 245.871C162.92 243.9 162.777 241.945 162.491 240.006C161.311 231.77 160.687 223.434 159.214 215.245C158.913 215.745 158.62 216.261 158.312 216.776C157.891 215.845 158.079 214.413 157.064 213.921Z" fill="#C9DDC6"/>
<path d="M175.638 77.1541C175.225 77.1617 174.398 77.1618 173.984 77.1618C174.015 77.562 174.075 78.3625 174.105 78.7627C174.436 78.8012 175.104 78.8705 175.435 78.909C175.488 78.4702 175.586 77.5928 175.638 77.1541Z" fill="#FCFCFC"/>
<path d="M172.286 83.5271C171.068 83.0961 170.639 83.504 170.978 84.7355C172.226 85.1819 172.654 84.7817 172.286 83.5271Z" fill="#FCFCFC"/>
<path d="M255.55 154.054C255.099 153.315 254.64 152.592 254.151 151.876C252.911 153.423 251.618 154.932 250.461 156.556C252.949 155.886 255.414 155.139 257.865 154.362C257.286 154.285 256.128 154.131 255.55 154.054Z" fill="#FCFCFC"/>
<path d="M260.075 166.354C258.278 164.322 256.121 162.49 253.467 161.805C254.715 164.283 256.745 168.37 260.075 166.354Z" fill="#FCFCFC"/>
<path d="M252.625 163.644C252.242 163.506 251.468 163.213 251.077 163.075C251.272 165.053 252.137 166.839 253.497 168.24C254.001 168.178 255.001 168.055 255.497 167.986C254.475 166.592 253.482 165.161 252.625 163.644Z" fill="#FCFCFC"/>
<path d="M29.3381 362.895C26.865 363.303 24.3695 363.164 21.8964 362.772C19.2881 365.62 17.5968 369.214 15.9581 372.716C15.0486 374.425 15.214 376.403 15.3342 378.289C16.8677 378.635 18.4988 379.058 19.9495 378.189C23.3847 376.264 26.414 373.624 29.2854 370.915C30.7362 369.507 30.2626 367.351 30.3228 365.527C29.992 364.65 29.6613 363.772 29.3381 362.895Z" fill="#FCFCFC"/>
<path d="M172.015 78.9859C172.864 77.7159 171.534 76.9462 170.421 77.2464C170.421 77.6928 170.414 78.5934 170.414 79.0398C170.82 79.0244 171.617 79.0013 172.015 78.9859Z" fill="#CCCCCC"/>
<path d="M165.753 78.6011C164.949 77.3927 163.318 79.0013 164.077 80.0404C164.904 81.2257 166.573 79.6402 165.753 78.6011Z" fill="#CCCCCC"/>
<path d="M179.366 83.1961C178.615 81.98 176.773 83.3809 177.653 84.4892C178.412 85.6591 180.201 84.2814 179.366 83.1961Z" fill="#CCCCCC"/>
<path d="M166.084 83.8196C164.889 83.427 164.476 83.8735 164.851 85.1358C166.062 85.5129 166.475 85.0742 166.084 83.8196Z" fill="#CCCCCC"/>
<path d="M289.398 149.213C287.549 148.951 286.15 147.635 284.955 146.272C285.023 146.78 285.158 147.796 285.226 148.304C289.052 150.906 294.028 151.568 298.388 150.09C299.891 149.598 301.079 148.451 301.515 146.888C298.207 149.89 293.547 150.36 289.398 149.213Z" fill="#CCCCCC"/>
<path d="M313.655 153.354C310.377 153.338 307.092 153.446 303.807 153.623C301.357 153.823 298.899 154.108 296.433 154.069C288.045 154.331 279.626 154.477 271.275 155.301C267.824 156.571 269.343 162.282 272.838 161.897C281.234 161.174 289.668 160.758 298.057 159.865C297.771 159.619 297.208 159.134 296.922 158.888C302.845 159.049 308.686 157.749 314.617 157.926C314.331 156.394 314.008 154.87 313.655 153.354Z" fill="#CCCCCC"/>
<path d="M168.896 77.8852C168.467 77.9237 167.618 78.0007 167.189 78.0392C167.227 78.4086 167.294 79.1475 167.332 79.517C167.685 79.5632 168.399 79.6478 168.76 79.694C168.79 79.2399 168.865 78.3394 168.896 77.8852Z" fill="#E1D1CA"/>
<path d="M132.319 193.178C130.146 194.879 127.748 196.356 124.967 196.695C124.584 200.49 124.975 204.369 124.291 208.117C124.02 208.387 123.479 208.918 123.208 209.187C123.126 208.687 122.975 207.694 122.9 207.201C122.329 207.224 121.194 207.263 120.622 207.278C120.472 208.002 120.329 208.725 120.186 209.457C121.765 211.45 124.569 212.897 127.012 211.658C129.5 210.488 132.785 209.795 133.995 206.986C134.393 202.329 133.379 197.673 132.319 193.178Z" fill="#E1D1CA"/>
<path d="M185.418 79.2784C184.478 79.6171 183.546 79.9711 182.614 80.3406C176.367 80.5792 170.128 81.1334 163.897 81.6491C163.153 81.2565 162.439 80.7947 161.717 80.3406C161.093 81.7337 161.168 83.2115 162.115 84.4431C163.123 83.6349 163.829 82.1878 165.242 82.1263C169.038 81.8569 172.849 81.8261 176.653 81.803C178.637 81.3797 180.667 80.9255 182.689 81.2565C183.553 81.9031 184.162 82.819 184.846 83.6503C186.102 82.3803 186.342 80.8409 185.418 79.2784Z" fill="#996334"/>
<path d="M42.0716 109.851C38.8394 109.212 35.5921 107.965 32.2546 108.627C28.624 109.096 25.6323 111.428 22.2798 112.729C18.9273 114.184 14.9434 114.399 12.2148 117.124C9.92215 119.433 8.35863 122.381 6.0209 124.667C2.04449 128.97 1.96933 135.235 1.70625 140.792C1.72879 143.925 0.834286 146.95 0.571198 150.052C0.623814 152.307 2.57821 153.739 3.6907 155.478C5.0738 157.171 5.3444 159.434 6.32159 161.343C7.0883 162.328 8.32858 162.659 9.39597 163.144C9.89959 158.726 8.31355 154.454 8.55408 150.044C8.75704 140.461 13.5227 131.14 21.1598 125.583C29.1577 119.395 40.2901 118.032 49.6035 121.673C52.8733 122.735 55.4215 125.229 58.6086 126.453C58.4132 123.921 58.4508 121.019 56.6618 119.018C54.4819 116.616 51.9863 114.523 49.4531 112.529C47.3559 110.805 44.6273 110.405 42.0716 109.851Z" fill="#996334"/>
<path d="M163.777 197.211C161.83 196.734 159.793 196.703 157.853 197.234C159.83 197.257 161.807 197.249 163.777 197.211Z" fill="#996334"/>
<path d="M182.486 83.0576C181.749 81.9338 179.818 83.1346 180.682 84.2814C181.396 85.4052 183.313 84.1736 182.486 83.0576Z" fill="#FBFCFC"/>
<path d="M315.015 153.369C314.677 153.361 313.993 153.361 313.655 153.354C314.008 154.87 314.331 156.394 314.617 157.926C308.686 157.749 302.845 159.049 296.922 158.888C297.208 159.134 297.772 159.619 298.057 159.865C303.793 159.58 309.49 158.857 315.226 158.742C315.15 156.948 315.075 155.155 315.015 153.369Z" fill="#FBFCFC"/>
<path d="M159.011 212.743C155.749 212.851 152.419 212.997 149.239 212.066C149.66 223.303 149.901 234.541 150.276 245.778C150.788 242.9 151.502 239.983 151.013 237.042C150.337 231.485 151.118 225.866 150.517 220.309C150.284 218.093 150.119 215.876 150.051 213.651C152.381 213.628 154.779 213.313 157.064 213.921C158.079 214.413 157.891 215.845 158.312 216.776C158.62 216.261 158.913 215.745 159.214 215.245C159.146 214.406 159.079 213.567 159.011 212.743Z" fill="#FBFCFC"/>
<path d="M161.093 236.227C161.003 240.006 161.529 243.746 162.213 247.441C162.957 254.514 164.175 261.519 165.077 268.569C165.257 268.384 165.603 268.007 165.784 267.822C164.912 260.503 164.115 253.121 162.905 245.871C161.815 242.769 161.424 239.49 161.093 236.227Z" fill="#FBFCFC"/>
<path d="M182.599 280.153C182.486 277.605 182.381 275.058 182.23 272.518C182.103 275.142 182.103 277.775 182.178 280.407C183.659 281.023 185.124 281.669 186.613 282.246C187.507 282.554 188.409 282.824 189.296 283.109C190.304 283.416 191.303 283.709 192.303 284.024C191.634 282.978 190.965 281.931 190.356 280.846C189.935 281.115 189.101 281.662 188.687 281.931C186.658 281.338 184.628 280.746 182.599 280.153Z" fill="#FBFCFC"/>
<path d="M142.632 342.721C140.805 342.436 138.971 342.19 137.129 341.998C136.258 346.547 136.265 351.249 136.273 355.875C138.099 356.037 139.926 356.037 141.745 355.875C142.354 351.519 142.564 347.116 142.632 342.721Z" fill="#FBFCFC"/>
<path d="M175.841 83.4039C175.119 82.3726 173.15 83.427 174.03 84.5662C174.744 85.6976 176.901 84.5662 175.841 83.4039Z" fill="#CDCDCD"/>
<path d="M315.504 151.622C316.909 149.02 318.307 146.411 319.375 143.648C313.241 144.102 307.092 144.171 300.936 144.194C301.613 145.557 303.003 146.865 302.439 148.551C301.605 150.444 299.583 151.206 297.764 151.722C298.042 151.876 298.613 152.199 298.899 152.361C304.431 152.084 309.971 151.961 315.504 151.622Z" fill="#CDCDCD"/>
<path d="M157.711 94.6184C156.951 94.3413 156.109 93.1483 155.335 94.0411C155.117 95.6344 154.907 97.2738 155.14 98.8748C158.327 101.476 162.86 102.077 166.565 100.306C167.948 100.037 167.332 98.3052 167.603 97.2892C164.175 97.1199 160.65 96.5503 157.711 94.6184Z" fill="#E1D4CB"/>
<path d="M154.591 100.945C153.712 99.6599 152.419 98.9441 150.878 99.4675C151.351 99.5444 152.306 99.6984 152.787 99.7753C153.253 109.597 153.012 119.426 152.847 129.255C152.742 134.573 151.998 139.884 152.426 145.21C153.772 134.835 153.539 124.329 153.794 113.884C153.937 109.82 153.163 105.702 154.027 101.692C154.178 101.561 154.478 101.307 154.621 101.176L154.591 100.945Z" fill="#AEAEAE"/>
<path d="M152.787 99.7753C152.306 99.6984 151.351 99.5444 150.878 99.4675C145.608 100.16 140.286 101.369 135.626 104.078C128.756 108.427 123.261 114.63 116.714 119.426C110.039 124.313 103.71 129.663 97.1774 134.742C95.3884 136.251 93.3288 137.644 92.2539 139.83C91.5999 141.747 91.5623 143.94 92.2088 145.872C98.6432 159.45 106.325 172.419 115.165 184.495C117.285 187.251 119.239 190.191 121.848 192.485C125.08 190.222 127.959 187.451 131.281 185.304C122.517 174.22 114.09 162.79 107.167 150.398C105.348 147.088 103.221 143.856 102.349 140.115C103.116 140.577 103.875 141.062 104.619 141.554C109.062 137.621 114.105 134.496 118.721 130.794C125.756 125.029 132.649 119.079 139.805 113.46C140.008 114.007 140.204 114.553 140.399 115.108C139.076 116.147 137.738 117.178 136.393 118.202C136.415 124.159 135.724 130.086 135.791 136.043C135.491 149.013 134.265 161.928 132.89 174.82C132.567 177.607 132.206 180.385 131.807 183.164C132.371 183.91 132.935 184.665 133.491 185.419C132.687 186.143 131.883 186.882 131.071 187.62C132.003 188.875 133.416 189.922 133.649 191.577C134.754 196.587 135.934 201.713 135.566 206.894C134.965 210.827 130.567 211.435 127.808 213.213C125.614 225.535 123.486 237.897 120.87 250.143C118.676 261.788 115.398 273.187 112.865 284.756C113.143 284.371 113.699 283.586 113.97 283.201C131.108 259.71 139.58 231.046 145.353 202.691C145.924 199.297 146.616 195.933 147.127 192.539C148.164 186.558 148.991 180.555 149.803 174.543C146.698 168.786 145.06 162.398 143.263 156.132C142.136 151.876 140.707 147.696 139.896 143.355C142.684 141.008 145.27 138.36 147.3 135.297C145.511 132.149 142.782 129.663 141.083 126.43C142.451 121.688 144.045 116.932 144.24 111.944C144.616 111.906 145.36 111.829 145.729 111.79C145.796 116.901 143.857 121.665 142.925 126.607C144.864 129.301 146.961 131.864 149.044 134.435C149.78 135.158 148.923 136.028 148.51 136.644C146.571 139.353 144.045 141.516 141.895 144.025C141.654 145.072 142.248 146.126 142.421 147.158C144.669 155.447 146.946 163.745 149.968 171.772C151.269 162.975 152.035 154.093 152.426 145.21C151.998 139.884 152.742 134.573 152.847 129.255C153.012 119.426 153.253 109.597 152.787 99.7753Z" fill="#FEFEFE"/>
<path d="M180.712 105.841C178.314 103.762 175.142 103.077 172.18 102.285C173.954 108.342 176.781 114.022 179.735 119.549C179.84 117.74 179.893 115.939 179.96 114.138C180.336 114.207 181.08 114.346 181.449 114.415C181.516 117.209 181.208 120.049 181.614 122.828C182.366 124.506 183.546 125.945 184.192 127.669C183.35 128.685 182.358 129.562 181.396 130.463C181.373 134.181 181.17 137.906 181.358 141.616C182.087 142.701 183.05 143.594 183.914 144.564C183.05 147.681 181.824 150.729 181.396 153.962C181.238 157.279 181.358 160.604 181.479 163.922C181.569 166.823 182.614 169.794 184.869 171.657C187.274 173.958 190.784 173.912 193.866 174.128C207.359 174.282 220.867 173.951 234.299 172.642C238.644 171.719 243.861 172.304 247.236 168.863C244.101 169.825 240.847 171.403 237.524 170.341C235.044 168.909 233.405 165.338 234.968 162.659C235.472 161.666 236.164 160.797 236.795 159.896C229.331 161.266 221.791 162.059 214.237 162.644C206.329 162.859 198.422 162.775 190.514 162.652C190.446 162.313 190.303 161.636 190.236 161.297C190.732 161.112 191.739 160.743 192.243 160.566C189.92 152.407 188.65 143.994 187.409 135.62C186.244 128.377 185.5 121.073 184.568 113.799C184.215 110.813 182.974 107.826 180.712 105.841Z" fill="#FEFEFE"/>
<path d="M134.656 119.887C130.312 122.912 126.486 126.653 122.344 129.955C116.856 134.704 110.572 138.375 105.16 143.225C112.031 156.971 121.051 169.425 130.282 181.578C130.89 178.284 131.191 174.944 131.507 171.611C131.672 169.54 131.943 167.478 132.168 165.422C133.529 150.283 134.536 135.081 134.656 119.887Z" fill="#FEFEFE"/>
<path d="M68.5984 138.029C66.6591 133.111 59.8789 131.287 56.0453 135.012C50.5129 139.576 52.7079 150.475 60.0593 151.437C66.7042 152.599 71.5826 144.341 68.9066 138.452C68.4781 139.592 67.6287 140.138 66.4411 139.992C66.5614 138.706 66.7267 137.313 68.5984 138.029Z" fill="#FEFEFE"/>
<path d="M173.383 341.474C171.534 341.428 169.677 341.344 167.828 341.267C167.137 345.5 167.272 349.818 166.964 354.09C168.813 354.382 170.677 354.382 172.534 354.259C173.248 350.033 173.353 345.746 173.383 341.474Z" fill="#FEFEFE"/>
<path d="M167.264 101.823C163.1 103.562 158.56 102.846 154.591 100.945L154.621 101.176L154.636 101.253C155.523 107.472 155.019 113.776 155.095 120.034C154.553 142.647 153.05 165.276 149.54 187.636C150.419 188.344 151.299 189.06 152.156 189.791C152.546 191.13 151.9 193.131 153.358 193.917C157.944 194.186 162.566 194.132 167.144 193.755C167.272 192.416 167.4 191.076 167.512 189.745L168.858 189.722C168.813 191.13 168.745 192.546 168.663 193.963C169.076 193.108 169.497 192.262 169.933 191.423C170.369 192.192 170.782 192.985 171.181 193.786C171.572 193.739 172.346 193.663 172.737 193.616C172.609 191.584 172.459 189.552 172.316 187.52C170.444 167.47 169.617 147.342 168.542 127.23C168.452 125.768 168.362 124.305 168.332 122.835C168.061 115.823 167.64 108.827 167.264 101.823Z" fill="#A4E1E2"/>
<path d="M154.621 101.176C154.478 101.307 154.178 101.561 154.027 101.692C153.163 105.702 153.937 109.82 153.794 113.884C153.539 124.329 153.772 134.835 152.426 145.21C152.035 154.093 151.269 162.975 149.968 171.772C146.946 163.745 144.669 155.447 142.421 147.158C142.248 146.126 141.655 145.072 141.895 144.025C144.045 141.516 146.571 139.353 148.51 136.644C148.923 136.028 149.78 135.158 149.044 134.435C146.961 131.864 144.864 129.301 142.925 126.607C143.857 121.665 145.796 116.901 145.729 111.79C145.36 111.829 144.616 111.906 144.24 111.944C144.045 116.932 142.451 121.688 141.083 126.43C142.782 129.663 145.511 132.149 147.3 135.297C145.27 138.36 142.684 141.008 139.896 143.355C140.707 147.696 142.136 151.876 143.263 156.132C145.06 162.398 146.698 168.786 149.803 174.543C148.991 180.555 148.164 186.558 147.127 192.539C147.458 192.839 148.127 193.432 148.457 193.732C148.886 191.707 149.262 189.675 149.54 187.636C153.05 165.276 154.553 142.647 155.095 120.034C155.019 113.776 155.523 107.472 154.636 101.253L154.621 101.176Z" fill="#121517"/>
<path d="M45.2137 108.842C41.6658 108.227 38.2005 107.018 34.5849 106.803C28.5038 106.672 23.7081 111.082 17.9953 112.483C14.4023 113.26 11.0948 115.323 9.00515 118.456C6.61481 122.096 2.93156 124.875 1.56351 129.185C0.24054 133.534 0.240555 138.145 1.52588e-05 142.655V153.138C0.142838 153.346 0.435982 153.754 0.578804 153.954C2.51814 156.132 3.99143 158.726 4.37479 161.689C7.04326 164.53 11.0648 165.422 13.6355 168.401C16.1762 171.395 18.747 174.405 21.9266 176.714C13.9738 188.475 12.8914 203.299 12.9891 217.169C13.5604 217.685 14.1316 218.216 14.6879 218.739C14.6503 234.094 14.733 249.442 14.8232 264.798C15.0487 266.56 13.6431 267.815 12.8763 269.231C11.3354 268.307 10.0049 266.729 8.1257 266.583C7.19361 267.245 6.97562 268.407 6.56219 269.416C5.4497 270.87 5.43467 272.541 6.44944 274.065C6.27655 275.835 7.03576 277.297 8.45644 278.298C8.55416 279.245 8.6218 280.207 8.70449 281.161C12.5982 282.862 16.7325 281.623 20.1301 279.399C20.6412 278.367 21.205 277.367 21.7236 276.343C23.0015 273.534 23.4751 270.462 23.881 267.422C33.5175 267.807 43.1767 267.784 52.8057 267.422L52.6854 265.906C50.1673 266.068 47.6416 266.191 45.116 266.114C38.0126 265.767 30.8866 266.56 23.7908 265.829C24.362 250.312 24.2493 234.787 24.6176 219.262C25.3693 218.385 26.7073 217.677 26.4592 216.299C26.5269 211.789 25.9631 207.201 27.1282 202.776C27.1132 202.468 27.0756 201.852 27.0531 201.544C25.9105 200.628 25.685 202.629 25.0761 203.222C24.7454 207.894 24.8807 212.589 24.8581 217.277C21.904 217.461 18.9274 217.554 15.9958 217.061C15.635 217.007 14.9059 216.907 14.5451 216.853C14.4098 206.94 15.1088 196.841 18.3035 187.413C19.5212 184.011 20.9719 180.578 23.3848 177.876C28.5715 180.224 34.0663 182.294 39.8542 181.917C44.6725 181.763 49.4006 180.339 53.6326 177.999C60.7735 188.706 61.3298 202.337 61.3298 214.875C59.8866 214.937 58.4283 215.006 56.97 215.068C56.6242 207.863 56.534 200.544 55.0307 193.478C54.715 193.185 54.076 192.585 53.7528 192.285C54.5872 201.66 55.5644 211.042 55.6997 220.471C55.8049 235.58 55.8575 250.689 55.6621 265.79L56.0755 267.407C56.3912 267.145 57.0226 266.622 57.3384 266.36C57.3083 249.812 57.4135 233.256 57.2482 216.707C58.1953 216.646 59.1349 216.561 60.067 216.469C60.8036 216.138 61.5327 215.807 62.2468 215.46C62.307 212.574 62.5701 209.703 62.7805 206.832C62.2017 196.687 60.969 185.889 55.0457 177.391C63.224 171.588 69.1849 161.99 68.9894 151.591C68.8541 149.236 70.0643 147.181 70.7559 145.033C72.0337 140.138 69.7035 134.258 64.9754 132.31C62.976 131.579 61.3824 130.171 59.9692 128.593C59.9768 126.137 60.1947 123.62 59.5859 121.219C58.744 118.125 56.1357 116.131 53.8881 114.115C51.2948 111.944 48.6414 109.443 45.2137 108.842ZM42.0717 109.851C44.6274 110.405 47.356 110.805 49.4532 112.529C51.9864 114.523 54.482 116.616 56.6618 119.018C58.4508 121.019 58.4133 123.921 58.6087 126.453C55.4216 125.229 52.8734 122.735 49.6035 121.673C40.2902 118.032 29.1578 119.395 21.1599 125.583C13.5228 131.14 8.75712 140.461 8.55416 150.044C8.31363 154.454 9.89967 158.726 9.39605 163.144C8.32866 162.659 7.08839 162.328 6.32167 161.343C5.34448 159.434 5.07388 157.171 3.69078 155.478C2.57829 153.739 0.623894 152.307 0.571281 150.052C0.834366 146.95 1.72887 143.925 1.70633 140.792C1.96941 135.235 2.04458 128.97 6.02097 124.667C8.35871 122.381 9.92222 119.433 12.2149 117.124C14.9435 114.399 18.9274 114.184 22.2799 112.729C25.6324 111.428 28.6241 109.096 32.2547 108.627C35.5922 107.965 38.8394 109.212 42.0717 109.851ZM53.9934 125.668C53.6325 125.976 52.9109 126.591 52.5501 126.892C53.0989 129.147 55.9928 127.161 57.391 128.231C58.5035 129.124 59.4506 130.194 60.4503 131.202C58.729 131.764 57.0753 132.533 55.3689 133.157C53.3695 135.589 51.2873 138.322 51.4151 141.693C50.9115 147.042 54.9029 152.345 60.097 153.13C62.8181 153.608 65.4941 152.299 67.6214 150.66C67.4861 156.232 66.2308 161.943 62.9985 166.531C60.7134 171.003 56.6994 174.397 52.4449 176.837C43.8231 181.748 32.7132 181.54 24.2869 176.275L24.2267 176.121C21.0095 174.451 18.5365 171.711 16.0935 169.055C17.3714 168.709 19.4085 169.263 19.664 167.416C15.9808 167.708 10.8543 166.154 10.8167 161.589C10.704 157.949 14.4473 156.617 17.0933 155.363C15.1915 153.03 12.5832 156.263 10.5987 156.987C9.75686 151.283 10.0275 145.326 12.1698 139.946C15.5899 130.832 23.7231 123.821 33.0515 121.85C40.1699 120.203 47.7995 121.835 53.9934 125.668ZM68.5985 138.029C66.7268 137.313 66.5615 138.706 66.4412 139.992C67.6289 140.138 68.4783 139.592 68.9067 138.452C71.5827 144.341 66.7043 152.599 60.0594 151.437C52.708 150.475 50.5131 139.576 56.0455 135.012C59.879 131.287 66.6592 133.111 68.5985 138.029ZM23.0541 218.985C22.9338 235.018 22.7459 251.051 22.1821 267.068C21.8815 271.463 21.3854 276.843 17.2135 279.268C15.0863 280.438 11.6812 281.508 9.91471 279.206C12.2449 278.544 15.9282 280.184 17.1609 277.405C15.0863 277.344 12.9816 277.667 10.9144 277.305C9.73429 276.951 7.84757 276.728 8.16328 275.011C9.45617 275.412 10.719 275.92 12.042 276.143C12.7185 276.197 14.8608 276.512 13.9437 275.235C11.5083 274.142 7.66716 274.303 6.91548 271.032C9.08033 272.025 11.2001 273.287 13.6731 273.149C12.5381 271.14 9.59898 271.301 8.29857 269.208C8.39629 268.892 8.59174 268.246 8.68946 267.93C10.1853 269.516 11.9292 271.04 14.2444 270.693C14.4098 268.638 16.8302 267.669 16.522 265.529C16.4393 249.958 16.304 234.379 16.289 218.808C18.544 218.908 20.7991 218.978 23.0541 218.985Z" fill="#180D00"/>
<path d="M281.422 145.818C279.393 145.749 277.356 145.757 275.319 145.78C274.53 147.804 273.8 149.882 273.62 152.076C276.243 152.13 278.867 152.13 281.49 152.022C281.46 149.952 281.43 147.881 281.422 145.818ZM279.964 147.227C279.964 148.328 279.964 149.436 279.964 150.544C278.468 150.506 276.965 150.467 275.462 150.406C275.777 149.374 276.086 148.343 276.394 147.319C277.589 147.281 278.777 147.25 279.964 147.227Z" fill="#180D00"/>
<path d="M57.451 154.739C56.1732 153.038 54.7074 150.183 52.2569 150.683C53.0988 152.553 55.1058 153.515 55.9327 155.401C54.9404 158.095 51.9487 156.071 50.4228 155.032C50.0169 155.093 49.2051 155.209 48.7992 155.263C50.4228 157.164 52.7906 158.895 55.3839 158.195C56.9098 157.841 57.0376 155.978 57.451 154.739Z" fill="#180D00"/>
<path d="M60.6457 247.826C60.7209 240.775 61.8559 233.586 60.0594 226.652C59.879 237.035 59.7136 247.41 59.2401 257.786C59.5257 263.535 60.0895 269.839 56.4663 274.734L57.0752 276.127C60.3826 272.533 61.4425 267.415 61.0817 262.612C59.8264 257.77 60.6382 252.76 60.6457 247.826Z" fill="#180D00"/>
<path d="M53.9933 125.668C47.7994 121.835 40.1699 120.203 33.0514 121.85C23.723 123.821 15.5898 130.832 12.1697 139.946C10.0274 145.326 9.75677 151.283 10.5987 156.987C12.5831 156.263 15.1914 153.03 17.0932 155.363C17.3713 155.232 17.9426 154.962 18.2207 154.831C18.0553 155.686 17.8449 156.54 17.5968 157.387C16.0258 158.372 14.094 158.649 12.5981 159.788C11.666 161.058 11.899 163.244 13.3723 163.999C15.6725 165.315 18.2508 165.984 20.7313 166.854C20.6562 168.293 20.4231 169.764 20.6637 171.203C22.0017 172.735 23.8959 173.912 24.2266 176.121L24.2868 176.275C32.7132 181.54 43.823 181.748 52.4448 176.837C56.6993 174.397 60.7133 171.003 62.9985 166.531C63.3743 164.022 63.7125 161.52 64.1335 159.026C64.4341 158.965 65.0355 158.842 65.3362 158.788C65.3662 157.456 65.3813 156.148 65.3362 154.824C65.494 154.585 65.8097 154.1 65.9601 153.854C63.7577 154.493 61.5026 154.97 59.21 155.17C58.9544 155.347 58.4433 155.701 58.1877 155.878C57.9471 155.493 57.7066 155.116 57.451 154.739C57.0376 155.978 56.9098 157.841 55.3839 158.195C52.7906 158.895 50.4228 157.164 48.7992 155.262C49.2051 155.209 50.0169 155.093 50.4228 155.032C51.1143 154.323 51.8059 153.608 52.4899 152.9C51.633 150.329 50.5355 147.843 49.2426 145.472C48.8593 149.79 46.5967 153.969 42.7631 156.001C38.3207 157.649 33.2243 157.094 29.0149 154.962C26.0833 153.608 25.3993 150.052 24.5348 147.204C23.7832 143.694 23.1292 139.407 25.8728 136.605C28.1429 134.589 25.4519 131.148 27.5716 129.078C29.5185 126.922 32.6079 126.799 35.2238 127.423C36.6971 127.469 38.1704 127.484 39.6361 127.5C39.576 128.023 39.5159 128.554 39.4482 129.093C39.3279 130.124 39.2002 131.156 39.0724 132.195C43.2141 133.265 46.4238 136.559 47.8821 140.608C48.3707 141.67 48.8668 142.732 49.3554 143.794C50.0319 139.83 50.4303 133.773 55.3689 133.157C57.0752 132.533 58.7289 131.764 60.4502 131.202C59.4505 130.194 58.5034 129.124 57.3909 128.231C55.9928 127.161 53.0988 129.147 52.5501 126.892C52.9109 126.591 53.6325 125.976 53.9933 125.668ZM55.196 164.183C55.4516 165.969 55.5342 167.785 55.2787 169.586C54.775 169.687 53.7678 169.887 53.2642 169.994C53.0913 170.803 52.8658 171.603 52.6027 172.388C50.062 174.366 47.1905 169.941 48.724 167.724C49.5659 169.086 50.4153 170.441 51.3849 171.703C51.5804 169.933 51.5578 168.139 51.5804 166.361C52.4223 166.923 53.2566 167.493 54.091 168.055C53.9407 166.708 53.7603 165.361 53.5874 164.014C53.9858 164.06 54.7901 164.137 55.196 164.183Z" fill="#FECBA6"/>
<path d="M297.561 122.527C293.878 121.411 287.752 121.712 287.368 126.784C287.233 126.468 286.955 125.845 286.819 125.529C287.105 131.34 285.73 137.059 285.842 142.87C285.895 143.979 285.932 145.103 286.196 146.196C289.638 149.267 294.893 149.274 298.922 147.473C294.862 146.958 290.127 148.189 286.887 144.941C287.631 138.768 287.932 132.518 288.857 126.376C290.142 123.105 294.156 123.643 296.9 124.059C299.485 124.59 300.598 127.546 300.245 129.986C299.756 135.481 298.486 140.992 299.365 146.534C299.763 145.487 300.132 144.441 300.478 143.394C300.575 143.225 300.771 142.894 300.861 142.724C300.748 138.729 301.222 134.766 301.793 130.825C302.304 127.577 301.056 123.351 297.561 122.527Z" fill="#96D650"/>
<path d="M300.245 129.986C300.598 127.546 299.485 124.59 296.9 124.059C294.156 123.644 290.142 123.105 288.857 126.376C287.932 132.518 287.631 138.768 286.887 144.941C290.127 148.189 294.863 146.958 298.922 147.473C299.087 147.165 299.237 146.85 299.365 146.534C298.486 140.992 299.756 135.481 300.245 129.986ZM298.929 127.192C298.922 131.033 298.411 134.85 297.569 138.591C297.569 140.885 297.426 143.178 297.418 145.48C297.065 145.387 296.366 145.218 296.013 145.133C295.05 145.31 294.088 145.487 293.119 145.657C291.781 145.487 290.413 145.387 289.105 144.987C288.368 138.745 289.413 132.457 290.42 126.307C291.608 125.16 293.555 125.822 295.028 125.583C296.576 125.006 297.884 126.199 298.929 127.192Z" fill="#D1F88B"/>
<path d="M298.929 127.192C297.884 126.199 296.576 125.006 295.028 125.583C293.743 126.137 292.48 126.745 291.209 127.353C291.202 128.108 291.194 128.87 291.179 129.632C292.096 129.955 292.998 130.278 293.908 130.602C294.584 130.132 295.261 129.678 295.93 129.216C296.591 130.817 297.238 132.418 297.877 134.034L297.23 133.927C297.306 135.143 297.418 136.359 297.516 137.575C297.531 137.829 297.554 138.337 297.569 138.591C298.41 134.85 298.922 131.033 298.929 127.192Z" fill="#BDF619"/>
<path d="M295.028 125.583C293.555 125.822 291.608 125.16 290.42 126.307C289.413 132.456 288.368 138.745 289.105 144.987C290.413 145.387 291.781 145.487 293.119 145.657C293.186 144.079 293.254 142.509 293.314 140.939C294.066 141.162 294.81 141.385 295.554 141.624C295.689 142.793 295.817 143.963 296.013 145.133C296.366 145.218 297.065 145.387 297.418 145.48C297.426 143.178 297.569 140.885 297.569 138.591C297.554 138.337 297.531 137.829 297.516 137.575C296.02 139.176 293.705 140.638 291.563 139.338C289.044 137.906 289.21 133.85 291.803 132.595C293.682 131.194 295.524 133.242 297.23 133.927L297.877 134.034C297.238 132.418 296.591 130.817 295.93 129.216C295.261 129.678 294.584 130.132 293.908 130.602C292.998 130.278 292.096 129.955 291.179 129.632C291.194 128.87 291.202 128.108 291.209 127.353C292.48 126.745 293.743 126.137 295.028 125.583Z" fill="#9BEB20"/>
<path d="M170.361 133.311C170.279 130.54 169.97 127.777 169.377 125.067C169.166 125.606 168.753 126.691 168.542 127.23C169.617 147.342 170.444 167.47 172.316 187.52C172.654 187.12 173.338 186.312 173.676 185.912C172.308 168.393 171.459 150.844 170.361 133.311Z" fill="#122222"/>
<path d="M39.6361 127.5C38.1703 127.484 36.697 127.469 35.2237 127.423C32.5703 128.469 28.1128 128.6 27.7671 132.287C31.2774 130.101 35.2538 128.5 39.4482 129.093C39.5158 128.554 39.576 128.023 39.6361 127.5Z" fill="#220B00"/>
<path d="M35.2238 127.423C32.608 126.799 29.5185 126.922 27.5717 129.078C25.4519 131.148 28.143 134.589 25.8729 136.605C23.1292 139.407 23.7832 143.694 24.5349 147.204C25.3993 150.052 26.0834 153.608 29.0149 154.962C33.2243 157.094 38.3207 157.649 42.7632 156.001C46.5968 153.969 48.8593 149.79 49.2427 145.472C50.5356 147.843 51.633 150.329 52.49 152.9C51.8059 153.608 51.1144 154.323 50.4228 155.032C51.9488 156.071 54.9405 158.095 55.9327 155.401C55.1058 153.515 53.0988 152.553 52.2569 150.683C54.7074 150.183 56.1732 153.038 57.4511 154.739C57.7066 155.116 57.9472 155.493 58.1877 155.878C58.4433 155.701 58.9544 155.347 59.21 155.17C61.5026 154.97 63.7577 154.493 65.9601 153.854C65.8098 154.1 65.4941 154.585 65.3362 154.824C65.3813 156.148 65.3663 157.456 65.3362 158.788C65.0355 158.842 64.4342 158.965 64.1335 159.026C63.7126 161.52 63.3743 164.022 62.9985 166.531C66.2307 161.943 67.486 156.232 67.6213 150.66C65.4941 152.299 62.8181 153.608 60.097 153.13C54.9029 152.345 50.9114 147.042 51.4151 141.693C51.2873 138.322 53.3694 135.589 55.3689 133.157C50.4304 133.773 50.032 139.83 49.3555 143.794C48.8669 142.732 48.3707 141.67 47.8821 140.608C48.9044 145.203 47.4763 150.375 43.6727 153.215C38.644 157.572 30.18 155.955 26.9027 150.159C23.4224 144.864 25.2415 136.813 30.7363 133.75C33.2093 132.126 36.2235 131.879 39.0724 132.195C39.2002 131.156 39.328 130.124 39.4483 129.093C35.2539 128.5 31.2775 130.101 27.7671 132.287C28.1129 128.6 32.5704 128.469 35.2238 127.423Z" fill="#F0D5BC"/>
<path d="M297.23 133.927C295.524 133.242 293.682 131.194 291.803 132.595C289.21 133.85 289.045 137.906 291.563 139.338C293.705 140.638 296.02 139.176 297.516 137.575C297.418 136.359 297.306 135.143 297.23 133.927Z" fill="#EAF8B1"/>
<path d="M179.802 132.018C178.171 133.195 176.728 134.619 175.383 136.128C176.818 137.498 178.269 138.86 179.78 140.146C179.848 137.436 179.885 134.727 179.802 132.018Z" fill="#FAFCFB"/>
<path d="M47.8821 140.608C46.4238 136.559 43.2141 133.265 39.0724 132.195C36.2235 131.879 33.2092 132.126 30.7362 133.75C25.2414 136.813 23.4223 144.864 26.9026 150.159C30.1799 155.955 38.6439 157.572 43.6727 153.215C47.4762 150.375 48.9044 145.203 47.8821 140.608ZM45.8751 140.869C45.3339 140.939 44.2665 141.085 43.7253 141.154C42.0265 143.024 44.8754 143.209 45.8751 142.132C47.2507 142.64 46.2284 144.471 46.3562 145.541C45.8676 149.613 42.4098 153.223 38.4184 153.762C33.4798 155.001 28.0377 151.337 27.053 146.249C25.7074 141.185 28.9472 135.358 33.9534 134.096C38.7642 132.356 45.0483 136.082 45.8751 140.869Z" fill="#2D1D0C"/>
<path d="M45.8751 140.869C45.0483 136.082 38.7642 132.356 33.9535 134.096C28.9472 135.358 25.7075 141.185 27.053 146.249C28.0377 151.337 33.4799 155.001 38.4184 153.762C42.4099 153.223 45.8676 149.613 46.3562 145.541C46.2284 144.471 47.2507 142.64 45.8751 142.132C44.8754 143.209 42.0265 143.024 43.7253 141.154C44.2665 141.085 45.3339 140.939 45.8751 140.869Z" fill="#FDFEFE"/>
<path d="M295.554 141.624C294.81 141.385 294.066 141.162 293.314 140.939C293.254 142.509 293.186 144.079 293.119 145.657C294.088 145.487 295.05 145.31 296.013 145.133C295.817 143.963 295.689 142.793 295.554 141.624Z" fill="#C0F716"/>
<path d="M279.964 147.227C278.777 147.25 277.589 147.281 276.394 147.319C276.085 148.343 275.777 149.374 275.462 150.406C276.965 150.467 278.468 150.506 279.964 150.544C279.964 149.436 279.964 148.328 279.964 147.227Z" fill="#CA3844"/>
<path d="M264.555 147.473C261.999 147.619 259.3 147.242 256.895 148.335C253.603 149.844 250.746 152.422 249.093 155.732C248.213 158.11 245.349 157.418 243.402 157.587C244.056 158.187 244.695 158.795 245.319 159.419C250.4 158.395 255.685 157.579 260.172 154.762C259.624 154.801 258.526 154.87 257.977 154.901C258.549 151.984 261.773 152.599 263.908 151.899C261.413 152.238 258.894 152.222 256.384 152.215C255.993 151.73 255.602 151.245 255.204 150.767C257.94 149.69 260.849 149.19 263.773 149.274C264.036 148.674 264.299 148.074 264.555 147.473ZM255.549 154.054C256.128 154.131 257.286 154.285 257.865 154.362C255.414 155.139 252.949 155.886 250.461 156.556C251.618 154.932 252.911 153.423 254.151 151.876C254.64 152.592 255.098 153.315 255.549 154.054Z" fill="#34302D"/>
<path d="M269.448 149.944C268.839 148.959 267.749 148.535 266.81 147.981C267.622 149.952 267.14 151.876 265.99 153.585C267.727 153.261 269.478 151.891 269.448 149.944Z" fill="#5E5B5E"/>
<path d="M265.923 150.952C265.66 149.936 264.938 149.374 263.773 149.274C260.849 149.19 257.94 149.69 255.204 150.767C255.602 151.245 255.993 151.73 256.384 152.215C258.894 152.222 261.413 152.238 263.908 151.899C264.412 151.66 265.419 151.183 265.923 150.952Z" fill="#E7DFD7"/>
<path d="M297.764 151.722C296.065 151.76 294.389 152.014 292.735 152.407L291.781 152.63C293.337 153.092 294.87 153.623 296.434 154.069C298.899 154.108 301.357 153.823 303.808 153.623C302.56 153.531 301.319 153.338 300.094 153.061C299.794 152.884 299.2 152.53 298.899 152.361C298.613 152.199 298.042 151.876 297.764 151.722Z" fill="#444445"/>
<path d="M18.2208 154.831C17.9426 154.962 17.3714 155.232 17.0932 155.363C14.4473 156.617 10.704 157.949 10.8167 161.589C10.8543 166.154 15.9808 167.708 19.664 167.416C19.4084 169.263 17.3714 168.709 16.0935 169.055C18.5365 171.711 21.0095 174.451 24.2267 176.121C23.8959 173.912 22.0017 172.735 20.6637 171.203C20.4232 169.764 20.6562 168.293 20.7314 166.854C18.2508 165.984 15.6726 165.315 13.3724 163.999C11.8991 163.244 11.6661 161.058 12.5982 159.788C14.094 158.649 16.0259 158.372 17.5969 157.387C17.8449 156.54 18.0554 155.686 18.2208 154.831Z" fill="#F0D5BA"/>
<path d="M268.742 163.721C269.892 159.988 265.554 158.495 262.908 157.533C261.36 157.533 263.074 159.134 263.375 159.673C265.036 161.166 266.269 163.652 268.742 163.721Z" fill="#E0DBD6"/>
<path d="M265.209 164.029C263.382 160.843 259.533 159.619 256.128 159.388C257.805 161.751 259.684 164.276 262.412 165.392C263.457 166.007 265.276 165.438 265.209 164.029Z" fill="#DFDAD4"/>
<path d="M55.196 164.183C54.7901 164.137 53.9858 164.06 53.5874 164.014C53.7603 165.361 53.9407 166.708 54.091 168.055C53.2567 167.493 52.4223 166.923 51.5804 166.361C51.5579 168.139 51.5804 169.933 51.385 171.703C50.4153 170.441 49.5659 169.086 48.724 167.724C47.1906 169.941 50.062 174.366 52.6027 172.388C52.8658 171.603 53.0913 170.803 53.2642 169.994C53.7678 169.887 54.7751 169.687 55.2787 169.586C55.5343 167.785 55.4516 165.969 55.196 164.183Z" fill="#160600"/>
<path d="M39.8541 181.917C34.0662 182.294 28.5714 180.224 23.3847 177.876C20.9718 180.578 19.5211 184.011 18.3034 187.413C15.1087 196.841 14.4097 206.94 14.545 216.853C14.9058 216.907 15.6349 217.007 15.9957 217.061C18.2883 215.968 20.8365 215.984 23.3021 215.968C23.5125 210.881 23.5802 205.77 24.4521 200.736C24.6776 201.56 24.8881 202.383 25.076 203.222C25.6849 202.629 25.9104 200.628 27.053 201.544C27.0755 201.852 27.1131 202.468 27.1281 202.776C27.316 207.294 27.286 211.82 27.5791 216.338C28.1354 218.924 25.2414 220.586 25.6548 223.126C26.0908 228.029 25.1211 232.917 25.4068 237.827C25.3015 246.594 25.6473 255.392 25.0384 264.143C28.1203 265.105 31.3601 265.19 34.5548 264.998C39.9894 264.682 45.4316 265.09 50.8663 264.867C50.8512 264.49 50.8287 263.743 50.8212 263.374C52.1216 263.581 53.422 263.789 54.7149 263.997C54.8878 253.752 54.6698 243.508 54.775 233.263C54.8803 228.991 54.2038 224.573 55.6996 220.471C55.5643 211.042 54.5871 201.66 53.7527 192.285C54.076 192.585 54.7149 193.185 55.0306 193.478C56.534 200.544 56.6242 207.863 56.9699 215.068C58.4282 215.006 59.8865 214.937 61.3297 214.875C61.3297 202.337 60.7735 188.706 53.6325 177.999C49.4005 180.339 44.6724 181.763 39.8541 181.917ZM44.9054 188.498C44.8678 189.445 44.8077 190.407 44.7476 191.361C45.0783 191.615 45.7398 192.139 46.0705 192.393C45.7398 194.963 44.725 197.395 42.252 198.45C42.1468 197.488 42.034 196.533 41.9212 195.579C41.3049 195.887 40.6885 196.187 40.0646 196.503C39.8842 197.026 39.5384 198.081 39.3655 198.604C37.9373 197.634 36.2761 196.603 35.9454 194.717C35.2613 192.723 35.2313 189.445 37.554 188.675C38.9897 189.26 39.7414 190.745 40.6584 191.923C41.7634 190.399 43.0112 188.906 44.9054 188.498Z" fill="#F4EE7C"/>
<path d="M164.776 195.864C162.341 194.763 159.409 195.394 156.816 195.733C156.914 196.872 157.004 198.011 157.087 199.15C159.687 199.058 162.281 198.989 164.874 198.889C164.851 197.873 164.867 196.864 164.776 195.864ZM163.777 197.211C161.807 197.249 159.83 197.257 157.853 197.234C159.793 196.703 161.83 196.734 163.777 197.211Z" fill="#F4EE7C"/>
<path d="M173.676 185.912C173.338 186.312 172.654 187.12 172.316 187.52C172.459 189.552 172.609 191.584 172.737 193.616C172.346 193.662 171.572 193.739 171.181 193.786C170.782 192.985 170.369 192.192 169.933 191.423C169.497 192.262 169.076 193.108 168.663 193.963C168.745 192.546 168.813 191.13 168.858 189.722L167.512 189.745C167.4 191.076 167.272 192.416 167.144 193.755C162.566 194.132 157.944 194.186 153.358 193.916C151.9 193.131 152.546 191.13 152.156 189.791C151.802 189.706 151.103 189.545 150.75 189.46C150.825 190.93 150.9 192.4 150.983 193.878C150.141 193.84 149.307 193.786 148.457 193.732C148.127 193.432 147.458 192.839 147.127 192.539C146.616 195.933 145.924 199.297 145.353 202.691C145.638 203.107 146.21 203.93 146.495 204.346C146.728 203.222 146.969 202.114 147.217 200.998C155.959 200.951 164.694 200.574 173.421 200.143C174.992 219.093 176.841 238.028 178.209 256.993C179.058 268.407 180.937 279.83 179.885 291.298C178.307 307.415 177.202 323.61 175.383 339.689C172.94 340.012 170.459 339.896 168.024 340.358L167.828 341.267C169.677 341.344 171.534 341.428 173.383 341.474C173.353 345.746 173.248 350.033 172.534 354.259C172.97 354.359 173.842 354.544 174.278 354.644C176.495 355.991 178.066 358.246 180.434 359.385C185.944 362.364 191.799 365.35 195.618 370.592C188.575 370.892 181.516 370.907 174.473 370.6C174.022 370.961 173.127 371.685 172.676 372.047C178.495 372.462 184.328 372.462 190.153 372.354C192.649 372.254 195.242 372.324 197.55 371.215C196.655 368.314 194.145 366.451 191.987 364.55C186.462 359.832 178.479 358.146 174.533 351.65C174.518 348.325 174.856 345 175.127 341.69C175.728 341.228 176.337 340.789 176.969 340.389C177.878 332.908 178.134 325.342 179.073 317.883C179.795 306.515 181.216 295.208 181.982 283.84C181.734 276.112 180.524 268.4 180.103 260.657C179.855 254.083 178.171 247.533 178.9 240.96C179.63 235.203 177.134 229.661 176.758 223.95C176.352 216.715 174.789 209.557 175.104 202.291C174.631 196.826 174.045 191.377 173.676 185.912ZM172.977 195.417C173.022 196.48 173.067 197.549 173.112 198.619C171.03 198.658 168.941 198.843 166.858 198.619C165.866 198.181 166.505 196.749 166.475 195.91C168.512 195.094 170.827 195.556 172.977 195.417ZM164.776 195.864C164.867 196.864 164.851 197.873 164.874 198.889C162.281 198.989 159.687 199.058 157.087 199.15C157.004 198.011 156.914 196.872 156.816 195.733C159.409 195.394 162.341 194.763 164.776 195.864ZM155.365 195.679C155.38 196.826 155.388 197.988 155.395 199.143C152.847 199.227 150.299 199.32 147.743 199.412C147.811 198.119 147.984 196.841 148.172 195.579C150.57 195.564 152.975 195.587 155.365 195.679Z" fill="#0B0904"/>
<path d="M152.156 189.791C151.299 189.06 150.419 188.344 149.54 187.636C149.262 189.675 148.886 191.707 148.457 193.732C149.307 193.786 150.141 193.84 150.983 193.878C150.9 192.4 150.825 190.93 150.75 189.46C151.103 189.545 151.802 189.706 152.156 189.791Z" fill="#CDEBED"/>
<path d="M129.755 188.744C127.478 189.837 125.711 191.815 123.644 193.262C124.328 193.986 125.012 195.702 126.283 194.848C128.59 194.286 130.417 192.662 132.108 191.061C131.349 190.268 130.597 189.452 129.755 188.744Z" fill="#AFE1E0"/>
<path d="M44.9055 188.498C43.0112 188.906 41.7634 190.399 40.6585 191.923C39.7414 190.745 38.9897 189.26 37.554 188.675C35.2313 189.445 35.2614 192.723 35.9454 194.717C36.2761 196.603 37.9374 197.634 39.3656 198.604C39.5385 198.081 39.8842 197.026 40.0646 196.503C40.6885 196.187 41.3049 195.887 41.9213 195.579C42.034 196.533 42.1468 197.488 42.252 198.45C44.7251 197.396 45.7398 194.963 46.0706 192.393C45.7398 192.139 45.0784 191.615 44.7476 191.361C44.8077 190.407 44.8679 189.445 44.9055 188.498Z" fill="#E4DC6D"/>
<path d="M172.977 195.417C170.827 195.556 168.512 195.094 166.475 195.91C166.505 196.749 165.866 198.181 166.858 198.619C168.941 198.842 171.03 198.658 173.112 198.619C173.067 197.549 173.022 196.48 172.977 195.417Z" fill="#473B32"/>
<path d="M155.365 195.679C152.975 195.587 150.57 195.564 148.172 195.579C147.984 196.841 147.811 198.119 147.743 199.412C150.299 199.32 152.847 199.227 155.395 199.143C155.388 197.988 155.38 196.826 155.365 195.679Z" fill="#4E3A31"/>
<path d="M173.421 200.143C164.694 200.574 155.959 200.952 147.217 200.998C146.969 202.114 146.728 203.222 146.495 204.346C144.376 215.783 141.474 227.083 137.798 238.097C136.513 241.722 137.37 245.617 137.543 249.35C138.099 259.364 138.67 269.37 139.001 279.391C139.798 287.496 138.437 295.57 137.738 303.629C136.445 315.667 135.333 327.72 133.965 339.743C137.265 340.705 140.7 340.913 144.113 340.836C145.638 325.449 147.367 310.094 149.036 294.723C150.479 283.74 149.262 272.656 149.149 261.634C148.735 244.562 147.916 227.498 147.676 210.419C151.877 210.958 156.117 211.45 160.356 210.957C162.762 229.099 164.791 247.295 167.242 265.429C168.001 273.395 169.76 281.3 169.489 289.335C168.302 305.699 166.783 322.047 166.167 338.449C166.821 339.05 167.482 339.65 168.024 340.358C170.459 339.897 172.94 340.012 175.383 339.689C177.202 323.61 178.307 307.415 179.885 291.298C180.937 279.83 179.058 268.407 178.209 256.993C176.841 238.028 174.992 219.093 173.421 200.143Z" fill="#8E774D"/>
<path d="M120.84 206.262C123.607 205.5 123.982 201.775 121.833 200.082C119.315 202.452 119.269 206.316 120.186 209.457C120.329 208.725 120.472 208.002 120.622 207.278L120.84 206.262Z" fill="#E6E5E1"/>
<path d="M25.076 203.222C24.8881 202.383 24.6777 201.56 24.4522 200.736C23.5802 205.77 23.5126 210.881 23.3021 215.968C20.8366 215.984 18.2883 215.968 15.9957 217.061C18.9273 217.554 21.9039 217.461 24.8581 217.277C24.8806 212.589 24.7453 207.894 25.076 203.222Z" fill="#F5F398"/>
<path d="M27.1282 202.776C25.9631 207.201 26.5269 211.789 26.4592 216.299C26.7073 217.677 25.3693 218.385 24.6176 219.262C24.2493 234.787 24.362 250.312 23.7907 265.829C30.8866 266.56 38.0126 265.767 45.116 266.114C47.6416 266.191 50.1673 266.068 52.6854 265.906C53.6852 265.844 54.6774 265.806 55.6621 265.79C55.8575 250.689 55.8049 235.58 55.6997 220.471C54.2038 224.573 54.8803 228.991 54.7751 233.263C54.6699 243.508 54.8878 253.752 54.715 263.997C53.4221 263.789 52.1217 263.581 50.8212 263.374C50.8288 263.743 50.8513 264.49 50.8663 264.867C45.4317 265.09 39.9895 264.682 34.5548 264.998C31.3602 265.19 28.1204 265.105 25.0385 264.143C25.6474 255.392 25.3016 246.594 25.4069 237.827C25.1212 232.917 26.0909 228.029 25.6549 223.126C25.2415 220.586 28.1355 218.924 27.5792 216.338C27.2861 211.82 27.3161 207.294 27.1282 202.776Z" fill="#E2E98C"/>
<path d="M62.7805 206.832C62.57 209.703 62.307 212.574 62.2468 215.46C61.5327 215.807 60.8036 216.138 60.0669 216.468C60.0369 219.863 59.9542 223.257 60.0594 226.652C61.8559 233.586 60.7209 240.775 60.6457 247.826C60.6382 252.76 59.8264 257.77 61.0817 262.612C61.0667 253.583 61.2922 244.547 61.4801 235.518C62.1641 229.623 61.668 223.681 62.0213 217.777C63.2165 214.244 63.0211 210.503 62.7805 206.832Z" fill="#312C27"/>
<path d="M60.0669 216.469C59.1348 216.561 58.1952 216.646 57.2481 216.707C57.4135 233.256 57.3082 249.812 57.3383 266.36C57.0226 266.622 56.3912 267.145 56.0755 267.407C56.3836 269.839 56.0003 272.325 56.4663 274.734C60.0894 269.839 59.5257 263.535 59.24 257.786C59.7136 247.41 59.879 237.035 60.0594 226.652C59.9541 223.257 60.0368 219.863 60.0669 216.469Z" fill="#F3DCBE"/>
<path d="M23.0541 218.985C20.799 218.978 18.544 218.908 16.2889 218.808C16.304 234.379 16.4393 249.958 16.522 265.529C16.8302 267.669 14.4097 268.638 14.2444 270.693C11.9292 271.04 10.1853 269.516 8.68945 267.93C8.59173 268.246 8.39628 268.892 8.29856 269.208C9.59897 271.301 12.5381 271.14 13.6731 273.149C11.2001 273.287 9.08031 272.025 6.91547 271.032C7.66715 274.303 11.5083 274.142 13.9437 275.235C14.8608 276.512 12.7185 276.197 12.0419 276.143C10.719 275.92 9.45616 275.412 8.16327 275.011C7.84756 276.728 9.73428 276.951 10.9144 277.305C12.9815 277.667 15.0863 277.344 17.1609 277.405C15.9281 280.184 12.2449 278.544 9.9147 279.206C11.6811 281.508 15.0863 280.438 17.2135 279.268C21.3854 276.843 21.8815 271.463 22.1821 267.068C22.7459 251.051 22.9338 235.018 23.0541 218.985Z" fill="#FACAA8"/>
<path d="M187.372 253.899C185.989 242.915 184.568 231.909 183.681 220.856C183.711 222.865 183.343 224.858 182.644 226.736C183.463 236.842 184.553 246.948 186.47 256.908C186.778 255.9 187.079 254.899 187.372 253.899Z" fill="#1C1C1C"/>
<path d="M178.9 240.96C178.171 247.533 179.855 254.083 180.103 260.657C183.11 262.265 182.11 266.568 184.974 268.246C182.471 259.294 179.712 250.266 178.9 240.96Z" fill="#DEE4DC"/>
<path d="M135.641 244.639C130.304 258.848 123.907 272.91 114.466 284.794L114.459 285.541C118.21 283.747 122.186 282.485 126.223 281.569C129.906 280.699 133.627 280.037 137.385 279.622C137.137 267.946 136.603 256.269 135.641 244.639Z" fill="#CADDC8"/>
<path d="M191.829 274.642C189.92 267.822 188.469 260.887 187.372 253.899C187.079 254.899 186.778 255.9 186.47 256.908C187.492 264.667 189.537 272.225 191.672 279.73C189.071 275.897 187.718 271.371 186.305 266.983C185.974 267.299 185.312 267.93 184.974 268.246C186.673 272.487 188.139 276.843 190.356 280.846C190.965 281.931 191.634 282.978 192.303 284.024C191.303 283.709 190.303 283.416 189.296 283.109C188.409 282.824 187.507 282.554 186.613 282.246C185.463 281.892 184.35 281.946 183.275 282.424C183.456 283.647 184.891 283.493 185.763 283.871C188.958 284.548 191.965 285.887 195.129 286.634C195.272 286.449 195.558 286.08 195.701 285.895C194.145 282.246 192.822 278.49 191.829 274.642Z" fill="#010501"/>
<path d="M184.974 268.246C182.11 266.568 183.11 262.265 180.103 260.657C180.524 268.4 181.734 276.112 181.982 283.84C183.245 283.855 184.508 283.847 185.763 283.871C184.891 283.493 183.456 283.647 183.275 282.423C184.35 281.946 185.463 281.892 186.613 282.246C185.124 281.669 183.659 281.023 182.178 280.407C182.103 277.775 182.103 275.142 182.23 272.518C182.381 275.058 182.486 277.605 182.599 280.153C184.628 280.746 186.658 281.338 188.687 281.931C189.101 281.662 189.935 281.115 190.356 280.846C188.139 276.843 186.673 272.487 184.974 268.246Z" fill="#CBDDC9"/>
<path d="M55.662 265.79C54.6773 265.806 53.6851 265.844 52.6854 265.906L52.8056 267.422C53.2567 267.391 54.1511 267.338 54.6022 267.307C54.4668 286.988 54.3917 306.677 53.6024 326.342C52.9184 335.602 52.6929 344.915 51.9713 354.159C49.2126 354.99 46.2961 354.667 43.4547 354.698C43.1315 344.184 44.011 333.685 44.041 323.171C44.7476 313.542 43.6501 303.944 42.703 294.377C42.4024 287.988 41.8686 281.623 41.5154 275.235C42.7105 275.058 43.9057 274.865 45.0858 274.665C42.8458 272.648 39.6512 273.695 36.9451 273.464C35.3365 290.059 33.6979 306.646 32.2621 323.248C31.3676 334.701 30.9768 346.185 30.0672 357.638C27.3161 357.699 24.5649 357.692 21.8138 357.607C21.5056 352.82 22.0468 348.032 22.0167 343.237C22.137 326.057 22.2046 308.87 21.9416 291.691C21.8363 286.572 21.3252 281.454 21.7236 276.343C21.2049 277.367 20.6411 278.367 20.13 279.399C19.897 283.232 20.1074 287.072 20.0849 290.906C20.8441 304.237 20.4607 317.614 20.5058 330.96C20.6712 339.989 19.8444 348.979 19.9872 358.007C20.7689 358.669 21.5507 359.347 22.3099 360.032C18.8145 363.411 16.349 367.713 14.4548 372.201C13.6505 374.425 12.6808 377.142 14.3721 379.22C16.6046 379.551 18.8972 379.582 21.1222 379.259C23.5877 378.212 25.5271 376.249 27.6318 374.625C29.7214 372.939 32.1945 370.915 31.9615 367.867C32.2847 364.711 30.2777 362.118 29.3757 359.262C29.9695 359.17 31.1496 358.977 31.7435 358.885C32.2321 349.802 32.8034 340.735 33.3521 331.661C33.8332 318.268 35.983 304.999 36.6219 291.621L37.0429 291.021C37.2608 285.633 37.6893 280.214 38.5913 274.919C38.8694 274.942 39.4332 275.004 39.7113 275.034C40.8238 286.711 41.2823 298.472 42.4775 310.148C42.9962 325.28 41.3725 340.389 41.8762 355.529C42.5978 355.891 43.3194 356.268 44.026 356.645C43.9959 357.407 43.9358 358.931 43.9057 359.693C44.4695 359.67 45.0182 359.662 45.5745 359.662C45.5294 358.623 45.4918 357.584 45.4391 356.553C47.0477 356.514 48.6413 356.476 50.2349 356.437C50.2123 357.469 50.1823 358.5 50.1447 359.547C48.7691 359.601 47.3935 359.655 46.0104 359.662C45.9353 360.047 45.7849 360.817 45.7022 361.194C47.9498 361.34 50.2274 361.202 52.3171 360.293C52.6403 360.078 53.2792 359.639 53.6024 359.424C53.1364 359.223 52.1968 358.816 51.7232 358.615C51.6781 358.015 51.5879 356.83 51.5428 356.229C52.2494 355.914 52.956 355.598 53.655 355.283C54.1436 338.426 56.0604 321.632 55.8499 304.745C55.9402 295.616 56.0755 286.487 56.1356 277.351C56.4513 276.943 56.767 276.535 57.0752 276.127L56.4663 274.734C56.0003 272.325 56.3837 269.839 56.0755 267.407L55.662 265.79ZM28.0001 359.27C28.0602 359.955 28.1204 360.64 28.173 361.332C26.617 361.463 25.0535 361.509 23.4825 361.486C23.5351 360.724 23.5877 359.978 23.6328 359.231C25.0911 359.262 26.5494 359.27 28.0001 359.27ZM29.3381 362.895C29.6613 363.772 29.9921 364.65 30.3228 365.527C30.2627 367.351 30.7362 369.507 29.2855 370.915C26.4141 373.624 23.3848 376.265 19.9496 378.189C18.4988 379.058 16.8677 378.635 15.3343 378.289C15.214 376.403 15.0486 374.425 15.9581 372.716C17.5968 369.214 19.2881 365.62 21.8965 362.772C24.3695 363.164 26.8651 363.303 29.3381 362.895Z" fill="#0A1019"/>
<path d="M54.6022 267.307C54.1512 267.338 53.2567 267.391 52.8057 267.422C43.1766 267.784 33.5175 267.807 23.8809 267.422C23.475 270.462 23.0014 273.534 21.7236 276.343C21.3252 281.454 21.8363 286.572 21.9416 291.691C22.2047 308.87 22.137 326.057 22.0167 343.237C22.0468 348.032 21.5056 352.82 21.8138 357.607C24.5649 357.692 27.3161 357.699 30.0673 357.638C30.9768 346.185 31.3677 334.701 32.2622 323.248C33.6979 306.646 35.3366 290.059 36.9452 273.464C39.6512 273.695 42.8459 272.648 45.0859 274.665C43.9057 274.865 42.7106 275.058 41.5154 275.235C41.8687 281.623 42.4024 287.988 42.703 294.377C43.6502 303.944 44.7476 313.542 44.041 323.171C44.011 333.685 43.1315 344.184 43.4547 354.698C46.2961 354.667 49.2126 354.99 51.9713 354.159C52.6929 344.915 52.9184 335.602 53.6024 326.342C54.3917 306.677 54.4669 286.988 54.6022 267.307Z" fill="#425679"/>
<path d="M167.039 276.143C166.505 276.651 165.964 277.159 165.415 277.675C163.506 277.882 161.597 278.167 159.695 278.506C162.236 278.868 164.806 278.96 167.362 279.229C167.279 278.452 167.122 276.913 167.039 276.143Z" fill="#E1ECDE"/>
<path d="M50.2349 356.437C48.6413 356.476 47.0477 356.514 45.4391 356.553C45.4918 357.584 45.5294 358.623 45.5745 359.662H46.0104C47.3935 359.655 48.7691 359.601 50.1447 359.547C50.1822 358.5 50.2123 357.469 50.2349 356.437Z" fill="#FDFEF8"/>
<path d="M28.0001 359.27C26.5494 359.27 25.0911 359.262 23.6328 359.231C23.5877 359.978 23.5351 360.724 23.4825 361.486C25.0535 361.509 26.617 361.463 28.173 361.332C28.1204 360.64 28.0602 359.955 28.0001 359.27Z" fill="#FAFAFA"/>
</svg>
