<svg width="9" height="7" viewBox="0 0 9 7" fill="none" xmlns="http://www.w3.org/2000/svg">
<path d="M4.12946 6.7984C4.17075 6.86057 4.22599 6.91141 4.29043 6.94653C4.35488 6.98165 4.42659 7 4.49939 7C4.57219 7 4.6439 6.98165 4.70835 6.94653C4.77279 6.91141 4.82803 6.86057 4.86932 6.7984L8.91964 0.73215C8.96652 0.662181 8.99401 0.580228 8.99913 0.495195C9.00424 0.410163 8.98679 0.325302 8.94866 0.249833C8.91053 0.174365 8.85318 0.111175 8.78284 0.0671292C8.71251 0.0230835 8.63187 -0.000133618 8.54971 5.78465e-07H0.449073C0.367096 0.000351679 0.286762 0.0238674 0.216711 0.0680186C0.14666 0.11217 0.089541 0.175286 0.0514976 0.25058C0.0134543 0.325874 -0.00407424 0.410497 0.000796921 0.495348C0.00566808 0.580199 0.0327547 0.662067 0.0791438 0.73215L4.12946 6.7984Z" fill="#B1B1B1"/>
</svg>
