<svg width="58" height="68" viewBox="0 0 58 68" fill="none" xmlns="http://www.w3.org/2000/svg">
<g clip-path="url(#clip0)">
<path d="M38.2606 0.25563C39.1224 0.0285618 40.0453 -0.121272 40.9196 0.138234C41.5484 0.745294 41.5406 1.68292 41.3529 2.47225C41.209 2.84915 41.0729 3.23223 41.0135 3.63231C40.8195 4.91903 40.5083 6.19184 40.4504 7.49556C40.3816 9.31674 40.0765 11.1595 40.4144 12.9715C40.5098 14.4976 40.7961 15.999 41.0354 17.5082C43.3706 16.7729 45.6027 15.7411 47.7612 14.598C49.4442 13.682 51.0834 12.6702 52.8603 11.935C53.2748 11.7311 53.7128 11.9504 54.0709 12.162C54.5152 12.6069 54.8264 13.1908 54.8514 13.8226C54.9187 15.0274 54.8342 16.2354 54.8374 17.4433C54.5386 18.4211 54.4338 19.4452 54.0991 20.4137C53.0933 23.4568 51.3368 26.2634 48.989 28.4739C48.5354 28.8848 48.0725 29.2864 47.6548 29.7343C48.2633 30.0788 48.8874 30.3955 49.5287 30.6751C49.635 30.7199 49.8493 30.8094 49.9557 30.8527C51.5527 31.4984 53.2717 31.7718 54.9844 31.8892C55.7962 32.0143 56.6533 31.9602 57.4323 32.2275C58.2409 32.8886 58.1205 34.1969 57.4761 34.9384C56.6486 35.9455 55.8713 36.9974 54.9359 37.9134C53.7769 39.1044 52.4489 40.127 51.0193 40.9843C50.5094 41.287 49.9572 41.5187 49.4677 41.8555C50.1246 42.5135 51.0928 42.7529 51.9156 43.1592C52.3723 43.3492 52.8666 43.4697 53.2857 43.7384C53.719 44.0767 53.7159 44.7069 53.6173 45.1951C53.4343 45.6585 52.9369 45.8531 52.5475 46.1126C52.2159 46.3304 51.9187 46.5946 51.6262 46.8602C51.8702 47.6465 51.9609 48.4713 51.9124 49.2931C51.8874 49.5233 51.8545 49.755 51.817 49.9851C51.6794 50.6833 51.3306 51.312 51.1131 51.9839C51.2821 52.3022 51.5714 52.5354 51.8514 52.7563C51.9375 52.8212 52.1095 52.9509 52.1955 53.0158C52.7305 53.4946 53.6095 53.9256 53.5032 54.7659C53.5313 55.3853 53.0198 55.8194 52.474 56.0048C51.4901 56.2056 50.4844 56.0063 49.4927 56.1036C48.7638 56.1422 48.0552 56.3199 47.367 56.5485C47.2497 56.9038 47.0511 57.2544 47.0651 57.6375C47.1418 58.1812 47.3342 58.7033 47.4093 59.2501C47.4734 59.797 47.4562 60.3499 47.3999 60.8983C47.2998 61.4019 47.3013 62.0244 46.8587 62.3735C46.4551 62.6793 45.903 62.8369 45.4134 62.6577C44.5437 62.3797 43.9494 61.6042 43.0781 61.337C42.9061 61.4451 42.7528 61.5795 42.6105 61.7232C40.7929 63.7498 38.5312 65.3933 36.0348 66.5132C34.0061 67.3643 31.8273 67.8695 29.6234 67.9791C27.8058 68.0409 25.9586 68.0023 24.1911 67.5312C20.775 66.7635 17.6373 64.984 15.1066 62.6083C14.5716 62.1603 14.179 61.5718 13.6441 61.1269C12.948 60.7207 12.1409 60.4967 11.5356 59.9422C10.5752 59.2084 9.97148 58.1395 9.56637 57.0273C8.85625 57.0073 8.14769 57.0999 7.46729 57.2992C7.03402 57.4351 6.5726 57.432 6.14559 57.2745C5.9532 57.0737 5.74516 56.8744 5.62473 56.6211C5.473 56.133 5.64975 55.6294 5.83745 55.1799C5.8656 55.1197 5.92348 54.9976 5.9532 54.9374C6.30669 54.4045 6.6946 53.8947 7.0262 53.3479C6.21597 52.6095 5.6826 51.6596 5.13046 50.7328C5.03504 51.5684 5.00689 52.4149 5.12576 53.249C4.77696 52.0905 5.07728 50.8841 4.97561 49.7055C4.83171 48.4343 5.00845 47.1136 5.67009 45.9983C5.99074 45.4932 6.37239 45.0313 6.74465 44.5648C5.7655 42.9815 4.19041 41.9296 2.67162 40.907C2.21333 40.5471 1.56421 40.1532 1.66275 39.4797C1.66588 38.7491 2.31656 38.2471 2.98914 38.1065C4.33587 37.7065 5.59031 37.07 6.79783 36.3672C7.06999 36.1556 7.61275 35.9764 7.47042 35.5485C6.68365 32.1842 4.65183 29.0964 1.82855 27.0512C1.49382 26.7886 1.17161 26.5091 0.875986 26.2047C0.489643 25.7444 -0.109424 25.2486 0.0172716 24.5844C0.298817 23.7873 1.18881 23.1138 2.06943 23.3934C2.84837 23.6637 3.60072 24.0314 4.43754 24.104C7.05905 24.623 9.78222 24.4021 12.3427 23.6885C12.3834 20.1975 12.3646 16.705 12.3818 13.214C12.4804 10.0783 12.4225 6.93638 12.4976 3.80068C12.5398 2.8785 13.813 2.34713 14.531 2.92021C15.5789 3.68482 15.8589 5.01325 16.5784 6.02502C18.5711 8.97536 21.4523 11.28 24.6369 12.8819C24.9591 12.437 25.2735 11.9859 25.5582 11.5164C27.809 7.62685 30.9951 4.24091 34.8445 1.85747C35.93 1.22569 37.0233 0.553754 38.2606 0.25563ZM30.052 8.22156C28.4471 10.001 27.0425 11.9659 25.9711 14.1037C25.7834 14.459 25.6958 14.8776 25.4174 15.1788C25.0045 15.1495 24.6353 14.9502 24.2662 14.7834C23.0634 14.2026 21.8746 13.5847 20.7672 12.8402C19.5393 12.0122 18.4742 10.9834 17.3683 10.0088C15.9403 8.77455 14.972 7.13101 14.0602 5.51373C14.0226 11.0638 14.0555 16.6154 14.0445 22.1669C14.0617 23.1061 13.9898 24.0499 14.1165 24.9844C11.52 26.0287 8.66542 26.3978 5.87655 26.1955C4.86299 26.1306 3.87445 25.8974 2.87183 25.7614C6.23631 28.4337 8.69514 32.2923 9.33487 36.5387C9.38962 36.7318 9.14874 36.8074 9.05176 36.9295C7.47511 38.1745 5.67009 39.1415 3.74932 39.7593C5.85465 40.8947 7.56114 42.7159 8.60442 44.846C9.20192 44.6112 9.81976 44.3965 10.4736 44.4351C10.6597 44.5896 10.8505 44.7409 11.0429 44.8908C11.0445 46.125 11.046 47.3592 11.0492 48.5918C11.0648 48.8529 10.9819 49.1031 10.899 49.3472C10.6159 49.2622 10.4329 49.0351 10.4955 48.7432C10.5002 47.4704 10.5095 46.196 10.4908 44.9232C8.63414 44.9835 6.92453 46.454 6.6555 48.2767C6.39116 49.5125 6.8385 50.7992 7.63465 51.7584L7.7066 51.76C8.57939 52.7825 9.99338 53.1981 11.312 53.0158C11.6827 52.4844 12.1425 51.9963 12.7385 51.7136C12.7869 51.8156 12.8824 52.0179 12.9308 52.1199C12.3224 52.6018 11.7953 53.1734 11.3933 53.8345L11.387 53.9611C11.0805 54.5975 10.9866 55.3112 11.0601 56.0094C11.2259 58.0267 13.142 59.7923 15.2192 59.6579C16.5612 59.712 17.8016 58.9551 18.5837 57.9171C18.7166 57.6483 19.0232 57.7564 19.2515 57.795C18.4695 59.3428 16.7176 60.2588 14.9924 60.2465C15.2489 60.5075 15.4945 60.7809 15.7447 61.0497C17.8532 63.2756 20.5498 64.9871 23.5342 65.8027C26.7391 66.6476 30.1833 66.6445 33.3742 65.7378C36.637 64.811 39.5072 62.7859 41.6939 60.2495C40.6647 60.2156 39.6495 59.9267 38.794 59.3552C38.3435 58.8671 37.5677 58.4716 37.6146 57.7209C37.7929 57.7595 38.0181 57.7348 38.1261 57.9171C38.5234 58.3897 38.941 58.864 39.5009 59.1544C40.3722 59.6672 41.4311 59.7383 42.4149 59.5992C43.9009 59.2841 45.1319 58.0963 45.5323 56.6535C45.7747 55.6371 45.6918 54.5219 45.1459 53.6136C44.8128 52.9679 44.2028 52.5431 43.7273 52.0133C43.7883 51.9376 43.9134 51.7878 43.9744 51.7121C44.5782 51.987 44.9958 52.5076 45.4181 52.9926C47.4875 53.3973 49.6397 51.8588 50.0229 49.8399C50.281 48.6165 49.9791 47.2541 49.1017 46.332C48.3743 45.4824 47.2966 44.9278 46.1595 44.9294C46.1611 46.0925 46.1595 47.2557 46.1611 48.4204C46.1329 48.683 46.2471 49.0799 45.8717 49.1325C45.5667 48.9425 45.6558 48.5717 45.6386 48.2736C45.6574 44.2575 45.634 40.2413 45.6449 36.2251C45.648 33.2454 44.8222 30.2673 43.2502 27.7216C43.416 27.6475 43.5818 27.5749 43.7492 27.5023C44.1386 28.1572 44.514 28.8276 44.7862 29.5413C44.8863 29.5274 44.9864 29.5119 45.0896 29.498C47.0104 28.1634 48.7607 26.5616 50.0918 24.64C52.2878 21.5274 53.3499 17.6287 52.9369 13.8519C52.4067 14.0651 51.9312 14.3817 51.4385 14.6629C50.1137 15.4275 48.7701 16.1612 47.4061 16.8548C45.3149 17.9253 43.1063 18.7486 40.893 19.5348C40.5145 19.6738 40.1047 19.6507 39.709 19.646C38.5343 15.3982 38.2215 10.9248 38.7345 6.5533C38.8518 4.96382 39.2569 3.41142 39.4712 1.83584C35.7486 2.93565 32.5968 5.38398 30.052 8.22156ZM45.1319 30.3847C45.6136 31.6127 45.8764 32.9102 46.0672 34.2093C46.2096 35.2365 46.1345 36.2745 46.1751 37.3064C46.1439 38.6472 46.1689 39.9895 46.1642 41.3318C46.8352 41.2221 47.4609 40.9472 48.0818 40.6846C51.3572 39.2619 54.11 36.7827 56.0433 33.8293C55.524 33.8061 55.0032 33.803 54.487 33.7474C51.2226 33.5636 47.9942 32.4298 45.4009 30.4511C45.3336 30.4341 45.1991 30.4016 45.1319 30.3847ZM46.2549 42.0841C46.0813 42.8363 46.1564 43.6195 46.2596 44.3764C47.4077 44.4814 48.5558 44.9232 49.3269 45.7975C49.5177 45.9412 49.6366 46.2702 49.9213 46.2223C50.3905 45.7218 50.8973 45.2538 51.4792 44.88C49.5709 44.3084 47.8065 43.3136 46.2549 42.0841ZM45.7794 53.6151C45.9843 54.128 46.1392 54.6609 46.1783 55.2139C47.6799 54.6995 49.2487 54.4184 50.8394 54.3983C50.2419 53.853 49.6256 53.2907 49.305 52.5339C49.2409 52.5169 49.111 52.4813 49.0469 52.4643C48.171 53.266 46.9635 53.6429 45.7794 53.6151ZM7.69096 55.6263C8.60442 55.427 9.54603 55.4394 10.4736 55.5105C10.5455 54.8601 10.6566 54.2083 10.9522 53.6151C10.2577 53.6259 9.57262 53.5039 8.92038 53.2738C8.58252 54.0924 8.1649 54.8756 7.69096 55.6263ZM45.257 58.3882C44.7893 58.9891 44.1574 59.4247 43.5208 59.834C44.306 60.0595 44.9942 60.5152 45.6152 61.0296C45.6996 60.1569 45.5839 59.2888 45.4165 58.4345C45.3774 58.4222 45.2977 58.4006 45.257 58.3882Z" fill="#010001"/>
<path d="M30.0522 8.2208C32.597 5.38322 35.7488 2.9349 39.4715 1.83508C39.2572 3.41066 38.8521 4.96306 38.7347 6.55254C38.2217 10.924 38.5345 15.3974 39.7092 19.6453C40.1049 19.6499 40.5147 19.6731 40.8933 19.534C43.1065 18.7478 45.3151 17.9245 47.4063 16.854C48.7703 16.1605 50.1139 15.4267 51.4387 14.6621C51.9314 14.381 52.4069 14.0643 52.9372 13.8512C53.3501 17.6279 52.288 21.5267 50.092 24.6392C48.7609 26.5608 47.0106 28.1626 45.0899 29.4972C44.9866 29.5112 44.8865 29.5266 44.7864 29.5405C44.5142 28.8269 44.1389 28.1565 43.7494 27.5015C41.4126 23.7464 37.7212 20.7374 33.3963 19.5263C29.8473 18.5547 25.9995 18.6196 22.5036 19.775C18.9405 20.9567 15.8967 23.3958 13.6975 26.3724C12.3195 28.2692 11.3325 30.4503 10.882 32.7442C10.6615 33.722 10.5661 34.7198 10.5035 35.7177C10.4597 38.6232 10.527 41.5303 10.4738 44.4343C9.81999 44.3957 9.20216 44.6104 8.60465 44.8452C7.56137 42.7151 5.85489 40.8939 3.74955 39.7586C5.67032 39.1407 7.47534 38.1737 9.052 36.9287C9.14898 36.8067 9.38985 36.731 9.33511 36.5379C8.69537 32.2916 6.23654 28.433 2.87207 25.7607C3.87469 25.8966 4.86322 26.1298 5.87679 26.1947C8.66566 26.3971 11.5202 26.0279 14.1167 24.9837C13.99 24.0492 14.062 23.1054 14.0447 22.1662C14.0557 16.6146 14.0228 11.063 14.0604 5.51297C14.9723 7.13025 15.9405 8.7738 17.3685 10.008C18.4744 10.9827 19.5396 12.0114 20.7674 12.8394C21.8748 13.5839 23.0636 14.2018 24.2664 14.7826C24.6356 14.9494 25.0047 15.1487 25.4176 15.178C25.696 14.8768 25.7836 14.4582 25.9713 14.1029C27.0428 11.9651 28.4474 10.0003 30.0522 8.2208Z" fill="#A7CFE5"/>
<path d="M45.1321 30.3839C45.1993 30.4009 45.3339 30.4333 45.4011 30.4503C47.9945 32.4291 51.2229 33.5629 54.4872 33.7467C55.0034 33.8023 55.5242 33.8054 56.0435 33.8285C54.1103 36.782 51.3574 39.2612 48.0821 40.6838C47.4611 40.9464 46.8354 41.2214 46.1644 41.3311C46.1691 39.9887 46.1441 38.6464 46.1754 37.3056C46.1347 36.2738 46.2098 35.2358 46.0674 34.2085C45.8766 32.9095 45.6138 31.6119 45.1321 30.3839Z" fill="#A7CFE5"/>
<path d="M41.0136 3.63149C41.073 3.23142 41.2091 2.84834 41.353 2.47144C41.2107 2.95647 41.2748 3.45385 41.3827 3.93734C41.6392 5.20552 40.8697 6.35786 40.7884 7.60287C40.7868 7.61368 40.7821 7.63685 40.7805 7.64921C40.5709 8.60228 40.4896 9.57697 40.4145 10.5486C40.3254 11.3534 40.3692 12.1643 40.4145 12.9706C40.0767 11.1587 40.3817 9.31592 40.4505 7.49474C40.5084 6.19103 40.8196 4.91821 41.0136 3.63149Z" fill="#14401E"/>
<path d="M40.4146 10.5487C40.4896 9.57705 40.571 8.60236 40.7806 7.64929C40.8478 8.60236 41.1169 9.75778 40.4146 10.5487Z" fill="#74F1A1"/>
<path d="M22.5034 19.775C25.9993 18.6195 29.8471 18.5547 33.3961 19.5263C37.721 20.7373 41.4123 23.7463 43.7492 27.5014C43.5818 27.574 43.416 27.6467 43.2502 27.7208C42.6167 26.7044 41.8722 25.759 41.0635 24.8755C38.5406 22.1893 35.1652 20.2414 31.4832 19.6545C28.0092 19.1154 24.3397 19.4166 21.1285 20.8948C18.9919 21.8711 17.0852 23.3154 15.5023 25.03C13.056 27.5988 11.52 30.9584 11.1415 34.4602C11.0805 33.8841 10.96 33.3172 10.8818 32.7441C11.3323 30.4502 12.3193 28.2692 13.6973 26.3723C15.8965 23.3957 18.9403 20.9566 22.5034 19.775Z" fill="#000308"/>
<path d="M21.1287 20.8949C24.3399 19.4166 28.0093 19.1154 31.4833 19.6545C35.1653 20.2415 38.5407 22.1893 41.0637 24.8755C40.912 25.0223 40.7634 25.169 40.6148 25.3158C40.0063 24.4198 39.0319 23.8746 38.1184 23.3324C34.6257 21.3336 30.4791 20.5798 26.4796 20.9598C22.9744 21.2193 19.5504 22.4998 16.76 24.6129C16.5144 24.8029 16.297 25.0269 16.1093 25.271C15.9076 25.1906 15.7042 25.1103 15.5024 25.03C17.0854 23.3154 18.992 21.8711 21.1287 20.8949Z" fill="#D0C5BB"/>
<path d="M16.7601 24.6129C19.5505 22.4998 22.9744 21.2193 26.4796 20.9597C30.4792 20.5798 34.6257 21.3336 38.1184 23.3324C39.0319 23.8746 40.0064 24.4198 40.6148 25.3157C40.9761 25.9892 41.0715 26.8388 40.6993 27.5293C40.2895 28.3866 39.326 28.9566 38.364 28.8731C37.5694 28.8469 36.9438 28.3078 36.2696 27.9633C33.3869 26.4403 30.0365 25.9429 26.8019 26.19C24.5933 26.3291 22.4176 26.9469 20.4546 27.9525C19.7272 28.3109 19.0468 28.884 18.1928 28.8793C16.9587 28.9179 15.8278 27.8722 15.7746 26.6565C15.7293 26.17 15.8873 25.6973 16.1094 25.271C16.2971 25.0269 16.5145 24.8029 16.7601 24.6129ZM27.2899 21.4432C23.6407 21.5668 20.0354 22.8195 17.1276 25.0037C16.2924 25.5305 16.0265 26.7523 16.6349 27.5447C17.1871 28.3866 18.4399 28.5627 19.258 28.005C21.9765 26.3615 25.183 25.5428 28.3644 25.6077C31.5834 25.5459 34.829 26.3908 37.56 28.0838C38.2436 28.4607 39.1883 28.4051 39.7764 27.8737C40.5225 27.2435 40.5867 25.9815 39.9062 25.2818C39.2352 24.5758 38.3718 24.097 37.5287 23.6228C35.3921 22.4365 32.988 21.7722 30.5621 21.4942C29.4734 21.4154 28.3801 21.4232 27.2899 21.4432Z" fill="#000305"/>
<path d="M27.2897 21.4433C28.3799 21.4232 29.4732 21.4155 30.5619 21.4943C32.9878 21.7723 35.3919 22.4365 37.5285 23.6228C38.3716 24.097 39.235 24.5759 39.906 25.2818C40.5864 25.9816 40.5223 27.2436 39.7762 27.8738C39.1881 28.4052 38.2434 28.4608 37.5598 28.0839C34.8288 26.3909 31.5832 25.546 28.3642 25.6077C25.1828 25.5429 21.9763 26.3615 19.2578 28.0051C18.4397 28.5627 17.1869 28.3866 16.6347 27.5448C16.0263 26.7524 16.2922 25.5305 17.1274 25.0038C20.0352 22.8196 23.6405 21.5669 27.2897 21.4433Z" fill="#97D9E8"/>
<path d="M40.6146 25.3157C40.7632 25.169 40.9118 25.0222 41.0635 24.8755C41.8722 25.759 42.6167 26.7044 43.2502 27.7208C44.8221 30.2664 45.648 33.2446 45.6449 36.2243C45.6339 40.2404 45.6574 44.2566 45.6386 48.2728C45.6558 48.5709 45.5667 48.9416 45.8717 49.1316C46.2471 49.0791 46.1329 48.6821 46.1611 48.4195C46.1595 47.2549 46.1611 46.0917 46.1595 44.9286C47.2966 44.927 48.3743 45.4816 49.1016 46.3311C49.9791 47.2533 50.281 48.6157 50.0229 49.8391C49.6397 51.858 47.4874 53.3965 45.4181 52.9918C44.9958 52.5068 44.5781 51.9862 43.9744 51.7113C43.9134 51.787 43.7882 51.9368 43.7272 52.0125C43.5458 52.2782 43.3988 52.5639 43.2502 52.8497C42.2257 52.9192 41.1965 52.8296 40.1735 52.9208C40.1125 53.1138 40.0515 53.3085 39.9905 53.5046C39.8435 53.0984 39.6683 52.7014 39.4697 52.3183C39.174 52.3956 38.8768 52.4728 38.5812 52.5547C35.6375 50.4539 31.9915 49.3618 28.3674 49.419C25.8553 49.4051 23.3199 49.8515 21.0268 50.8879C20.6374 50.752 20.2401 50.6331 19.8412 50.5234C19.896 50.4431 19.9491 50.3628 20.0039 50.284C17.8188 50.2716 15.6337 50.2685 13.4486 50.2824C13.4486 50.4956 13.4486 50.7088 13.447 50.9235C12.923 50.9714 12.6399 50.5389 12.2629 50.2747C11.8187 50.3489 11.3839 50.6362 10.9256 50.4771C10.0716 50.2454 9.14404 50.1295 8.28063 50.3797C8.11327 50.8215 8.28376 51.3112 8.31817 51.7669C8.11484 51.7638 7.90993 51.7607 7.70659 51.7591L7.63464 51.7576C6.8385 50.7984 6.39115 49.5116 6.65549 48.2759C6.92452 46.4532 8.63413 44.9826 10.4908 44.9224C10.5095 46.1952 10.5002 47.4696 10.4955 48.7424C10.4329 49.0343 10.6159 49.2614 10.899 49.3464C10.9819 49.1023 11.0648 48.8521 11.0492 48.591C11.046 47.3583 11.0445 46.1241 11.0429 44.8899C11.0476 42.0956 11.057 39.3028 11.0398 36.5085C11.0382 35.8242 11.0758 35.1415 11.1415 34.4602C11.52 30.9584 13.056 27.5988 15.5023 25.03C15.7041 25.1103 15.9074 25.1906 16.1092 25.2709C15.8871 25.6973 15.7291 26.1699 15.7744 26.6565C15.8276 27.8722 16.9585 28.9179 18.1926 28.8793C19.0466 28.8839 19.727 28.3109 20.4544 27.9525C22.4174 26.9469 24.5931 26.329 26.8017 26.19C30.0363 25.9429 33.3867 26.4403 36.2694 27.9633C36.9436 28.3078 37.5692 28.8469 38.3638 28.8731C39.3257 28.9565 40.2893 28.3866 40.6991 27.5293C41.0713 26.8388 40.9759 25.9892 40.6146 25.3157ZM35.1026 29.4292C33.4805 29.4802 31.8757 30.1521 30.773 31.3415C29.5248 32.5155 28.7725 34.1992 28.8491 35.9122C28.6176 39.411 31.8726 42.627 35.3966 42.5204C38.9144 42.6857 42.1803 39.5438 42.0818 36.0636C42.2038 33.9011 41.0103 31.8049 39.2397 30.5785C38.0604 29.7103 36.5572 29.3582 35.1026 29.4292ZM19.3438 29.6686C17.5873 30.1629 16.1279 31.4682 15.277 33.0422C14.5935 34.2965 14.5435 35.7717 14.7014 37.1573C15.105 39.4619 16.8772 41.4716 19.1233 42.2037C20.0711 42.5343 21.0941 42.5698 22.0873 42.4864C24.5618 42.213 26.7672 40.4026 27.5509 38.0779C27.9278 37.0862 27.8903 36.0065 27.8183 34.9684C27.5634 32.948 26.1823 31.1824 24.4179 30.1907C22.8913 29.3319 21.019 29.267 19.3438 29.6686ZM15.4741 42.4138C16.4095 43.8967 17.994 44.9857 19.7411 45.2993C21.3631 45.6268 23.115 45.3209 24.5243 44.4636C24.7229 44.3802 24.6916 44.1439 24.7386 43.9755C24.2099 43.9276 23.8063 44.3122 23.3324 44.4729C22.2171 44.9394 20.9658 44.91 19.7865 44.7679C18.2411 44.4698 16.8819 43.509 15.984 42.247C15.8996 41.9875 15.2379 42.0956 15.4741 42.4138ZM40.649 42.1574C40.014 43.0379 39.1584 43.7592 38.1777 44.2365C36.5431 44.9672 34.5754 44.9749 32.9628 44.1887C32.625 44.0388 32.3121 43.7144 31.9133 43.8365C31.7553 44.1794 32.1197 44.3431 32.3622 44.4914C33.8763 45.3425 35.7313 45.4908 37.405 45.0769C38.9191 44.6567 40.2705 43.6696 41.1402 42.3798C41.2668 41.9968 40.8539 41.8716 40.649 42.1574ZM30.2021 42.8201C30.1505 44.0234 30.2037 45.2298 30.1833 46.4346C30.2037 47.2688 29.4685 47.9948 28.663 48.1307C27.6698 48.33 26.5874 47.5499 26.5248 46.5428C26.4763 45.4661 26.5279 44.3879 26.5045 43.3097C26.5483 42.9575 26.2479 42.8633 25.9601 42.9529C25.9523 44.1052 25.9492 45.2576 25.9586 46.4099C25.9633 47.5808 27.0097 48.6281 28.189 48.6837C29.2042 48.7779 30.199 48.1214 30.5838 47.2054C30.8293 46.6694 30.7449 46.0685 30.7511 45.4985C30.7245 44.615 30.7855 43.7268 30.7245 42.8448C30.6745 42.5513 30.2834 42.5575 30.2021 42.8201Z" fill="#CEC5B8"/>
<path d="M31.9853 31.0017C33.3633 30.0224 35.1574 29.7474 36.8013 30.0749C39.1507 30.5893 41.1387 32.6082 41.4625 34.9823C37.8915 37.2685 32.9316 37.1804 29.4937 34.6827C29.7627 33.1766 30.7763 31.9069 31.9853 31.0017Z" fill="#CEC5B8"/>
<path d="M35.1027 29.4292C36.5574 29.3581 38.0605 29.7103 39.2399 30.5784C41.0105 31.8049 42.2039 33.901 42.0819 36.0636C42.1805 39.5438 38.9146 42.6857 35.3968 42.5204C31.8728 42.627 28.6178 39.4109 28.8493 35.9122C28.7727 34.1992 29.525 32.5155 30.7732 31.3415C31.8759 30.1521 33.4807 29.4802 35.1027 29.4292ZM31.9854 31.0017C30.7763 31.9069 29.7628 33.1766 29.4937 34.6826C32.9317 37.1804 37.8916 37.2685 41.4625 34.9823C41.1388 32.6081 39.1507 30.5892 36.8014 30.0749C35.1575 29.7474 33.3634 30.0223 31.9854 31.0017ZM29.3795 35.282C29.1731 37.0924 29.8066 38.9954 31.1658 40.2481C32.2935 41.4128 33.9328 42.0462 35.561 41.9952C37.4724 42.0044 39.3212 41.0066 40.424 39.4773C41.2764 38.3744 41.6268 36.9564 41.5595 35.5832C40.7149 35.9879 39.8937 36.459 38.9787 36.6954C37.8275 37.0738 36.6059 37.1418 35.4015 37.1372C33.2555 37.1511 31.1611 36.442 29.3795 35.282Z" fill="#060000"/>
<path d="M19.3439 29.6687C21.0191 29.2671 22.8914 29.332 24.418 30.1908C26.1823 31.1825 27.5635 32.9481 27.8184 34.9685C27.8904 36.0065 27.9279 37.0863 27.551 38.078C26.7673 40.4027 24.5619 42.2131 22.0874 42.4865C21.0942 42.5699 20.0712 42.5344 19.1234 42.2038C16.8773 41.4716 15.1051 39.462 14.7015 37.1573C14.5436 35.7717 14.5936 34.2966 15.2771 33.0423C16.128 31.4683 17.5874 30.163 19.3439 29.6687ZM17.9534 30.8844C16.5957 31.8081 15.5165 33.2153 15.2365 34.8449C15.981 34.6966 16.6817 34.3923 17.4294 34.2533C20.6515 33.5659 24.0504 33.6941 27.2069 34.6364C26.7142 32.3688 24.759 30.5152 22.4738 30.0348C20.93 29.7938 19.2688 30.0085 17.9534 30.8844ZM15.1489 35.5261C15.0191 37.3705 15.7526 39.2921 17.2198 40.4691C18.7136 39.8126 20.3278 39.4852 21.9404 39.2735C23.4185 39.1546 24.9044 39.2025 26.3826 39.2782C27.1459 38.0965 27.4775 36.6584 27.3226 35.2666C26.1401 34.8805 24.9216 34.6163 23.6891 34.4603C22.2829 34.3645 20.8658 34.3676 19.4597 34.451C17.9878 34.641 16.5175 34.9469 15.1489 35.5261ZM17.6797 40.8584C19.0373 41.9088 20.8893 42.1899 22.5535 41.864C23.8862 41.6122 25.0562 40.8244 25.9493 39.8373C23.1714 39.5176 20.284 39.8312 17.6797 40.8584Z" fill="#070100"/>
<path d="M17.9535 30.8843C19.2689 30.0084 20.9301 29.7937 22.4739 30.0347C24.7591 30.5151 26.7143 32.3687 27.207 34.6363C24.0505 33.6941 20.6516 33.5659 17.4295 34.2532C16.6818 34.3923 15.9811 34.6966 15.2366 34.8449C15.5166 33.2152 16.5958 31.808 17.9535 30.8843Z" fill="#CEC5B9"/>
<path d="M10.5034 35.7176C10.566 34.7198 10.6614 33.7219 10.8819 32.7441C10.9601 33.3172 11.0806 33.8841 11.1416 34.4603C11.0759 35.1415 11.0384 35.8242 11.0399 36.5085C10.8209 36.2737 10.6239 36.0158 10.5034 35.7176Z" fill="#000425"/>
<path d="M15.149 35.5261C16.5176 34.9469 17.9879 34.641 19.4598 34.451C20.8659 34.3676 22.283 34.3645 23.6892 34.4603C24.9217 34.6163 26.1402 34.8804 27.3227 35.2666C27.4775 36.6584 27.146 38.0965 26.3826 39.2781C24.9045 39.2024 23.4186 39.1546 21.9405 39.2735C20.3279 39.4851 18.7137 39.8126 17.2199 40.4691C15.7527 39.292 15.0191 37.3705 15.149 35.5261ZM19.4832 36.8962C18.9639 36.9951 18.7496 37.5512 19.0812 37.9652C19.2314 38.0285 19.3831 38.0872 19.538 38.1428C19.599 38.2865 19.6615 38.4301 19.7225 38.5753C19.8993 38.6386 20.0776 38.7035 20.2543 38.7684C20.4952 38.6309 20.7079 38.4502 20.8065 38.1876C21.0646 38.0084 21.4853 37.8663 21.4071 37.477C21.4697 37.1295 21.0771 36.9657 20.8096 36.8792C20.7251 36.6939 20.6407 36.5101 20.5562 36.3247C20.3232 36.3046 20.0901 36.2907 19.857 36.2815C19.7257 36.4823 19.6037 36.6877 19.4832 36.8962Z" fill="white"/>
<path d="M29.3796 35.282C31.1611 36.442 33.2555 37.151 35.4015 37.1371C36.6059 37.1418 37.8275 37.0738 38.9787 36.6954C39.8937 36.459 40.7149 35.9879 41.5596 35.5832C41.6268 36.9564 41.2764 38.3744 40.424 39.4773C39.3213 41.0066 37.4725 42.0044 35.5611 41.9952C33.9328 42.0461 32.2936 41.4128 31.1658 40.2481C29.8066 38.9954 29.1731 37.0923 29.3796 35.282ZM35.9193 38.4239C35.7144 38.5505 35.5095 38.6787 35.3077 38.81C35.2389 39.2518 35.4187 39.6781 35.9036 39.7507C36.0037 40.0072 36.1554 40.3516 36.4917 40.3207C36.8781 40.3887 37.0845 40.0226 37.2378 39.7399C37.7384 39.5947 37.8995 39.0912 37.6476 38.6571C37.499 38.6077 37.352 38.5567 37.205 38.5073C37.1362 38.342 37.0673 38.1783 37.0001 38.0145C36.5762 37.7288 36.0162 37.9064 35.9193 38.4239Z" fill="white"/>
<path d="M10.4736 44.4343C10.5268 41.5303 10.4596 38.6232 10.5034 35.7177C10.6238 36.0158 10.8209 36.2737 11.0399 36.5085C11.0571 39.3029 11.0477 42.0956 11.043 44.89C10.8506 44.7401 10.6598 44.5888 10.4736 44.4343Z" fill="#00080C"/>
<path d="M19.4832 36.8962C19.6036 36.6876 19.7256 36.4822 19.857 36.2814C20.0901 36.2906 20.3231 36.3045 20.5562 36.3246C20.6407 36.51 20.7251 36.6938 20.8096 36.8792C21.0771 36.9657 21.4697 37.1294 21.4071 37.477C21.4853 37.8662 21.0645 38.0083 20.8065 38.1875C20.7079 38.4501 20.4952 38.6308 20.2543 38.7683C20.0776 38.7034 19.8993 38.6386 19.7225 38.5752C19.6615 38.43 19.5989 38.2864 19.5379 38.1427C19.3831 38.0871 19.2314 38.0284 19.0812 37.9651C18.7496 37.5511 18.9639 36.995 19.4832 36.8962Z" fill="#030002"/>
<path d="M35.9192 38.4239C36.0162 37.9064 36.5761 37.7288 37 38.0146C37.0673 38.1783 37.1361 38.342 37.2049 38.5073C37.3519 38.5568 37.499 38.6077 37.6476 38.6572C37.8994 39.0912 37.7383 39.5948 37.2378 39.74C37.0845 40.0227 36.878 40.3887 36.4917 40.3208C36.1554 40.3517 36.0036 40.0072 35.9035 39.7508C35.4186 39.6782 35.2388 39.2519 35.3076 38.8101C35.5094 38.6788 35.7143 38.5506 35.9192 38.4239Z" fill="#030103"/>
<path d="M17.6797 40.8584C20.284 39.8312 23.1714 39.5176 25.9493 39.8373C25.0562 40.8244 23.8862 41.6122 22.5536 41.864C20.8893 42.1899 19.0374 41.9088 17.6797 40.8584Z" fill="#CDC5BA"/>
<path d="M15.4742 42.4139C15.2381 42.0957 15.8997 41.9875 15.9842 42.2471C16.882 43.5091 18.2412 44.4699 19.7866 44.768C20.9659 44.9101 22.2173 44.9394 23.3325 44.4729C23.8064 44.3123 24.21 43.9277 24.7387 43.9756C24.6917 44.1439 24.723 44.3803 24.5244 44.4637C23.1151 45.321 21.3632 45.6268 19.7412 45.2994C17.9941 44.9858 16.4096 43.8968 15.4742 42.4139Z" fill="#070000"/>
<path d="M40.6492 42.1574C40.8541 41.8717 41.267 41.9968 41.1403 42.3799C40.2706 43.6697 38.9192 44.6567 37.4051 45.0769C35.7315 45.4909 33.8764 45.3426 32.3624 44.4914C32.1199 44.3432 31.7555 44.1794 31.9134 43.8365C32.3123 43.7145 32.6251 44.0389 32.963 44.1887C34.5756 44.9749 36.5433 44.9672 38.1778 44.2366C39.1585 43.7593 40.0141 43.0379 40.6492 42.1574Z" fill="#070000"/>
<path d="M30.2022 42.8201C30.2835 42.5575 30.6746 42.5514 30.7246 42.8448C30.7856 43.7269 30.7246 44.6151 30.7512 45.4986C30.7449 46.0686 30.8294 46.6695 30.5838 47.2055C30.1991 48.1215 29.2043 48.778 28.1891 48.6837C27.0098 48.6281 25.9634 47.5808 25.9587 46.41C25.9493 45.2576 25.9524 44.1053 25.9602 42.953C26.248 42.8634 26.5483 42.9576 26.5046 43.3098C26.528 44.388 26.4764 45.4662 26.5249 46.5428C26.5875 47.5499 27.6698 48.33 28.6631 48.1307C29.4686 47.9948 30.2038 47.2688 30.1834 46.4347C30.2038 45.2298 30.1506 44.0234 30.2022 42.8201Z" fill="#070000"/>
<path d="M46.255 42.0833C47.8067 43.3128 49.571 44.3076 51.4793 44.8791C50.8974 45.2529 50.3906 45.721 49.9214 46.2215C49.6367 46.2693 49.5178 45.9403 49.327 45.7967C48.5559 44.9224 47.4078 44.4806 46.2597 44.3756C46.1565 43.6187 46.0814 42.8355 46.255 42.0833Z" fill="#ABCFE3"/>
<path d="M21.0271 50.888C23.3201 49.8515 25.8556 49.4051 28.3676 49.419C31.9917 49.3619 35.6377 50.4539 38.5814 52.5547C38.8786 52.7663 39.1695 52.9857 39.4652 53.2019C39.3776 53.3456 39.2884 53.4892 39.1883 53.6252C38.4579 53.1757 37.8009 52.618 37.0486 52.1994C35.4594 51.2865 33.7216 50.5852 31.9025 50.2856C31.8994 50.8185 31.8963 51.3529 31.9166 51.8874C31.8744 54.2863 31.9166 56.6867 31.8978 59.0856C31.8947 59.4023 31.7915 59.7066 31.682 60.0032C31.2925 60.6303 30.6888 61.1663 29.9302 61.2822C28.9244 61.483 27.9234 60.9176 27.3884 60.0943C27.1726 59.634 27.0834 59.1289 27.0756 58.6253C27.0584 57.1857 27.1116 55.746 27.0662 54.3079C27.0506 53.5557 25.89 53.3688 25.5599 54.016C25.3488 54.5705 25.341 55.2224 24.9108 55.6812C24.1616 56.6404 22.635 56.8706 21.6558 56.1214C21.1694 55.797 20.9035 55.2625 20.672 54.7482C20.611 53.7256 20.6704 52.7015 20.636 51.6804C19.5787 52.1732 18.6277 52.8497 17.686 53.5279C17.4514 53.7781 17.3404 53.3271 17.259 53.1788C18.4447 52.3091 19.6772 51.4889 21.0271 50.888ZM21.2101 51.3792C21.1788 52.3508 21.196 53.324 21.1991 54.2956C21.2116 55.4093 22.4426 56.3021 23.5234 55.9623C24.2867 55.7723 24.8608 55.0586 24.8983 54.2863C24.9796 53.5371 25.7555 52.9579 26.5094 53.1108C27.0709 53.1649 27.415 53.6545 27.6606 54.104C27.6199 55.6642 27.6481 57.2274 27.6465 58.7891C27.6309 59.3374 27.8123 59.9136 28.2503 60.275C28.9479 60.9578 30.2383 60.9192 30.8733 60.17C31.2597 59.8178 31.3723 59.2787 31.3723 58.7798C31.377 55.9144 31.3567 53.0506 31.3832 50.1867C31.1486 50.1435 30.914 50.1018 30.6794 50.0678C27.4807 49.677 24.1616 50.0801 21.2101 51.3792Z" fill="#010100"/>
<path d="M21.2099 51.3791C24.1614 50.0801 27.4805 49.6769 30.6792 50.0677C30.8528 50.1851 31.0233 50.3102 31.1938 50.4338C31.1813 52.1391 31.2439 53.8491 31.1109 55.5498C31.0562 55.2409 31.003 54.9335 30.9498 54.6245C30.5228 54.6137 30.0786 54.5288 29.6625 54.657C29.3732 55.0802 29.0603 55.5035 28.4894 55.5189C28.3471 54.9767 28.0092 54.5319 27.6604 54.104C27.4148 53.6545 27.0707 53.1648 26.5092 53.1107C25.7553 52.9578 24.9795 53.5371 24.8981 54.2862C24.8606 55.0586 24.2866 55.7722 23.5233 55.9622C22.4424 56.3021 21.2114 55.4092 21.1989 54.2955C21.1958 53.3239 21.1786 52.3508 21.2099 51.3791Z" fill="#C2D4BE"/>
<path d="M30.6793 50.0677C30.914 50.1017 31.1486 50.1434 31.3832 50.1867C31.3566 53.0505 31.377 55.9144 31.3723 58.7798C31.3723 59.2787 31.2596 59.8178 30.8733 60.17C30.2383 60.9192 28.9478 60.9578 28.2502 60.275C27.8123 59.9136 27.6308 59.3374 27.6465 58.789C27.648 57.2274 27.6199 55.6641 27.6606 54.104C28.0094 54.5319 28.3472 54.9768 28.4895 55.5189C29.0605 55.5035 29.3733 55.0802 29.6627 54.657C30.0787 54.5288 30.5229 54.6138 30.9499 54.6246C31.0031 54.9335 31.0563 55.2409 31.111 55.5498C31.244 53.8491 31.1814 52.1392 31.1939 50.4338C31.0235 50.3103 30.853 50.1851 30.6793 50.0677Z" fill="#BBCCB7"/>
<path d="M8.28058 50.3797C9.14399 50.1295 10.0715 50.2453 10.9255 50.477C11.3838 50.6362 11.8187 50.3488 12.2629 50.2747C12.6399 50.5388 12.923 50.9713 13.4469 50.9235C13.4485 50.7088 13.4485 50.4956 13.4485 50.2824C15.6336 50.2685 17.8187 50.2716 20.0038 50.284C19.9491 50.3627 19.8959 50.4431 19.8412 50.5234C20.24 50.6331 20.6373 50.752 21.0268 50.8879C19.6769 51.4888 18.4444 52.309 17.2588 53.1787C17.3401 53.327 17.4512 53.778 17.6858 53.5278C18.6274 52.8497 19.5784 52.1731 20.6357 51.6804C20.6702 52.7014 20.6107 53.7255 20.6717 54.7481C20.5591 54.5751 20.4355 54.4113 20.3135 54.2461C19.239 54.2816 18.1378 54.4484 17.082 54.1627C16.0153 53.8676 14.9016 54.0437 13.8114 53.985C13.1028 53.9387 12.4256 54.1673 11.7968 54.4654C11.6857 54.7929 11.57 55.1188 11.448 55.4417C11.376 54.9504 11.3573 54.4546 11.387 53.9603L11.3932 53.8336C11.7952 53.1725 12.3223 52.601 12.9308 52.119C12.8823 52.0171 12.7869 51.8147 12.7384 51.7128C12.1425 51.9955 11.6826 52.4836 11.3119 53.015C9.99332 53.1972 8.57933 52.7817 7.70654 51.7591C7.90988 51.7607 8.11478 51.7638 8.31812 51.7669C8.28371 51.3112 8.11322 50.8215 8.28058 50.3797Z" fill="#C8BFB3"/>
<path d="M31.9024 50.2855C33.7215 50.5852 35.4593 51.2865 37.0485 52.1994C37.8008 52.618 38.4578 53.1756 39.1882 53.6251C39.2883 53.4892 39.3775 53.3455 39.4651 53.2019C39.1694 52.9856 38.8785 52.7663 38.5813 52.5547C38.877 52.4728 39.1741 52.3956 39.4698 52.3183C39.6684 52.7014 39.8436 53.0984 39.9906 53.5046C40.0516 53.3085 40.1126 53.1138 40.1736 52.9208C41.1966 52.8296 42.2258 52.9192 43.2503 52.8497C43.3989 52.5639 43.5459 52.2782 43.7274 52.0125C44.2029 52.5423 44.8129 52.9671 45.146 53.6128C45.6919 54.521 45.7748 55.6363 45.5324 56.6527C45.2274 56.5446 44.9224 56.438 44.6189 56.3299C44.5407 56.075 44.4625 55.8232 44.3859 55.5699C42.4338 55.4757 40.4786 55.5714 38.525 55.5297C36.7794 55.5622 35.0338 55.5004 33.2898 55.556C33.0411 56.1167 32.88 56.7099 32.7518 57.3076C32.3247 56.5816 32.1558 55.7475 32.1292 54.9165C32.0463 53.9063 32.2763 52.8636 31.9165 51.8874C31.8962 51.3529 31.8993 50.8184 31.9024 50.2855Z" fill="#C5BCB0"/>
<path d="M31.9165 51.8875C32.2763 52.8637 32.0463 53.9064 32.1292 54.9166C32.1558 55.7476 32.3247 56.5817 32.7518 57.3077C32.88 56.71 33.0411 56.1168 33.2898 55.5561C35.0338 55.5005 36.7794 55.5623 38.525 55.5298C40.4786 55.5715 42.4338 55.4758 44.3858 55.57C44.4625 55.8233 44.5407 56.0751 44.6189 56.33C44.9223 56.4381 45.2273 56.5447 45.5324 56.6528C45.1319 58.0955 43.901 59.2834 42.415 59.5985C41.4312 59.7375 40.3723 59.6665 39.501 59.1536C38.9411 58.8632 38.5234 58.389 38.1261 57.9164C38.0182 57.7341 37.793 57.7588 37.6147 57.7202C37.5677 58.4709 38.3436 58.8663 38.794 59.3545C38.7346 59.5568 38.6752 59.7607 38.6173 59.9661C36.7372 59.7406 34.8414 59.9522 32.9567 59.8271C32.9254 59.6464 32.8941 59.4657 32.8628 59.2865C32.6172 59.6989 32.342 60.0913 32.0448 60.4697C31.9228 60.3137 31.8023 60.1577 31.6819 60.0032C31.7914 59.7066 31.8946 59.4023 31.8977 59.0857C31.9165 56.6868 31.8743 54.2863 31.9165 51.8875Z" fill="#BFB7AB"/>
<path d="M45.7795 53.6143C46.9636 53.6421 48.1711 53.2652 49.047 52.4635C49.1112 52.4805 49.241 52.516 49.3051 52.533C49.6258 53.2899 50.242 53.8522 50.8395 54.3974C49.2488 54.4175 47.68 54.6987 46.1784 55.213C46.1393 54.66 45.9844 54.1271 45.7795 53.6143Z" fill="#A5C5D6"/>
<path d="M7.69116 55.6255C8.1651 54.8748 8.58272 54.0916 8.92058 53.2729C9.57283 53.5031 10.2579 53.6251 10.9524 53.6143C10.6568 54.2075 10.5457 54.8593 10.4738 55.5096C9.54624 55.4386 8.60462 55.4262 7.69116 55.6255Z" fill="#A4C5D8"/>
<path d="M25.5597 54.016C25.8898 53.3688 27.0504 53.5557 27.066 54.3079C27.1114 55.746 27.0582 57.1857 27.0754 58.6253C27.0832 59.1289 27.1724 59.634 27.3882 60.0943C26.8674 60.5407 26.4169 59.8116 25.8694 59.8518C24.2521 59.841 22.6348 59.8904 21.0175 59.8502C20.4513 59.8487 19.8772 59.7977 19.3173 59.9074C19.0107 60.1731 18.8308 60.5469 18.6118 60.8821C18.2051 60.9254 17.7813 60.9207 17.3918 61.0613C17.2276 61.2899 17.1149 61.5494 16.9882 61.7996C16.6801 61.5015 16.3845 61.1941 16.0967 60.879C15.9794 60.9346 15.8621 60.9902 15.7447 61.0489C15.4945 60.7801 15.2489 60.5067 14.9924 60.2457C16.7176 60.258 18.4695 59.342 19.2516 57.7943C19.0232 57.7557 18.7166 57.6475 18.5837 57.9163C17.8016 58.9543 16.5612 59.7112 15.2192 59.6572C13.142 59.7915 11.2259 58.026 11.0601 56.0086C10.9866 55.3104 11.0805 54.5968 11.387 53.9604C11.3573 54.4547 11.3761 54.9505 11.448 55.4417C11.57 55.1189 11.6858 54.793 11.7968 54.4655C12.4256 54.1674 13.1029 53.9387 13.8115 53.9851C14.9017 54.0438 16.0153 53.8677 17.0821 54.1627C18.1379 54.4485 19.239 54.2817 20.3136 54.2461C20.4356 54.4114 20.5592 54.5752 20.6718 54.7482C20.9033 55.2625 21.1692 55.797 21.6556 56.1214C22.6348 56.8706 24.1614 56.6404 24.9106 55.6811C25.3408 55.2224 25.3486 54.5705 25.5597 54.016Z" fill="#BFB7AC"/>
<path d="M45.2571 58.3875C45.2977 58.3998 45.3775 58.4214 45.4166 58.4338C45.584 59.288 45.6997 60.1561 45.6153 61.0289C44.9943 60.5145 44.3061 60.0588 43.5209 59.8333C44.1575 59.4239 44.7894 58.9883 45.2571 58.3875Z" fill="#A2BDCC"/>
<path d="M32.0448 60.4696C32.342 60.0912 32.6173 59.6988 32.8629 59.2864C32.8941 59.4656 32.9254 59.6463 32.9567 59.827C34.8415 59.9521 36.7372 59.7405 38.6173 59.966C38.6752 59.7606 38.7346 59.5567 38.7941 59.3543C39.6497 59.9259 40.6648 60.2147 41.694 60.2487C39.5073 62.7851 36.6371 64.8102 33.3743 65.737C30.1835 66.6437 26.7392 66.6468 23.5343 65.8018C20.5499 64.9862 17.8533 63.2747 15.7449 61.0489C15.8622 60.9902 15.9795 60.9345 16.0968 60.8789C16.3846 61.1941 16.6802 61.5014 16.9884 61.7996C17.1151 61.5493 17.2277 61.2898 17.3919 61.0612C17.7814 60.9206 18.2053 60.9253 18.6119 60.882C18.8309 60.5468 19.0108 60.173 19.3174 59.9073C19.8773 59.7977 20.4514 59.8486 21.0176 59.8502C22.6349 59.8903 24.2522 59.8409 25.8696 59.8517C26.417 59.8116 26.8675 60.5407 27.3884 60.0942C27.9233 60.9176 28.9243 61.4829 29.9301 61.2821C30.6887 61.1663 31.2925 60.6302 31.6819 60.0031C31.8024 60.1576 31.9228 60.3136 32.0448 60.4696ZM25.5958 61.8119C24.7168 62.2583 24.6229 63.5837 25.4645 64.1197C26.3138 64.8642 27.7544 64.0131 27.6433 62.9457C27.6543 61.9602 26.442 61.3161 25.5958 61.8119Z" fill="#B7AFA5"/>
<path d="M25.5957 61.812C26.4419 61.3161 27.6542 61.9602 27.6432 62.9457C27.7543 64.0131 26.3137 64.8642 25.4644 64.1197C24.6228 63.5837 24.7167 62.2584 25.5957 61.812ZM25.6552 62.4283C25.2454 62.8098 25.4096 63.5698 25.9352 63.7721C26.3418 63.9946 26.7329 63.6965 27.0488 63.4694C27.113 63.0199 27.102 62.5534 26.7313 62.2352C26.3716 62.2352 25.9117 62.0931 25.6552 62.4283Z" fill="black"/>
<path d="M25.6553 62.4283C25.9118 62.0931 26.3716 62.2352 26.7314 62.2352C27.1021 62.5534 27.113 63.0199 27.0489 63.4694C26.7329 63.6965 26.3419 63.9946 25.9352 63.7722C25.4097 63.5698 25.2454 62.8099 25.6553 62.4283Z" fill="#B6C1B1"/>
</g>
<defs>
<clipPath id="clip0">
<rect width="58" height="68" fill="white"/>
</clipPath>
</defs>
</svg>
