<svg width="14" height="15" viewBox="0 0 14 15" fill="none" xmlns="http://www.w3.org/2000/svg">
<path d="M13.2222 0H0.777778C0.571498 0 0.373668 0.0831771 0.227806 0.231233C0.0819444 0.379289 0 0.580097 0 0.78948V2.83423C0 3.24713 0.165667 3.65292 0.453445 3.94503L4.66667 8.22164V14.2106C4.66682 14.3451 4.70079 14.4774 4.76537 14.5948C4.82994 14.7123 4.92298 14.8111 5.03568 14.8818C5.14837 14.9526 5.277 14.993 5.40937 14.9992C5.54174 15.0054 5.67348 14.9772 5.79211 14.9172L8.90322 13.3383C9.16689 13.2041 9.33333 12.9309 9.33333 12.6317V8.22164L13.5466 3.94503C13.8343 3.65292 14 3.24713 14 2.83423V0.78948C14 0.580097 13.9181 0.379289 13.7722 0.231233C13.6263 0.0831771 13.4285 0 13.2222 0V0ZM8.00567 7.33664C7.9333 7.40983 7.87591 7.49682 7.8368 7.59261C7.79769 7.68841 7.77763 7.79111 7.77778 7.8948V12.1438L6.22222 12.9333V7.8948C6.22237 7.79111 6.20231 7.68841 6.1632 7.59261C6.12409 7.49682 6.0667 7.40983 5.99433 7.33664L1.55556 2.83423V1.57896H12.4452L12.4468 2.82871L8.00567 7.33664V7.33664Z" fill="url(#paint0_linear)"/>
<defs>
<linearGradient id="paint0_linear" x1="0" y1="7.5" x2="14" y2="7.5" gradientUnits="userSpaceOnUse">
<stop stop-color="#C84E89"/>
<stop offset="1" stop-color="#F15F79"/>
</linearGradient>
</defs>
</svg>
